<svg id="_800_clear" data-name="800/clear" xmlns="http://www.w3.org/2000/svg" viewBox="0 0 43.4 43.4"><defs><style>.cls-1{fill:#f7ed38;}</style></defs><title>clear</title><circle id="_Path_" data-name="&lt;Path&gt;" class="cls-1" cx="24.6" cy="25" r="10.8" transform="translate(-7.1 1.8) rotate(-10.8)"/><path id="_Path_2" data-name="&lt;Path&gt;" class="cls-1" d="M23.4,9.3a1.2,1.2,0,0,0,1.2,1.2,1.1,1.1,0,0,0,1.1-1.2V4.5a1.1,1.1,0,0,0-1.1-1.2,1.2,1.2,0,0,0-1.2,1.2Z" transform="translate(-2.9 -3.3)"/><path id="_Path_3" data-name="&lt;Path&gt;" class="cls-1" d="M23.4,40.7v4.8a1.2,1.2,0,0,0,1.2,1.2,1.1,1.1,0,0,0,1.1-1.2V40.7a1.1,1.1,0,0,0-1.1-1.2A1.2,1.2,0,0,0,23.4,40.7Z" transform="translate(-2.9 -3.3)"/><path id="_Path_4" data-name="&lt;Path&gt;" class="cls-1" d="M16.7,12.6l.6-.2a1.1,1.1,0,0,0,.4-1.6L15.3,6.6a1.2,1.2,0,0,0-2,1.2L15.7,12A1.1,1.1,0,0,0,16.7,12.6Z" transform="translate(-2.9 -3.3)"/><path id="_Path_5" data-name="&lt;Path&gt;" class="cls-1" d="M31.8,37.6a1.2,1.2,0,0,0-.4,1.6l2.4,4.2a1.4,1.4,0,0,0,1,.5h.6a1.1,1.1,0,0,0,.4-1.6L33.4,38A1.2,1.2,0,0,0,31.8,37.6Z" transform="translate(-2.9 -3.3)"/><path id="_Path_6" data-name="&lt;Path&gt;" class="cls-1" d="M5.8,14.2a1.1,1.1,0,0,0,.4,1.5l4.2,2.5H11a1.1,1.1,0,0,0,1-.6,1.1,1.1,0,0,0-.4-1.5L7.3,13.7A1.1,1.1,0,0,0,5.8,14.2Z" transform="translate(-2.9 -3.3)"/><path id="_Path_7" data-name="&lt;Path&gt;" class="cls-1" d="M42.9,34.3l-4.2-2.5a1.1,1.1,0,0,0-1.5.5,1,1,0,0,0,.4,1.5l4.2,2.5h.6a1.2,1.2,0,0,0,1-.6A1.1,1.1,0,0,0,42.9,34.3Z" transform="translate(-2.9 -3.3)"/><path id="_Path_8" data-name="&lt;Path&gt;" class="cls-1" d="M10,25a1.1,1.1,0,0,0-1.1-1.1H4a1.1,1.1,0,1,0,0,2.2H8.9A1.1,1.1,0,0,0,10,25Z" transform="translate(-2.9 -3.3)"/><path id="_Path_9" data-name="&lt;Path&gt;" class="cls-1" d="M45.1,23.9H40.2a1.1,1.1,0,0,0,0,2.2h4.9a1.1,1.1,0,1,0,0-2.2Z" transform="translate(-2.9 -3.3)"/><path id="_Path_10" data-name="&lt;Path&gt;" class="cls-1" d="M10.4,31.8,6.2,34.3a1.1,1.1,0,0,0-.4,1.5,1.1,1.1,0,0,0,1,.6h.5l4.3-2.5a1.1,1.1,0,0,0,.4-1.5A1.2,1.2,0,0,0,10.4,31.8Z" transform="translate(-2.9 -3.3)"/><path id="_Path_11" data-name="&lt;Path&gt;" class="cls-1" d="M41.8,13.7l-4.2,2.5a1,1,0,0,0-.4,1.5,1.1,1.1,0,0,0,.9.6h.6l4.2-2.5a1.1,1.1,0,0,0,.5-1.5A1.2,1.2,0,0,0,41.8,13.7Z" transform="translate(-2.9 -3.3)"/><path id="_Path_12" data-name="&lt;Path&gt;" class="cls-1" d="M15.7,38l-2.4,4.2a1.2,1.2,0,0,0,.4,1.6h.6a1.2,1.2,0,0,0,1-.5l2.4-4.2a1.1,1.1,0,0,0-.4-1.6A1.3,1.3,0,0,0,15.7,38Z" transform="translate(-2.9 -3.3)"/><path id="_Path_13" data-name="&lt;Path&gt;" class="cls-1" d="M31.8,12.4l.6.2a1.1,1.1,0,0,0,1-.6l2.4-4.2a1.1,1.1,0,0,0-.4-1.6,1.3,1.3,0,0,0-1.6.4l-2.4,4.2A1.2,1.2,0,0,0,31.8,12.4Z" transform="translate(-2.9 -3.3)"/></svg>