<svg id="_802_scattered_clouds" data-name="802/scattered clouds" xmlns="http://www.w3.org/2000/svg" viewBox="0 0 43.8 26.9"><defs><style>.cls-1{fill:#72c8f1;}.cls-2{fill:#46c8f5;}</style></defs><title>cloudy</title><path id="_Path_" data-name="&lt;Path&gt;" class="cls-1" d="M16.9,35H39.7a6.8,6.8,0,0,0,6.8-6.7,6.7,6.7,0,0,0-2.7-5.4l-.4-.6a7.9,7.9,0,0,0-7.6-5.7,6.8,6.8,0,0,0-2,.2,1.2,1.2,0,0,1-1.1-.4,8.9,8.9,0,0,0-7.3-3.9,9.1,9.1,0,0,0-5.9,2.3,8.9,8.9,0,0,0-2.8,5.7,1.5,1.5,0,0,1-.6.9h-.7A7.7,7.7,0,0,0,11.6,24a7.2,7.2,0,0,0-1.5,4.3A6.8,6.8,0,0,0,16.9,35Z" transform="translate(-2.6 -12.5)"/><path id="_Path_2" data-name="&lt;Path&gt;" class="cls-2" d="M9.5,39.5H32.2a6.8,6.8,0,0,0,4.1-12.2.7.7,0,0,1-.3-.6A8,8,0,0,0,28.3,21l-1.9.2a1.3,1.3,0,0,1-1.2-.4A8.6,8.6,0,0,0,18,17a8.8,8.8,0,0,0-8.8,7.9,1.5,1.5,0,0,1-.6.9l-.3.2H8a6.3,6.3,0,0,0-3.8,2.3,6.7,6.7,0,0,0-1.6,4.3A6.9,6.9,0,0,0,9.5,39.5Z" transform="translate(-2.6 -12.5)"/></svg>