<?xml version="1.0" encoding="utf-8"?>
<!-- Generator: Adobe Illustrator 16.0.0, SVG Export Plug-In . SVG Version: 6.00 Build 0)  -->
<!DOCTYPE svg PUBLIC "-//W3C//DTD SVG 1.1//EN" "http://www.w3.org/Graphics/SVG/1.1/DTD/svg11.dtd">
<svg version="1.1" id="Layer_1" xmlns="http://www.w3.org/2000/svg" xmlns:xlink="http://www.w3.org/1999/xlink" x="0px" y="0px"
	 width="50px" height="50px" viewBox="0 0 50 50" enable-background="new 0 0 50 50" xml:space="preserve">
<path fill="none" stroke="#FFFFFF" stroke-width="2.5" stroke-miterlimit="10" d="M36.784,24.889
	c0.737-1.343,1.157-2.884,1.157-4.522c0-5.195-4.225-9.42-9.42-9.42c-4.526,0-8.317,3.209-9.217,7.473"/>
<path fill="#FFFFFF" d="M27.52,6.682c0,0.554,0.449,1.003,1.003,1.003s1.001-0.449,1.001-1.003V2.435
	c0-0.553-0.447-1.002-1.001-1.002S27.52,1.882,27.52,2.435V6.682z"/>
<path fill="#FFFFFF" d="M21.68,9.518c0.172,0,0.344-0.042,0.502-0.134c0.479-0.277,0.643-0.89,0.365-1.37l-2.123-3.677
	c-0.276-0.48-0.889-0.644-1.369-0.367c-0.479,0.276-0.643,0.89-0.367,1.37l2.124,3.677C20.998,9.338,21.334,9.518,21.68,9.518"/>
<path fill="#FFFFFF" d="M12.125,10.9c-0.277,0.479-0.113,1.093,0.367,1.37l3.678,2.124c0.157,0.091,0.33,0.134,0.5,0.134
	c0.346,0,0.684-0.18,0.869-0.501c0.277-0.479,0.113-1.092-0.367-1.37l-3.678-2.124C13.015,10.256,12.402,10.42,12.125,10.9"/>
<path fill="#FFFFFF" d="M44.553,28.465l-3.679-2.124c-0.479-0.276-1.093-0.112-1.37,0.366c-0.277,0.48-0.111,1.094,0.367,1.371
	l3.679,2.123c0.157,0.09,0.329,0.135,0.5,0.135c0.347,0,0.684-0.18,0.87-0.502C45.195,29.354,45.031,28.742,44.553,28.465"/>
<path fill="#FFFFFF" d="M15.84,19.367c0-0.553-0.449-1.002-1.002-1.002H10.59c-0.553,0-1.002,0.449-1.002,1.002
	c0,0.554,0.449,1.003,1.002,1.003h4.248C15.391,20.37,15.84,19.92,15.84,19.367"/>
<path fill="#FFFFFF" d="M46.453,19.364h-4.247c-0.554,0-1.003,0.449-1.003,1.002c0,0.554,0.449,1.003,1.003,1.003h4.247
	c0.554,0,1.002-0.449,1.002-1.003C47.455,19.813,47.007,19.364,46.453,19.364"/>
<path fill="#FFFFFF" d="M43.55,10.533l-3.679,2.124c-0.479,0.277-0.643,0.89-0.367,1.37c0.186,0.322,0.523,0.501,0.87,0.501
	c0.169,0,0.343-0.043,0.5-0.134l3.679-2.124c0.479-0.276,0.643-0.891,0.367-1.37C44.643,10.42,44.029,10.255,43.55,10.533"/>
<path fill="#FFFFFF" d="M34.863,9.384c0.158,0.091,0.33,0.135,0.5,0.135c0.347,0,0.684-0.181,0.869-0.502l2.123-3.677
	c0.277-0.479,0.112-1.093-0.367-1.37c-0.479-0.277-1.092-0.113-1.369,0.366l-2.123,3.679C34.219,8.495,34.383,9.107,34.863,9.384"/>
<path fill="none" stroke="#FFFFFF" stroke-width="2.5" stroke-miterlimit="10" d="M10.405,44.369h26.552
	c4.398,0,7.977-3.559,7.977-7.932c0-2.488-1.142-4.785-3.132-6.301c-0.215-0.162-0.371-0.391-0.445-0.648
	c-1.146-3.961-4.83-6.729-8.957-6.729c-0.761,0-1.519,0.094-2.252,0.275c-0.507,0.125-1.039-0.076-1.334-0.506
	c-1.926-2.799-5.102-4.469-8.494-4.469c-2.578,0-5.045,0.957-6.948,2.695c-1.89,1.729-3.064,4.076-3.306,6.615
	c-0.043,0.438-0.312,0.822-0.71,1.012c-0.125,0.059-0.249,0.123-0.372,0.189c-0.104,0.059-0.217,0.102-0.333,0.127
	c-1.739,0.389-3.318,1.365-4.448,2.752C3.043,32.875,2.43,34.6,2.43,36.438C2.43,40.811,6.008,44.369,10.405,44.369"/>
</svg>
