<svg id="_3xx_5xx_rain" data-name="3xx 5xx/rain" xmlns="http://www.w3.org/2000/svg" viewBox="0 0 26.4 35.2"><defs><style>.cls-1{fill:#46c8f5;}</style></defs><title>rain</title><path id="_Path_" data-name="&lt;Path&gt;" class="cls-1" d="M11.9,16.7A6.1,6.1,0,0,0,23,21.9c1.1-2.3-1.2-8.3-.5-13.5C18.7,12.5,13,14.4,11.9,16.7Z" transform="translate(-11.4 -8.4)"/><path id="_Path_2" data-name="&lt;Path&gt;" class="cls-1" d="M26.4,19a6.1,6.1,0,0,0,11.1,5.2c1.1-2.3-1.2-8.3-.5-13.5C33.2,14.8,27.5,16.7,26.4,19Z" transform="translate(-11.4 -8.4)"/><path id="_Path_3" data-name="&lt;Path&gt;" class="cls-1" d="M13.8,35A6.2,6.2,0,0,0,25,40.2c1-2.3-1.3-8.3-.5-13.5C20.6,30.8,14.9,32.7,13.8,35Z" transform="translate(-11.4 -8.4)"/></svg>