<?xml version="1.0" encoding="utf-8"?>
<!-- Generator: Adobe Illustrator 16.0.0, SVG Export Plug-In . SVG Version: 6.00 Build 0)  -->
<!DOCTYPE svg PUBLIC "-//W3C//DTD SVG 1.1//EN" "http://www.w3.org/Graphics/SVG/1.1/DTD/svg11.dtd">
<svg version="1.1" id="Layer_1" xmlns="http://www.w3.org/2000/svg" xmlns:xlink="http://www.w3.org/1999/xlink" x="0px" y="0px"
	 width="50px" height="50px" viewBox="0 0 50 50" enable-background="new 0 0 50 50" xml:space="preserve">
<path fill="#FFFFFF" d="M34.942,39.427c-0.123,0-0.246-0.019-0.368-0.056c-0.662-0.203-1.034-0.903-0.831-1.565l1.509-4.924
	c0.203-0.661,0.903-1.033,1.565-0.831c0.662,0.203,1.033,0.904,0.831,1.565l-1.509,4.923C35.974,39.079,35.478,39.427,34.942,39.427
	"/>
<path fill="#FFFFFF" d="M28.065,45.363c-0.121,0-0.245-0.018-0.367-0.055c-0.662-0.203-1.034-0.904-0.831-1.566l1.509-4.923
	c0.203-0.661,0.903-1.034,1.564-0.831c0.662,0.203,1.034,0.904,0.832,1.565l-1.51,4.924C29.098,45.017,28.602,45.363,28.065,45.363"
	/>
<path fill="#FFFFFF" d="M19.322,37.674c0.661,0.202,1.034,0.903,0.831,1.565l-1.509,4.923c-0.165,0.539-0.662,0.887-1.198,0.887
	c-0.121,0-0.244-0.018-0.367-0.056c-0.662-0.202-1.033-0.903-0.831-1.565l1.509-4.924C17.96,37.843,18.661,37.471,19.322,37.674"/>
<path fill="#FFFFFF" d="M24.448,39.427c-0.122,0-0.246-0.019-0.368-0.056c-0.661-0.203-1.034-0.903-0.831-1.565l1.509-4.924
	c0.203-0.661,0.903-1.033,1.565-0.831c0.662,0.203,1.033,0.904,0.831,1.565l-1.509,4.923C25.479,39.079,24.983,39.427,24.448,39.427
	"/>
<path fill="#FFFFFF" d="M13.954,39.427c-0.122,0-0.246-0.019-0.368-0.056c-0.661-0.203-1.033-0.903-0.831-1.565l1.509-4.924
	c0.203-0.661,0.904-1.033,1.565-0.831c0.662,0.203,1.033,0.904,0.832,1.565l-1.51,4.923C14.985,39.079,14.489,39.427,13.954,39.427"
	/>
<path fill="none" stroke="#FFFFFF" stroke-width="2.5" stroke-miterlimit="10" d="M43.402,14.042
	c-0.214-0.163-0.369-0.391-0.444-0.649C41.812,9.433,38.129,6.666,34,6.666c-0.76,0-1.518,0.092-2.252,0.274
	c-0.506,0.126-1.037-0.076-1.333-0.506c-1.928-2.799-5.103-4.47-8.493-4.47c-2.579,0-5.047,0.957-6.949,2.696
	c-1.89,1.728-3.064,4.076-3.307,6.614c-0.043,0.438-0.312,0.822-0.71,1.012c-0.124,0.06-0.249,0.123-0.371,0.191
	c-0.104,0.057-0.217,0.1-0.333,0.126c-1.739,0.388-3.318,1.365-4.447,2.752c-1.16,1.425-1.773,3.149-1.773,4.986
	c0,4.373,3.577,7.931,7.977,7.931h26.551c4.398,0,7.977-3.558,7.977-7.931C46.535,17.854,45.393,15.558,43.402,14.042"/>
</svg>
