<?xml version="1.0" encoding="utf-8"?>
<!-- Generator: Adobe Illustrator 16.0.0, SVG Export Plug-In . SVG Version: 6.00 Build 0)  -->
<!DOCTYPE svg PUBLIC "-//W3C//DTD SVG 1.1//EN" "http://www.w3.org/Graphics/SVG/1.1/DTD/svg11.dtd">
<svg version="1.1" id="Layer_1" xmlns="http://www.w3.org/2000/svg" xmlns:xlink="http://www.w3.org/1999/xlink" x="0px" y="0px"
	 width="50px" height="50px" viewBox="0 0 50 50" enable-background="new 0 0 50 50" xml:space="preserve">
<g>
	<line fill="none" stroke="#BCBEC0" stroke-linecap="round" stroke-miterlimit="10" x1="17.674" y1="32" x2="17.674" y2="43.465"/>
	
		<line fill="none" stroke="#BCBEC0" stroke-linecap="round" stroke-miterlimit="10" x1="15.699" y1="32.355" x2="17.501" y2="34.157"/>
	
		<line fill="none" stroke="#BCBEC0" stroke-linecap="round" stroke-miterlimit="10" x1="19.639" y1="32.355" x2="17.837" y2="34.157"/>
	
		<line fill="none" stroke="#BCBEC0" stroke-linecap="round" stroke-miterlimit="10" x1="15.704" y1="43.093" x2="17.506" y2="41.291"/>
	
		<line fill="none" stroke="#BCBEC0" stroke-linecap="round" stroke-miterlimit="10" x1="19.644" y1="43.093" x2="17.842" y2="41.291"/>
	
		<line fill="none" stroke="#BCBEC0" stroke-linecap="round" stroke-miterlimit="10" x1="12.718" y1="34.729" x2="22.647" y2="40.462"/>
	
		<line fill="none" stroke="#BCBEC0" stroke-linecap="round" stroke-miterlimit="10" x1="12.038" y1="36.617" x2="14.5" y2="35.957"/>
	
		<line fill="none" stroke="#BCBEC0" stroke-linecap="round" stroke-miterlimit="10" x1="14.008" y1="33.205" x2="14.668" y2="35.666"/>
	
		<line fill="none" stroke="#BCBEC0" stroke-linecap="round" stroke-miterlimit="10" x1="21.34" y1="41.981" x2="20.681" y2="39.521"/>
	
		<line fill="none" stroke="#BCBEC0" stroke-linecap="round" stroke-miterlimit="10" x1="23.31" y1="38.57" x2="20.849" y2="39.229"/>
	
		<line fill="none" stroke="#BCBEC0" stroke-linecap="round" stroke-miterlimit="10" x1="12.715" y1="40.567" x2="22.645" y2="34.834"/>
	<line fill="none" stroke="#BCBEC0" stroke-linecap="round" stroke-miterlimit="10" x1="14.01" y1="42.1" x2="14.67" y2="39.639"/>
	
		<line fill="none" stroke="#BCBEC0" stroke-linecap="round" stroke-miterlimit="10" x1="12.041" y1="38.688" x2="14.502" y2="39.348"/>
	
		<line fill="none" stroke="#BCBEC0" stroke-linecap="round" stroke-miterlimit="10" x1="23.307" y1="36.727" x2="20.846" y2="36.066"/>
	
		<line fill="none" stroke="#BCBEC0" stroke-linecap="round" stroke-miterlimit="10" x1="21.338" y1="33.314" x2="20.678" y2="35.776"/>
</g>
<path fill="none" stroke="#BCBEC0" stroke-width="2.5" stroke-miterlimit="10" d="M11.405,28.273h26.552
	c4.398,0,7.977-3.558,7.977-7.931c0-2.489-1.142-4.785-3.132-6.302c-0.215-0.162-0.371-0.39-0.445-0.648
	c-1.146-3.961-4.83-6.728-8.957-6.728c-0.761,0-1.519,0.093-2.252,0.274c-0.507,0.126-1.039-0.076-1.334-0.505
	c-1.926-2.8-5.102-4.47-8.494-4.47c-2.578,0-5.046,0.958-6.948,2.695c-1.89,1.729-3.064,4.077-3.306,6.615
	c-0.043,0.438-0.312,0.822-0.71,1.012c-0.125,0.059-0.249,0.123-0.372,0.19c-0.104,0.058-0.217,0.101-0.333,0.127
	c-1.739,0.388-3.318,1.365-4.448,2.751C4.043,16.78,3.43,18.505,3.43,20.343C3.43,24.716,7.008,28.273,11.405,28.273"/>
<g>
	<line fill="none" stroke="#BCBEC0" stroke-linecap="round" stroke-miterlimit="10" x1="31.674" y1="35" x2="31.674" y2="46.465"/>
	
		<line fill="none" stroke="#BCBEC0" stroke-linecap="round" stroke-miterlimit="10" x1="29.699" y1="35.355" x2="31.501" y2="37.157"/>
	
		<line fill="none" stroke="#BCBEC0" stroke-linecap="round" stroke-miterlimit="10" x1="33.639" y1="35.355" x2="31.837" y2="37.157"/>
	
		<line fill="none" stroke="#BCBEC0" stroke-linecap="round" stroke-miterlimit="10" x1="29.704" y1="46.093" x2="31.506" y2="44.291"/>
	
		<line fill="none" stroke="#BCBEC0" stroke-linecap="round" stroke-miterlimit="10" x1="33.644" y1="46.093" x2="31.842" y2="44.291"/>
	
		<line fill="none" stroke="#BCBEC0" stroke-linecap="round" stroke-miterlimit="10" x1="26.718" y1="37.729" x2="36.647" y2="43.462"/>
	
		<line fill="none" stroke="#BCBEC0" stroke-linecap="round" stroke-miterlimit="10" x1="26.038" y1="39.617" x2="28.5" y2="38.957"/>
	
		<line fill="none" stroke="#BCBEC0" stroke-linecap="round" stroke-miterlimit="10" x1="28.008" y1="36.205" x2="28.668" y2="38.666"/>
	
		<line fill="none" stroke="#BCBEC0" stroke-linecap="round" stroke-miterlimit="10" x1="35.34" y1="44.981" x2="34.681" y2="42.521"/>
	
		<line fill="none" stroke="#BCBEC0" stroke-linecap="round" stroke-miterlimit="10" x1="37.31" y1="41.57" x2="34.849" y2="42.229"/>
	
		<line fill="none" stroke="#BCBEC0" stroke-linecap="round" stroke-miterlimit="10" x1="26.715" y1="43.567" x2="36.645" y2="37.834"/>
	<line fill="none" stroke="#BCBEC0" stroke-linecap="round" stroke-miterlimit="10" x1="28.01" y1="45.1" x2="28.67" y2="42.639"/>
	
		<line fill="none" stroke="#BCBEC0" stroke-linecap="round" stroke-miterlimit="10" x1="26.041" y1="41.688" x2="28.502" y2="42.348"/>
	
		<line fill="none" stroke="#BCBEC0" stroke-linecap="round" stroke-miterlimit="10" x1="37.307" y1="39.727" x2="34.846" y2="39.066"/>
	
		<line fill="none" stroke="#BCBEC0" stroke-linecap="round" stroke-miterlimit="10" x1="35.338" y1="36.314" x2="34.678" y2="38.776"/>
</g>
</svg>
