<?xml version="1.0" encoding="utf-8"?>
<!-- Generator: Adobe Illustrator 16.0.0, SVG Export Plug-In . SVG Version: 6.00 Build 0)  -->
<!DOCTYPE svg PUBLIC "-//W3C//DTD SVG 1.1//EN" "http://www.w3.org/Graphics/SVG/1.1/DTD/svg11.dtd">
<svg version="1.1" id="Layer_1" xmlns="http://www.w3.org/2000/svg" xmlns:xlink="http://www.w3.org/1999/xlink" x="0px" y="0px"
	 width="50px" height="50px" viewBox="0 0 50 50" enable-background="new 0 0 50 50" xml:space="preserve">
<path fill="none" stroke="#FFFFFF" stroke-width="2.5" stroke-miterlimit="10" d="M11.804,28.274h26.551
	c4.398,0,7.977-3.558,7.977-7.931c0-2.489-1.143-4.785-3.133-6.301c-0.214-0.163-0.369-0.391-0.445-0.649
	c-1.146-3.961-4.828-6.728-8.957-6.728c-0.76,0-1.518,0.093-2.252,0.275c-0.506,0.125-1.037-0.077-1.334-0.506
	c-1.926-2.799-5.101-4.471-8.493-4.471c-2.579,0-5.047,0.959-6.949,2.696c-1.89,1.728-3.064,4.077-3.307,6.614
	c-0.042,0.439-0.311,0.823-0.709,1.013c-0.125,0.06-0.25,0.123-0.372,0.19c-0.105,0.058-0.217,0.101-0.333,0.127
	c-1.738,0.388-3.318,1.365-4.447,2.751c-1.16,1.425-1.773,3.149-1.773,4.987C3.828,24.717,7.405,28.274,11.804,28.274"/>
<polyline fill="none" stroke="#FFFFFF" stroke-width="2.5" stroke-linecap="round" stroke-linejoin="round" stroke-miterlimit="10" points="
	21.069,28.836 18.748,35.67 24.735,35.67 24.217,37.734 23.714,39.739 21.741,47.607 26.901,39.739 28.217,37.734 32.365,31.406
	25.557,31.406 26.6,28.592 "/>
</svg>
