<?xml version="1.0" encoding="utf-8"?>
<!-- Generator: Adobe Illustrator 16.0.0, SVG Export Plug-In . SVG Version: 6.00 Build 0)  -->
<!DOCTYPE svg PUBLIC "-//W3C//DTD SVG 1.1//EN" "http://www.w3.org/Graphics/SVG/1.1/DTD/svg11.dtd">
<svg version="1.1" id="Layer_1" xmlns="http://www.w3.org/2000/svg" xmlns:xlink="http://www.w3.org/1999/xlink" x="0px" y="0px"
	 width="50px" height="50px" viewBox="0 0 50 50" enable-background="new 0 0 50 50" xml:space="preserve">
<path fill="none" stroke="#FFFFFF" stroke-width="2.5" stroke-miterlimit="10" d="M25.334,37.108
	c6.492,0,11.775-5.283,11.775-11.776s-5.283-11.775-11.775-11.775c-6.494,0-11.777,5.282-11.777,11.775S18.84,37.108,25.334,37.108"
	/>
<path fill="#FFFFFF" d="M24.08,8.227c0,0.692,0.561,1.254,1.254,1.254c0.691,0,1.252-0.562,1.252-1.254V2.918
	c0-0.691-0.561-1.253-1.252-1.253c-0.693,0-1.254,0.562-1.254,1.253V8.227z"/>
<path fill="#FFFFFF" d="M24.08,42.438v5.309c0,0.691,0.561,1.254,1.254,1.254c0.691,0,1.252-0.562,1.252-1.254v-5.309
	c0-0.692-0.561-1.253-1.252-1.253C24.641,41.185,24.08,41.745,24.08,42.438"/>
<path fill="#FFFFFF" d="M16.782,11.771c0.213,0,0.428-0.055,0.625-0.168c0.599-0.346,0.804-1.112,0.459-1.712l-2.655-4.597
	c-0.346-0.6-1.112-0.805-1.712-0.459c-0.599,0.346-0.805,1.112-0.459,1.712l2.655,4.597C15.927,11.547,16.349,11.771,16.782,11.771"
	/>
<path fill="#FFFFFF" d="M33.26,39.061c-0.6,0.346-0.805,1.112-0.459,1.712l2.654,4.598c0.232,0.401,0.652,0.626,1.086,0.626
	c0.213,0,0.428-0.054,0.627-0.168c0.598-0.346,0.805-1.112,0.457-1.712l-2.654-4.597C34.625,38.92,33.859,38.715,33.26,39.061"/>
<path fill="#FFFFFF" d="M4.836,13.499c-0.346,0.6-0.14,1.366,0.459,1.712l4.597,2.654c0.197,0.113,0.413,0.168,0.625,0.168
	c0.433,0,0.854-0.225,1.086-0.627c0.346-0.6,0.141-1.366-0.459-1.712L6.548,13.04C5.95,12.694,5.183,12.899,4.836,13.499"/>
<path fill="#FFFFFF" d="M45.371,35.454L40.773,32.8c-0.6-0.347-1.365-0.141-1.713,0.459c-0.346,0.599-0.139,1.365,0.461,1.711
	l4.596,2.655c0.197,0.113,0.414,0.167,0.627,0.167c0.432,0,0.854-0.224,1.086-0.626C46.176,36.566,45.971,35.801,45.371,35.454"/>
<path fill="#FFFFFF" d="M9.481,25.332c0-0.692-0.562-1.253-1.253-1.253H2.919c-0.692,0-1.253,0.561-1.253,1.253
	s0.561,1.254,1.253,1.254h5.309C8.919,26.586,9.481,26.024,9.481,25.332"/>
<path fill="#FFFFFF" d="M47.748,24.079h-5.309c-0.693,0-1.254,0.561-1.254,1.253s0.561,1.254,1.254,1.254h5.309
	c0.691,0,1.252-0.562,1.252-1.254S48.439,24.079,47.748,24.079"/>
<path fill="#FFFFFF" d="M9.893,32.8l-4.597,2.653c-0.6,0.348-0.805,1.113-0.459,1.713c0.232,0.402,0.653,0.627,1.087,0.627
	c0.212,0,0.428-0.055,0.625-0.168l4.598-2.654c0.6-0.347,0.805-1.113,0.459-1.712C11.259,32.658,10.493,32.453,9.893,32.8"/>
<path fill="#FFFFFF" d="M44.117,13.04l-4.596,2.654c-0.6,0.346-0.807,1.112-0.459,1.712c0.23,0.402,0.652,0.627,1.086,0.627
	c0.213,0,0.428-0.055,0.625-0.168l4.598-2.654c0.6-0.346,0.805-1.112,0.459-1.712C45.482,12.899,44.717,12.693,44.117,13.04"/>
<path fill="#FFFFFF" d="M15.695,39.52l-2.654,4.597c-0.347,0.6-0.141,1.366,0.458,1.712c0.198,0.114,0.413,0.168,0.626,0.168
	c0.433,0,0.854-0.225,1.086-0.626l2.655-4.598c0.345-0.6,0.14-1.366-0.459-1.712S16.042,38.92,15.695,39.52"/>
<path fill="#FFFFFF" d="M33.26,11.604c0.197,0.114,0.412,0.169,0.625,0.169c0.434,0,0.854-0.226,1.086-0.628l2.654-4.597
	c0.348-0.6,0.141-1.366-0.457-1.712c-0.6-0.346-1.367-0.141-1.713,0.459l-2.654,4.597C32.455,10.491,32.66,11.258,33.26,11.604"/>
</svg>
