<?xml version="1.0" encoding="utf-8"?>
<!-- Generator: Adobe Illustrator 16.0.0, SVG Export Plug-In . SVG Version: 6.00 Build 0)  -->
<!DOCTYPE svg PUBLIC "-//W3C//DTD SVG 1.1//EN" "http://www.w3.org/Graphics/SVG/1.1/DTD/svg11.dtd">
<svg version="1.1" id="Layer_1" xmlns="http://www.w3.org/2000/svg" xmlns:xlink="http://www.w3.org/1999/xlink" x="0px" y="0px"
	 width="50px" height="50px" viewBox="0 0 50 50" enable-background="new 0 0 50 50" xml:space="preserve">
<path fill="none" stroke="#BCBEC0" stroke-width="2.5" stroke-miterlimit="10" d="M42.402,14.042
	c-0.214-0.163-0.369-0.391-0.444-0.649C40.812,9.433,37.129,6.666,33,6.666c-0.76,0-1.518,0.092-2.252,0.274
	c-0.506,0.126-1.037-0.076-1.333-0.506c-1.928-2.799-5.103-4.47-8.493-4.47c-2.579,0-5.047,0.957-6.949,2.696
	c-1.89,1.728-3.064,4.076-3.307,6.614c-0.043,0.438-0.312,0.822-0.71,1.012c-0.124,0.06-0.249,0.123-0.371,0.191
	c-0.104,0.057-0.217,0.1-0.333,0.126c-1.739,0.388-3.318,1.365-4.447,2.752c-1.16,1.425-1.773,3.149-1.773,4.986
	c0,4.373,3.577,7.931,7.977,7.931h26.551c4.398,0,7.977-3.558,7.977-7.931C45.535,17.854,44.393,15.558,42.402,14.042"/>
<path fill="#BCBEC0" d="M41.068,33.384c0-0.692-0.562-1.254-1.254-1.254H6.903c-0.692,0-1.253,0.562-1.253,1.254
	c0,0.691,0.561,1.253,1.253,1.253h32.911C40.507,34.637,41.068,34.075,41.068,33.384"/>
<path fill="#BCBEC0" d="M38.001,42.434H5.09c-0.691,0-1.252,0.562-1.252,1.254S4.398,44.94,5.09,44.94h32.911
	c0.692,0,1.254-0.561,1.254-1.253S38.693,42.434,38.001,42.434"/>
<path fill="#BCBEC0" d="M12.543,37.352c-0.692,0-1.254,0.562-1.254,1.253c0,0.692,0.562,1.254,1.254,1.254h12.061
	c0.692,0,1.253-0.562,1.253-1.254c0-0.691-0.561-1.253-1.253-1.253H12.543z"/>
<path fill="#BCBEC0" d="M43.714,37.352H31.652c-0.691,0-1.253,0.562-1.253,1.253c0,0.692,0.562,1.254,1.253,1.254h12.062
	c0.692,0,1.253-0.562,1.253-1.254C44.967,37.913,44.406,37.352,43.714,37.352"/>
</svg>
