<?xml version="1.0" encoding="utf-8"?>
<!-- Generator: Adobe Illustrator 16.0.0, SVG Export Plug-In . SVG Version: 6.00 Build 0)  -->
<!DOCTYPE svg PUBLIC "-//W3C//DTD SVG 1.1//EN" "http://www.w3.org/Graphics/SVG/1.1/DTD/svg11.dtd">
<svg version="1.1" id="Layer_1" xmlns="http://www.w3.org/2000/svg" xmlns:xlink="http://www.w3.org/1999/xlink" x="0px" y="0px"
	 width="50px" height="50px" viewBox="0 0 50 50" enable-background="new 0 0 50 50" xml:space="preserve">
<g>
	<path fill="none" stroke="#FFFFFF" stroke-width="2.5" stroke-miterlimit="10" d="M42.402,27.914
		C45.642,26.905,48,23.892,48,20.342c0-2.488-1.141-4.785-3.132-6.301c-0.214-0.162-0.369-0.391-0.444-0.648
		c-1.146-3.961-4.829-6.728-8.958-6.728c-0.76,0-1.518,0.093-2.252,0.274c-0.506,0.125-1.038-0.076-1.334-0.506
		c-1.927-2.799-5.102-4.469-8.492-4.469c-2.579,0-5.048,0.957-6.949,2.695c-1.891,1.729-3.064,4.076-3.308,6.614
		c-0.041,0.438-0.311,0.823-0.709,1.013c-0.124,0.059-0.249,0.123-0.371,0.189c-0.104,0.059-0.217,0.102-0.333,0.127
		c-1.739,0.389-3.318,1.365-4.448,2.752c-1.16,1.425-1.772,3.149-1.772,4.986c0,2.534,1.202,4.796,3.068,6.249"/>
	<path fill="none" stroke="#FFFFFF" stroke-width="2.5" stroke-miterlimit="10" d="M10.723,41.791h26.552
		c4.398,0,7.977-3.559,7.977-7.932c0-2.488-1.142-4.785-3.132-6.301c-0.215-0.162-0.371-0.391-0.445-0.648
		c-1.146-3.961-4.83-6.729-8.957-6.729c-0.761,0-1.519,0.094-2.252,0.275c-0.507,0.125-1.039-0.076-1.334-0.506
		c-1.925-2.799-5.101-4.469-8.494-4.469c-2.578,0-5.046,0.957-6.949,2.695c-1.89,1.729-3.064,4.076-3.306,6.615
		c-0.043,0.438-0.312,0.822-0.71,1.012c-0.125,0.059-0.249,0.123-0.372,0.189c-0.104,0.059-0.217,0.102-0.333,0.127
		C7.229,26.51,5.65,27.486,4.52,28.873c-1.159,1.424-1.772,3.148-1.772,4.986C2.748,38.232,6.326,41.791,10.723,41.791"/>
</g>
</svg>
