<?xml version="1.0" encoding="utf-8"?>
<!-- Generator: Adobe Illustrator 16.0.0, SVG Export Plug-In . SVG Version: 6.00 Build 0)  -->
<!DOCTYPE svg PUBLIC "-//W3C//DTD SVG 1.1//EN" "http://www.w3.org/Graphics/SVG/1.1/DTD/svg11.dtd">
<svg version="1.1" id="Layer_1" xmlns="http://www.w3.org/2000/svg" xmlns:xlink="http://www.w3.org/1999/xlink" x="0px" y="0px"
	 width="50px" height="50px" viewBox="0 0 50 50" enable-background="new 0 0 50 50" xml:space="preserve">
<circle fill="#808285" stroke="#808285" stroke-width="0.3675" stroke-miterlimit="10" cx="25" cy="25" r="24.01"/>
<g>
	<path fill="#FFFFFF" stroke="#FFFFFF" stroke-width="0.4125" stroke-miterlimit="10" d="M15.315,28.196"/>
	<g id="delete">
		<path fill="#FFFFFF" stroke="#FFFFFF" stroke-width="0.3" stroke-miterlimit="10" d="M13.984,35.128
			c0,2.02,1.652,3.672,3.672,3.672h14.688c2.02,0,3.672-1.652,3.672-3.672V18.197l-22.031,0.1V35.128z"/>
	</g>
	<g id="delete_1_">
		<path fill="#FFFFFF" stroke="#FFFFFF" stroke-width="0.3" stroke-miterlimit="10" d="M25.967,16.57h10.949
			c0-2.02-1.652-3.672-3.672-3.672h-7.178h-2.399h-6.91c-2.021,0-3.673,1.652-3.673,3.672h10.482H25.967z"/>
	</g>
	<g id="delete_2_">
		<path fill="#FFFFFF" stroke="#FFFFFF" stroke-width="1.2" stroke-miterlimit="10" d="M30.958,13.036
			c0-1.01-0.826-1.836-1.836-1.836h-3.589h-1.2h-3.455c-1.01,0-1.836,0.826-1.836,1.836"/>
	</g>
</g>
</svg>
