<svg id="_801_few_clouds" data-name="801/few clouds" xmlns="http://www.w3.org/2000/svg" viewBox="0 0 48.9 37.9"><defs><style>.cls-1{fill:#f7ed38;}.cls-2{fill:#46c8f5;}</style></defs><title>few-clouds</title><circle id="_Path_" data-name="&lt;Path&gt;" class="cls-1" cx="29.2" cy="24.5" r="10.1" transform="translate(-4.6 1.7) rotate(-10.8)"/><path id="_Path_2" data-name="&lt;Path&gt;" class="cls-1" d="M28.1,9.9a1.1,1.1,0,0,0,2.2,0V5.3a1.1,1.1,0,0,0-2.2,0Z" transform="translate(-0.5 -4.2)"/><path id="_Path_3" data-name="&lt;Path&gt;" class="cls-1" d="M21.9,12.9h.5a1.1,1.1,0,0,0,.4-1.5L20.5,7.4A.9.9,0,0,0,19.1,7a1,1,0,0,0-.4,1.4l2.3,4A1.1,1.1,0,0,0,21.9,12.9Z" transform="translate(-0.5 -4.2)"/><path id="_Path_4" data-name="&lt;Path&gt;" class="cls-1" d="M36,36.2a1.1,1.1,0,0,0-.4,1.5l2.3,3.9a1,1,0,0,0,.9.6l.5-.2a1,1,0,0,0,.4-1.4l-2.2-4A1.1,1.1,0,0,0,36,36.2Z" transform="translate(-0.5 -4.2)"/><path id="_Path_5" data-name="&lt;Path&gt;" class="cls-1" d="M11.7,14.4a1,1,0,0,0,.4,1.4L16,18.1l.5.2a1.1,1.1,0,0,0,1-.6,1,1,0,0,0-.4-1.4l-4-2.3A1,1,0,0,0,11.7,14.4Z" transform="translate(-0.5 -4.2)"/><path id="_Path_6" data-name="&lt;Path&gt;" class="cls-1" d="M46.4,33.2l-4-2.3a1,1,0,0,0-1.4.4,1,1,0,0,0,.3,1.4l4,2.3.5.2a1,1,0,0,0,.9-.6A1,1,0,0,0,46.4,33.2Z" transform="translate(-0.5 -4.2)"/><path id="_Path_7" data-name="&lt;Path&gt;" class="cls-1" d="M15.6,24.5a1,1,0,0,0-1-1.1H10a1.1,1.1,0,0,0,0,2.2h4.6A1,1,0,0,0,15.6,24.5Z" transform="translate(-0.5 -4.2)"/><path id="_Path_8" data-name="&lt;Path&gt;" class="cls-1" d="M48.4,23.4H43.8a1.1,1.1,0,0,0,0,2.2h4.6a1.1,1.1,0,1,0,0-2.2Z" transform="translate(-0.5 -4.2)"/><path id="_Path_9" data-name="&lt;Path&gt;" class="cls-1" d="M16,30.9l-3.9,2.3a1,1,0,0,0-.4,1.4,1,1,0,0,0,.9.6l.5-.2,4-2.3a1,1,0,0,0,.4-1.4A1.1,1.1,0,0,0,16,30.9Z" transform="translate(-0.5 -4.2)"/><path id="_Path_10" data-name="&lt;Path&gt;" class="cls-1" d="M45.3,14l-4,2.3a1,1,0,0,0-.3,1.4,1,1,0,0,0,.9.6l.5-.2,4-2.3a1,1,0,0,0,.3-1.4A1,1,0,0,0,45.3,14Z" transform="translate(-0.5 -4.2)"/><path id="_Path_11" data-name="&lt;Path&gt;" class="cls-1" d="M36,12.8h.5a1.2,1.2,0,0,0,1-.5l2.2-4A1,1,0,0,0,39.3,7a.9.9,0,0,0-1.4.4l-2.3,3.9A1.1,1.1,0,0,0,36,12.8Z" transform="translate(-0.5 -4.2)"/><path id="_Path_12" data-name="&lt;Path&gt;" class="cls-2" d="M7.4,41.5H30.1a6.8,6.8,0,0,0,4.1-12.2,1,1,0,0,1-.4-.5A7.9,7.9,0,0,0,26.2,23a5.8,5.8,0,0,0-1.9.3,1.1,1.1,0,0,1-1.2-.5A8.7,8.7,0,0,0,15.8,19a8.6,8.6,0,0,0-5.9,2.3A8.9,8.9,0,0,0,7.1,27c-.1.3-.3.7-.6.8l-.3.2H5.9a6.4,6.4,0,0,0-3.8,2.4A6.7,6.7,0,0,0,.5,34.7,6.8,6.8,0,0,0,7.4,41.5Z" transform="translate(-0.5 -4.2)"/></svg>