<svg id="_803-804_broken_clouds" data-name="803-804/broken clouds" xmlns="http://www.w3.org/2000/svg" viewBox="0 0 36.4 22.5"><defs><style>.cls-1{fill:#46c8f5;}</style></defs><title>overcast</title><path id="_Path_" data-name="&lt;Path&gt;" class="cls-1" d="M13.2,37.3H35.9a6.9,6.9,0,0,0,6.9-6.8,6.7,6.7,0,0,0-2.7-5.4,2.1,2.1,0,0,1-.4-.6A8,8,0,0,0,32,18.8a6.2,6.2,0,0,0-1.9.2,1.1,1.1,0,0,1-1.1-.4,9,9,0,0,0-7.3-3.9,9.1,9.1,0,0,0-6,2.4,8.4,8.4,0,0,0-2.8,5.6,1,1,0,0,1-.6.9h-.6a7.3,7.3,0,0,0-3.8,2.4,6.6,6.6,0,0,0-1.5,4.3A6.8,6.8,0,0,0,13.2,37.3Z" transform="translate(-6.4 -14.7)"/></svg>