<svg id="_6xx_snow" data-name="6xx/snow" xmlns="http://www.w3.org/2000/svg" viewBox="0 0 40.5 41.2"><defs><style>.cls-1{fill:none;stroke:#00aeef;stroke-linecap:round;stroke-miterlimit:10;stroke-width:1.93px;}</style></defs><title>snow</title><line class="cls-1" x1="20.2" y1="1" x2="20.2" y2="40.2"/><line class="cls-1" x1="13.5" y1="2.2" x2="19.7" y2="8.3"/><line class="cls-1" x1="27" y1="2.2" x2="20.8" y2="8.3"/><line class="cls-1" x1="13.5" y1="38.9" x2="19.7" y2="32.8"/><line class="cls-1" x1="27" y1="38.9" x2="20.8" y2="32.8"/><line class="cls-1" x1="3.3" y1="10.3" x2="37.3" y2="29.9"/><line class="cls-1" x1="1" y1="16.8" x2="9.4" y2="14.5"/><line class="cls-1" x1="7.7" y1="5.1" x2="10" y2="13.5"/><line class="cls-1" x1="32.8" y1="35.1" x2="30.5" y2="26.7"/><line class="cls-1" x1="39.5" y1="23.4" x2="31.1" y2="25.7"/><line class="cls-1" x1="3.3" y1="30.3" x2="37.3" y2="10.7"/><line class="cls-1" x1="7.7" y1="35.5" x2="10" y2="27.1"/><line class="cls-1" x1="1" y1="23.9" x2="9.4" y2="26.1"/><line class="cls-1" x1="39.5" y1="17.1" x2="31.1" y2="14.9"/><line class="cls-1" x1="32.8" y1="5.5" x2="30.5" y2="13.9"/></svg>