<svg id="_2xx_thunderstorms" data-name="2xx/thunderstorms" xmlns="http://www.w3.org/2000/svg" viewBox="0 0 36.4 38.7"><defs><style>.cls-1{fill:#46c8f5;}.cls-2{fill:#f7ed38;}</style></defs><title>thunderstorms</title><path id="_Path_" data-name="&lt;Path&gt;" class="cls-1" d="M12.1,28.8H34.8A6.8,6.8,0,0,0,41.6,22a6.6,6.6,0,0,0-2.7-5.3l-.4-.6a7.9,7.9,0,0,0-7.6-5.8,5.8,5.8,0,0,0-1.9.3,1.1,1.1,0,0,1-1.2-.5,9,9,0,0,0-7.3-3.8,8.6,8.6,0,0,0-5.9,2.3,8.9,8.9,0,0,0-2.8,5.7,1.5,1.5,0,0,1-.6.9h-.6a6.9,6.9,0,0,0-3.8,2.4A6.7,6.7,0,0,0,5.2,22,6.8,6.8,0,0,0,12.1,28.8Z" transform="translate(-5.2 -6.3)"/><polygon id="_Path_2" data-name="&lt;Path&gt;" class="cls-2" points="18.2 21.4 21.7 11.9 15.7 11.9 10.9 25.9 17.3 25.9 16.8 28.1 16.2 30.3 14.1 38.7 19.6 30.3 21 28.1 25.5 21.4 18.2 21.4"/></svg>