<?xml version="1.0" encoding="utf-8"?>
<!-- Generator: Adobe Illustrator 16.0.0, SVG Export Plug-In . SVG Version: 6.00 Build 0)  -->
<!DOCTYPE svg PUBLIC "-//W3C//DTD SVG 1.1//EN" "http://www.w3.org/Graphics/SVG/1.1/DTD/svg11.dtd">
<svg version="1.1" id="Layer_1" xmlns="http://www.w3.org/2000/svg" xmlns:xlink="http://www.w3.org/1999/xlink" x="0px" y="0px"
	 width="300px" height="300px" viewBox="0 0 300 300" enable-background="new 0 0 300 300" xml:space="preserve">
<g>
	<g>
		<path fill="#A7A9AC" stroke="#A7A9AC" stroke-miterlimit="10" d="M149.827,270.651h-1.698l-3.666-13.933l-40.334,8.433
			l0.733-9.899l36.3-23.833c-4.767-14.3-4.399-42.533-4.399-42.533v-41.433l-34.101,0.366L61.715,160.59l-33.118,10.329
			c-8.066,2.566-8.811,9.168-8.811,9.168l0.01-7.7c-0.01-10.179,10.267-14.3,10.267-14.3l106.7-55.734V41.208
			c0,0,3.989-16.912,12.377-22.412c0,0,1.571-0.897,2.784,0"/>
		<path fill="#A7A9AC" stroke="#A7A9AC" stroke-miterlimit="10" d="M117.652,112.336V95.658c0-3.024-0.688-3.162-0.688-3.162h-16.5
			c-2.338,0-1.788,3.162-1.788,3.162v18.013c0,0,0.407,5.896,1.576,7.753"/>
		<path fill="#A7A9AC" stroke="#A7A9AC" stroke-miterlimit="10" d="M115.864,147.678v5.456c0,0-0.276,2.842-1.207,2.841
			c-1.264-0.001-1.543-3.071-1.543-3.071v-4.898"/>
		<path fill="#A7A9AC" stroke="#A7A9AC" stroke-miterlimit="10" d="M90.649,151.566v5.553c0,0-0.277,2.842-1.206,2.841
			c-1.265-0.001-1.544-3.071-1.544-3.071v-4.898"/>
		<path fill="#A7A9AC" stroke="#A7A9AC" stroke-miterlimit="10" d="M63.957,160.103v5.485c0,0-0.276,2.843-1.206,2.841
			c-1.265-0.001-1.544-3.07-1.544-3.07v-4.898"/>
	</g>
	<g>
		<path fill="#A7A9AC" stroke="#A7A9AC" stroke-miterlimit="10" d="M151.924,18.796c8.388,5.5,12.377,22.412,12.377,22.412v61.145
			l106.7,55.734c0,0,10.276,4.121,10.267,14.3l0.01,7.7c0,0-0.743-6.602-8.81-9.168L239.35,160.59l-40.948-12.771l-34.101-0.366
			v41.433c0,0,0.368,28.233-4.399,42.533l36.3,23.833l0.733,9.899l-40.333-8.433l-3.667,13.933h-4.806"/>
		<path fill="#A7A9AC" stroke="#A7A9AC" stroke-miterlimit="10" d="M183.411,112.336V95.658c0-3.024,0.688-3.162,0.688-3.162h16.5
			c2.338,0,1.788,3.162,1.788,3.162v18.013c0,0-0.407,5.896-1.576,7.753"/>
		<path fill="#A7A9AC" stroke="#A7A9AC" stroke-miterlimit="10" d="M185.199,147.678v5.456c0,0,0.277,2.842,1.207,2.841
			c1.264-0.001,1.543-3.071,1.543-3.071v-4.898"/>
		<path fill="#A7A9AC" stroke="#A7A9AC" stroke-miterlimit="10" d="M210.414,151.566v5.553c0,0,0.277,2.842,1.206,2.841
			c1.265-0.001,1.544-3.071,1.544-3.071v-4.898"/>
		<path fill="#A7A9AC" stroke="#A7A9AC" stroke-miterlimit="10" d="M237.106,160.103v5.485c0,0,0.277,2.843,1.206,2.841
			c1.265-0.001,1.544-3.07,1.544-3.07v-4.898"/>
	</g>
</g>
</svg>
