<?xml version="1.0" encoding="utf-8"?>
<!-- Generator: Adobe Illustrator 16.0.0, SVG Export Plug-In . SVG Version: 6.00 Build 0)  -->
<!DOCTYPE svg PUBLIC "-//W3C//DTD SVG 1.1//EN" "http://www.w3.org/Graphics/SVG/1.1/DTD/svg11.dtd">
<svg version="1.1" id="Layer_1" xmlns="http://www.w3.org/2000/svg" xmlns:xlink="http://www.w3.org/1999/xlink" x="0px" y="0px"
	 width="300px" height="300px" viewBox="0 0 300 300" enable-background="new 0 0 300 300" xml:space="preserve">
<g>
	<path fill="#A7A9AC" stroke="#A7A9AC" stroke-miterlimit="10" d="M167.92,170.266c26.827,0,48.646-21.821,48.646-48.646
		c0-26.825-21.818-48.648-48.646-48.648c-26.822,0-48.645,21.823-48.645,48.648C119.275,148.444,141.098,170.266,167.92,170.266"/>
	<path fill="#A7A9AC" stroke="#A7A9AC" stroke-miterlimit="10" d="M162.744,50.955c0,2.861,2.318,5.177,5.178,5.177
		s5.176-2.315,5.176-5.177V29.024c0-2.857-2.316-5.178-5.176-5.178s-5.178,2.32-5.178,5.178V50.955z"/>
	<path fill="#A7A9AC" stroke="#A7A9AC" stroke-miterlimit="10" d="M132.594,65.602c0.88,0,1.77-0.226,2.584-0.697
		c2.476-1.429,3.323-4.594,1.895-7.071l-10.964-18.991c-1.429-2.477-4.595-3.323-7.073-1.895c-2.476,1.429-3.324,4.596-1.896,7.072
		l10.967,18.991C129.066,64.673,130.806,65.602,132.594,65.602"/>
	<path fill="#A7A9AC" stroke="#A7A9AC" stroke-miterlimit="10" d="M200.666,178.333c-2.478,1.429-3.326,4.597-1.897,7.073
		l10.967,18.992c0.96,1.662,2.699,2.587,4.487,2.587c0.88,0,1.77-0.222,2.584-0.694c2.476-1.429,3.324-4.596,1.896-7.072
		l-10.967-18.991C206.309,177.753,203.142,176.903,200.666,178.333"/>
	<path fill="#A7A9AC" stroke="#A7A9AC" stroke-miterlimit="10" d="M83.248,72.734c-1.43,2.477-0.581,5.642,1.896,7.073
		l18.992,10.965c0.814,0.47,1.704,0.693,2.582,0.693c1.79,0,3.528-0.927,4.49-2.589c1.429-2.477,0.582-5.642-1.895-7.073
		L90.321,70.836C87.846,69.411,84.68,70.259,83.248,72.734"/>
	<path fill="#A7A9AC" stroke="#A7A9AC" stroke-miterlimit="10" d="M250.7,163.433l-18.993-10.964
		c-2.477-1.429-5.642-0.581-7.074,1.895c-1.43,2.477-0.58,5.642,1.897,7.072l18.992,10.966c0.814,0.471,1.704,0.693,2.584,0.693
		c1.788,0,3.527-0.928,4.487-2.588C254.022,168.029,253.177,164.864,250.7,163.433"/>
	<path fill="#A7A9AC" stroke="#A7A9AC" stroke-miterlimit="10" d="M102.435,121.62c0-2.858-2.318-5.177-5.178-5.177H75.325
		c-2.858,0-5.174,2.318-5.174,5.177c0,2.859,2.315,5.178,5.174,5.178h21.932C100.116,126.798,102.435,124.479,102.435,121.62"/>
	<path fill="#A7A9AC" stroke="#A7A9AC" stroke-miterlimit="10" d="M265.692,121.62c0-2.858-2.317-5.177-5.177-5.177"/>
	<path fill="#A7A9AC" stroke="#A7A9AC" stroke-miterlimit="10" d="M260.516,116.443h-21.932c-2.858,0-5.178,2.318-5.178,5.177
		c0,2.859,2.319,5.178,5.178,5.178h21.932c2.859,0,5.177-2.318,5.177-5.178"/>
	<path fill="#A7A9AC" stroke="#A7A9AC" stroke-miterlimit="10" d="M104.137,152.469l-18.992,10.964
		c-2.478,1.432-3.326,4.597-1.896,7.074c0.959,1.658,2.698,2.588,4.488,2.588c0.878,0,1.768-0.222,2.583-0.693l18.995-10.966
		c2.477-1.431,3.323-4.596,1.895-7.072C109.78,151.888,106.613,151.036,104.137,152.469"/>
	<path fill="#A7A9AC" stroke="#A7A9AC" stroke-miterlimit="10" d="M245.522,70.84L226.53,81.804
		c-2.478,1.429-3.322,4.597-1.897,7.073c0.961,1.659,2.699,2.589,4.49,2.589c0.877,0,1.767-0.225,2.583-0.693L250.7,79.808
		c2.477-1.428,3.322-4.596,1.894-7.072C251.165,70.26,247.999,69.411,245.522,70.84"/>
	<path fill="#A7A9AC" stroke="#A7A9AC" stroke-miterlimit="10" d="M200.666,64.905c0.813,0.471,1.704,0.696,2.582,0.696
		c1.79,0,3.53-0.929,4.487-2.592l10.967-18.99c1.429-2.477,0.58-5.643-1.896-7.072c-2.473-1.431-5.643-0.582-7.071,1.895
		l-10.967,18.993C197.34,60.312,198.188,63.477,200.666,64.905"/>
	<path fill="#A7A9AC" stroke="#A7A9AC" stroke-miterlimit="10" d="M62.457,203.766h109.686c18.169,0,32.95-14.698,32.95-32.766
		c0-10.281-4.717-19.766-12.938-26.029c-0.885-0.672-1.527-1.612-1.836-2.681c-4.735-16.363-19.951-27.792-37.005-27.792
		c-3.142,0-6.272,0.381-9.304,1.136c-2.093,0.519-4.287-0.316-5.511-2.09c-7.958-11.562-21.075-18.466-35.085-18.466
		c-10.655,0-20.849,3.958-28.708,11.139c-7.808,7.136-12.659,16.842-13.659,27.324c-0.176,1.811-1.287,3.399-2.93,4.182
		c-0.514,0.243-1.031,0.508-1.534,0.786c-0.433,0.241-0.897,0.416-1.375,0.523c-7.187,1.603-13.712,5.641-18.377,11.366
		c-4.793,5.885-7.327,13.01-7.327,20.602C29.505,189.067,44.289,203.766,62.457,203.766"/>
	<path fill="#A7A9AC" stroke="#A7A9AC" stroke-miterlimit="10" d="M150.187,248.656c-0.504,0-1.012-0.076-1.519-0.229
		c-2.736-0.838-4.271-3.733-3.433-6.469l6.232-20.339c0.838-2.732,3.734-4.269,6.467-3.432c2.734,0.839,4.271,3.733,3.435,6.464
		l-6.232,20.342C154.449,247.222,152.4,248.656,150.187,248.656"/>
	<path fill="#A7A9AC" stroke="#A7A9AC" stroke-miterlimit="10" d="M121.78,273.183c-0.502,0-1.015-0.072-1.519-0.229
		c-2.734-0.837-4.271-3.733-3.433-6.466l6.231-20.342c0.839-2.73,3.732-4.269,6.467-3.431c2.735,0.84,4.272,3.732,3.436,6.468
		l-6.235,20.339C126.044,271.751,123.995,273.183,121.78,273.183"/>
	<path fill="#A7A9AC" stroke="#A7A9AC" stroke-miterlimit="10" d="M85.661,241.417c2.733,0.836,4.271,3.731,3.433,6.466
		l-6.231,20.337c-0.686,2.229-2.737,3.663-4.949,3.663c-0.503,0-1.014-0.074-1.519-0.229c-2.735-0.838-4.271-3.732-3.435-6.466
		l6.232-20.341C80.031,242.114,82.93,240.578,85.661,241.417"/>
	<path fill="#A7A9AC" stroke="#A7A9AC" stroke-miterlimit="10" d="M106.834,248.656c-0.502,0-1.012-0.076-1.519-0.229
		c-2.732-0.838-4.271-3.733-3.434-6.469l6.235-20.339c0.838-2.732,3.732-4.269,6.466-3.432c2.733,0.839,4.27,3.733,3.433,6.464
		l-6.232,20.342C111.097,247.222,109.05,248.656,106.834,248.656"/>
	<path fill="#A7A9AC" stroke="#A7A9AC" stroke-miterlimit="10" d="M63.482,248.656c-0.502,0-1.012-0.076-1.519-0.229
		c-2.733-0.838-4.269-3.733-3.434-6.469l6.233-20.339c0.838-2.732,3.735-4.269,6.466-3.432c2.735,0.839,4.271,3.733,3.436,6.464
		l-6.234,20.342C67.747,247.222,65.697,248.656,63.482,248.656"/>
</g>
</svg>
