<?xml version="1.0" encoding="utf-8"?>
<!-- Generator: Adobe Illustrator 16.0.0, SVG Export Plug-In . SVG Version: 6.00 Build 0)  -->
<!DOCTYPE svg PUBLIC "-//W3C//DTD SVG 1.1//EN" "http://www.w3.org/Graphics/SVG/1.1/DTD/svg11.dtd">
<svg version="1.1" id="Layer_1" xmlns="http://www.w3.org/2000/svg" xmlns:xlink="http://www.w3.org/1999/xlink" x="0px" y="0px"
	 width="300px" height="300px" viewBox="0 0 300 300" enable-background="new 0 0 300 300" xml:space="preserve">
<g>
	<path fill="#A7A9AC" stroke="#A7A9AC" stroke-miterlimit="10" d="M111.976,149.186v5.224c0,0-0.265,2.722-1.156,2.719
		c-1.209-0.001-1.477-2.939-1.477-2.939v-4.689"/>
	<path fill="#A7A9AC" stroke="#A7A9AC" stroke-miterlimit="10" d="M87.84,152.908v5.315c0,0-0.268,2.722-1.155,2.721
		c-1.212,0-1.479-2.939-1.479-2.939v-4.689"/>
	<path fill="#A7A9AC" stroke="#A7A9AC" stroke-miterlimit="10" d="M62.286,161.08v5.251c0,0-0.264,2.721-1.157,2.72
		c-1.209,0-1.477-2.938-1.477-2.938v-4.69"/>
	<path fill="#A7A9AC" stroke="#A7A9AC" stroke-miterlimit="10" d="M147.685,25.187c1.511,0.216,2.782,0.625,2.782,0.625
		c8.03,5.266,11.848,21.453,11.848,21.453v58.533l18.296,9.557V99.39c0-2.896,0.656-3.026,0.656-3.026h15.797
		c2.236,0,1.709,3.026,1.709,3.026v17.243c0,0-0.388,5.646-1.508,7.421l67.19,35.098c0,0,9.837,3.945,9.827,13.688l0.01,7.372
		c0,0-0.71-6.32-8.433-8.775l-31.704-9.89l-39.197-12.224l-32.644-0.352v39.662c0,0,0.352,27.028-4.212,40.716l34.75,22.816
		l0.702,9.476l-38.611-8.073l-3.511,13.339h-1.624h-6.947l-3.51-13.339l-38.609,8.073l0.7-9.476l34.751-22.816
		c-4.563-13.688-4.212-40.716-4.212-40.716v-39.662l-32.645,0.352l-39.198,12.224l-31.704,9.89
		c-7.721,2.455-8.432,8.775-8.432,8.775l0.009-7.372c-0.009-9.742,9.828-13.688,9.828-13.688l67.19-35.098
		c-1.119-1.774-1.508-7.421-1.508-7.421V99.39c0,0-0.527-3.026,1.711-3.026h15.795c0,0,0.658,0.13,0.658,3.026v15.965l18.295-9.557
		V47.265c0,0,3.818-16.188,11.848-21.453c0,0,1.639-0.681,2.61-0.664L147.685,25.187z"/>
	<path fill="#A7A9AC" stroke="#A7A9AC" stroke-miterlimit="10" d="M182.319,149.186v5.224c0,0,0.267,2.722,1.157,2.719
		c1.207-0.001,1.477-2.939,1.477-2.939v-4.689"/>
	<path fill="#A7A9AC" stroke="#A7A9AC" stroke-miterlimit="10" d="M206.457,152.908v5.315c0,0,0.267,2.722,1.154,2.721
		c1.21,0,1.478-2.939,1.478-2.939v-4.689"/>
	<path fill="#A7A9AC" stroke="#A7A9AC" stroke-miterlimit="10" d="M232.01,161.08v5.251c0,0,0.264,2.721,1.156,2.72
		c1.21,0,1.477-2.938,1.477-2.938v-4.69"/>
</g>
</svg>
