<?xml version="1.0" encoding="utf-8"?>
<!-- Generator: Adobe Illustrator 16.0.0, SVG Export Plug-In . SVG Version: 6.00 Build 0)  -->
<!DOCTYPE svg PUBLIC "-//W3C//DTD SVG 1.1//EN" "http://www.w3.org/Graphics/SVG/1.1/DTD/svg11.dtd">
<svg version="1.1" id="Layer_1" xmlns="http://www.w3.org/2000/svg" xmlns:xlink="http://www.w3.org/1999/xlink" x="0px" y="0px"
	 width="1000px" height="500px" viewBox="0 0 1000 500" enable-background="new 0 0 1000 500" xml:space="preserve">
<path fill="#BCBEC0" d="M538.068,305.632l-37.834-0.199l-166.694-6.279c-39.139-1.885-120.057-17.839-120.057-17.839
	c-80.93-14.604-176.795-46.307-176.795-46.307l-0.035-15.886l4.5-1.25c11.17-2.865,48.125-6.875,48.125-6.875l145.875-7.5
	l19.54,0.126l-0.083-6.584h2.333l4.167,6.652l117.543-0.944l419.562,2.125l-0.25-10.25h1.875l7.188,10.571
	c52.307,2.294,74.665,19.449,74.665,19.449c13.671,11.323,17.917,17.646,17.917,17.646l17.383,8.636
	c17.395,8.635,15.758,20.332,15.758,20.332c0.286,10.462-13.238,15.795-13.238,15.795c-11.516,6.686-40.898,11.592-40.898,11.592
	c-10.476,2.312-59.427,4.416-59.427,4.416l-154.918,0.537L538.068,305.632z"/>
<g>
	<circle fill="#BCBEC0" stroke="#BCBEC0" stroke-width="2" stroke-miterlimit="10" cx="811.502" cy="343.695" r="11.602"/>
	<circle fill="#BCBEC0" stroke="#BCBEC0" stroke-width="2" stroke-miterlimit="10" cx="497.475" cy="334.946" r="18.773"/>
	<polygon fill="#E6E7E8" stroke="#E6E7E8" stroke-width="2" stroke-miterlimit="10" points="859.777,242.372 869.277,242.372 
		869.277,230.539 861.882,230.539 859.777,232.852 	"/>
	<path fill="#E6E7E8" stroke="#E6E7E8" stroke-width="2" stroke-miterlimit="10" d="M880.195,230.539h-7.584v11.833h8.416
		c0,0,4.418-0.166,6.918-1.083L880.195,230.539z"/>
	<polygon fill="#E6E7E8" stroke="#E6E7E8" stroke-width="2" stroke-miterlimit="10" points="888.984,230.99 883.611,230.539 
		892.027,241.372 899.651,242.081 	"/>
	<path fill="#E6E7E8" stroke="#E6E7E8" stroke-width="2" stroke-miterlimit="10" d="M786.694,239.102
		c0,1.277,1.035,2.312,2.312,2.312l0,0c1.277,0,2.312-1.035,2.312-2.312v-3.75c0-1.277-1.035-2.312-2.312-2.312l0,0
		c-1.277,0-2.312,1.035-2.312,2.312V239.102z"/>
	<path fill="#E6E7E8" stroke="#E6E7E8" stroke-width="2" stroke-miterlimit="10" d="M605.444,239.102
		c0,1.277,1.035,2.312,2.312,2.312l0,0c1.277,0,2.312-1.035,2.312-2.312v-3.75c0-1.277-1.035-2.312-2.312-2.312l0,0
		c-1.277,0-2.312,1.035-2.312,2.312V239.102z"/>
	<path fill="#E6E7E8" stroke="#E6E7E8" stroke-width="2" stroke-miterlimit="10" d="M618.391,239.102
		c0,1.277,1.035,2.312,2.312,2.312l0,0c1.277,0,2.312-1.035,2.312-2.312v-3.75c0-1.277-1.035-2.312-2.312-2.312l0,0
		c-1.277,0-2.312,1.035-2.312,2.312V239.102z"/>
	<path fill="#E6E7E8" stroke="#E6E7E8" stroke-width="2" stroke-miterlimit="10" d="M631.338,239.102
		c0,1.277,1.035,2.312,2.312,2.312l0,0c1.277,0,2.312-1.035,2.312-2.312v-3.75c0-1.277-1.035-2.312-2.312-2.312l0,0
		c-1.277,0-2.312,1.035-2.312,2.312V239.102z"/>
	<path fill="#E6E7E8" stroke="#E6E7E8" stroke-width="2" stroke-miterlimit="10" d="M644.283,239.102
		c0,1.277,1.035,2.312,2.312,2.312l0,0c1.277,0,2.312-1.035,2.312-2.312v-3.75c0-1.277-1.035-2.312-2.312-2.312l0,0
		c-1.277,0-2.312,1.035-2.312,2.312V239.102z"/>
	<path fill="#E6E7E8" stroke="#E6E7E8" stroke-width="2" stroke-miterlimit="10" d="M657.23,239.102
		c0,1.277,1.035,2.312,2.312,2.312l0,0c1.277,0,2.312-1.035,2.312-2.312v-3.75c0-1.277-1.035-2.312-2.312-2.312l0,0
		c-1.277,0-2.312,1.035-2.312,2.312V239.102z"/>
	<path fill="#E6E7E8" stroke="#E6E7E8" stroke-width="2" stroke-miterlimit="10" d="M670.176,239.102
		c0,1.277,1.035,2.312,2.312,2.312l0,0c1.277,0,2.312-1.035,2.312-2.312v-3.75c0-1.277-1.035-2.312-2.312-2.312l0,0
		c-1.277,0-2.312,1.035-2.312,2.312V239.102z"/>
	<path fill="#E6E7E8" stroke="#E6E7E8" stroke-width="2" stroke-miterlimit="10" d="M683.123,239.102
		c0,1.277,1.035,2.312,2.312,2.312l0,0c1.277,0,2.312-1.035,2.312-2.312v-3.75c0-1.277-1.035-2.312-2.312-2.312l0,0
		c-1.277,0-2.312,1.035-2.312,2.312V239.102z"/>
	<path fill="#E6E7E8" stroke="#E6E7E8" stroke-width="2" stroke-miterlimit="10" d="M709.016,239.102
		c0,1.277,1.035,2.312,2.312,2.312l0,0c1.277,0,2.312-1.035,2.312-2.312v-3.75c0-1.277-1.035-2.312-2.312-2.312l0,0
		c-1.277,0-2.312,1.035-2.312,2.312V239.102z"/>
	<path fill="#E6E7E8" stroke="#E6E7E8" stroke-width="2" stroke-miterlimit="10" d="M721.963,239.102
		c0,1.277,1.035,2.312,2.312,2.312l0,0c1.277,0,2.312-1.035,2.312-2.312v-3.75c0-1.277-1.035-2.312-2.312-2.312l0,0
		c-1.277,0-2.312,1.035-2.312,2.312V239.102z"/>
	<path fill="#E6E7E8" stroke="#E6E7E8" stroke-width="2" stroke-miterlimit="10" d="M734.908,239.102
		c0,1.277,1.035,2.312,2.312,2.312l0,0c1.277,0,2.312-1.035,2.312-2.312v-3.75c0-1.277-1.035-2.312-2.312-2.312l0,0
		c-1.277,0-2.312,1.035-2.312,2.312V239.102z"/>
	<path fill="#E6E7E8" stroke="#E6E7E8" stroke-width="2" stroke-miterlimit="10" d="M747.855,239.102
		c0,1.277,1.035,2.312,2.312,2.312l0,0c1.277,0,2.312-1.035,2.312-2.312v-3.75c0-1.277-1.035-2.312-2.312-2.312l0,0
		c-1.277,0-2.312,1.035-2.312,2.312V239.102z"/>
	<path fill="#E6E7E8" stroke="#E6E7E8" stroke-width="2" stroke-miterlimit="10" d="M760.801,239.102
		c0,1.277,1.035,2.312,2.312,2.312l0,0c1.277,0,2.312-1.035,2.312-2.312v-3.75c0-1.277-1.035-2.312-2.312-2.312l0,0
		c-1.277,0-2.312,1.035-2.312,2.312V239.102z"/>
	<path fill="#E6E7E8" stroke="#E6E7E8" stroke-width="2" stroke-miterlimit="10" d="M773.748,239.102
		c0,1.277,1.035,2.312,2.312,2.312l0,0c1.277,0,2.312-1.035,2.312-2.312v-3.75c0-1.277-1.035-2.312-2.312-2.312l0,0
		c-1.277,0-2.312,1.035-2.312,2.312V239.102z"/>
	<path fill="#E6E7E8" stroke="#E6E7E8" stroke-width="2" stroke-miterlimit="10" d="M696.069,239.102
		c0,1.277,1.035,2.312,2.312,2.312l0,0c1.277,0,2.312-1.035,2.312-2.312v-3.75c0-1.277-1.035-2.312-2.312-2.312l0,0
		c-1.277,0-2.312,1.035-2.312,2.312V239.102z"/>
	<path fill="#E6E7E8" stroke="#E6E7E8" stroke-width="2" stroke-miterlimit="10" d="M550.945,238.102
		c0,1.277,1.035,2.312,2.312,2.312l0,0c1.277,0,2.312-1.035,2.312-2.312v-3.75c0-1.277-1.035-2.312-2.312-2.312l0,0
		c-1.277,0-2.312,1.035-2.312,2.312V238.102z"/>
	<path fill="#E6E7E8" stroke="#E6E7E8" stroke-width="2" stroke-miterlimit="10" d="M267.132,238.102
		c0,1.277,1.035,2.312,2.312,2.312l0,0c1.277,0,2.312-1.035,2.312-2.312v-3.75c0-1.277-1.035-2.312-2.312-2.312l0,0
		c-1.277,0-2.312,1.035-2.312,2.312V238.102z"/>
	<path fill="#E6E7E8" stroke="#E6E7E8" stroke-width="2" stroke-miterlimit="10" d="M280.032,238.102
		c0,1.277,1.035,2.312,2.312,2.312l0,0c1.277,0,2.312-1.035,2.312-2.312v-3.75c0-1.277-1.035-2.312-2.312-2.312l0,0
		c-1.277,0-2.312,1.035-2.312,2.312V238.102z"/>
	<path fill="#E6E7E8" stroke="#E6E7E8" stroke-width="2" stroke-miterlimit="10" d="M292.933,238.102
		c0,1.277,1.035,2.312,2.312,2.312l0,0c1.277,0,2.312-1.035,2.312-2.312v-3.75c0-1.277-1.035-2.312-2.312-2.312l0,0
		c-1.277,0-2.312,1.035-2.312,2.312V238.102z"/>
	<path fill="#E6E7E8" stroke="#E6E7E8" stroke-width="2" stroke-miterlimit="10" d="M305.834,238.102
		c0,1.277,1.035,2.312,2.312,2.312l0,0c1.277,0,2.312-1.035,2.312-2.312v-3.75c0-1.277-1.035-2.312-2.312-2.312l0,0
		c-1.277,0-2.312,1.035-2.312,2.312V238.102z"/>
	<path fill="#E6E7E8" stroke="#E6E7E8" stroke-width="2" stroke-miterlimit="10" d="M318.734,238.102
		c0,1.277,1.035,2.312,2.312,2.312l0,0c1.277,0,2.312-1.035,2.312-2.312v-3.75c0-1.277-1.035-2.312-2.312-2.312l0,0
		c-1.277,0-2.312,1.035-2.312,2.312V238.102z"/>
	<path fill="#E6E7E8" stroke="#E6E7E8" stroke-width="2" stroke-miterlimit="10" d="M331.635,238.102
		c0,1.277,1.035,2.312,2.312,2.312l0,0c1.277,0,2.312-1.035,2.312-2.312v-3.75c0-1.277-1.035-2.312-2.312-2.312l0,0
		c-1.277,0-2.312,1.035-2.312,2.312V238.102z"/>
	<path fill="#E6E7E8" stroke="#E6E7E8" stroke-width="2" stroke-miterlimit="10" d="M344.535,238.102
		c0,1.277,1.035,2.312,2.312,2.312l0,0c1.277,0,2.312-1.035,2.312-2.312v-3.75c0-1.277-1.035-2.312-2.312-2.312l0,0
		c-1.277,0-2.312,1.035-2.312,2.312V238.102z"/>
	<path fill="#E6E7E8" stroke="#E6E7E8" stroke-width="2" stroke-miterlimit="10" d="M357.436,238.102
		c0,1.277,1.035,2.312,2.312,2.312l0,0c1.277,0,2.312-1.035,2.312-2.312v-3.75c0-1.277-1.035-2.312-2.312-2.312l0,0
		c-1.277,0-2.312,1.035-2.312,2.312V238.102z"/>
	<path fill="#E6E7E8" stroke="#E6E7E8" stroke-width="2" stroke-miterlimit="10" d="M370.337,238.102
		c0,1.277,1.035,2.312,2.312,2.312l0,0c1.277,0,2.312-1.035,2.312-2.312v-3.75c0-1.277-1.035-2.312-2.312-2.312l0,0
		c-1.277,0-2.312,1.035-2.312,2.312V238.102z"/>
	<path fill="#58595B" stroke="#58595B" stroke-width="2" stroke-miterlimit="10" d="M396.138,238.102
		c0,1.277,1.035,2.312,2.312,2.312l0,0c1.277,0,2.312-1.035,2.312-2.312v-3.75c0-1.277-1.035-2.312-2.312-2.312l0,0
		c-1.277,0-2.312,1.035-2.312,2.312V238.102z"/>
	<path fill="#E6E7E8" stroke="#E6E7E8" stroke-width="2" stroke-miterlimit="10" d="M421.938,238.102
		c0,1.277,1.035,2.312,2.312,2.312l0,0c1.277,0,2.312-1.035,2.312-2.312v-3.75c0-1.277-1.035-2.312-2.312-2.312l0,0
		c-1.277,0-2.312,1.035-2.312,2.312V238.102z"/>
	<path fill="#E6E7E8" stroke="#E6E7E8" stroke-width="2" stroke-miterlimit="10" d="M434.84,238.102
		c0,1.277,1.035,2.312,2.312,2.312l0,0c1.277,0,2.312-1.035,2.312-2.312v-3.75c0-1.277-1.035-2.312-2.312-2.312l0,0
		c-1.277,0-2.312,1.035-2.312,2.312V238.102z"/>
	<path fill="#E6E7E8" stroke="#E6E7E8" stroke-width="2" stroke-miterlimit="10" d="M447.74,238.102
		c0,1.277,1.035,2.312,2.312,2.312l0,0c1.277,0,2.312-1.035,2.312-2.312v-3.75c0-1.277-1.035-2.312-2.312-2.312l0,0
		c-1.277,0-2.312,1.035-2.312,2.312V238.102z"/>
	<path fill="#E6E7E8" stroke="#E6E7E8" stroke-width="2" stroke-miterlimit="10" d="M460.641,238.102
		c0,1.277,1.035,2.312,2.312,2.312l0,0c1.277,0,2.312-1.035,2.312-2.312v-3.75c0-1.277-1.035-2.312-2.312-2.312l0,0
		c-1.277,0-2.312,1.035-2.312,2.312V238.102z"/>
	<path fill="#E6E7E8" stroke="#E6E7E8" stroke-width="2" stroke-miterlimit="10" d="M473.541,238.102
		c0,1.277,1.035,2.312,2.312,2.312l0,0c1.277,0,2.312-1.035,2.312-2.312v-3.75c0-1.277-1.035-2.312-2.312-2.312l0,0
		c-1.277,0-2.312,1.035-2.312,2.312V238.102z"/>
	<path fill="#E6E7E8" stroke="#E6E7E8" stroke-width="2" stroke-miterlimit="10" d="M486.441,238.102
		c0,1.277,1.035,2.312,2.312,2.312l0,0c1.277,0,2.312-1.035,2.312-2.312v-3.75c0-1.277-1.035-2.312-2.312-2.312l0,0
		c-1.277,0-2.312,1.035-2.312,2.312V238.102z"/>
	<path fill="#E6E7E8" stroke="#E6E7E8" stroke-width="2" stroke-miterlimit="10" d="M499.342,238.102
		c0,1.277,1.035,2.312,2.312,2.312l0,0c1.277,0,2.312-1.035,2.312-2.312v-3.75c0-1.277-1.035-2.312-2.312-2.312l0,0
		c-1.277,0-2.312,1.035-2.312,2.312V238.102z"/>
	<path fill="#E6E7E8" stroke="#E6E7E8" stroke-width="2" stroke-miterlimit="10" d="M512.243,238.102
		c0,1.277,1.035,2.312,2.312,2.312l0,0c1.277,0,2.312-1.035,2.312-2.312v-3.75c0-1.277-1.035-2.312-2.312-2.312l0,0
		c-1.277,0-2.312,1.035-2.312,2.312V238.102z"/>
	<path fill="#E6E7E8" stroke="#E6E7E8" stroke-width="2" stroke-miterlimit="10" d="M525.144,238.102
		c0,1.277,1.035,2.312,2.312,2.312l0,0c1.277,0,2.312-1.035,2.312-2.312v-3.75c0-1.277-1.035-2.312-2.312-2.312l0,0
		c-1.277,0-2.312,1.035-2.312,2.312V238.102z"/>
	<path fill="#E6E7E8" stroke="#E6E7E8" stroke-width="2" stroke-miterlimit="10" d="M538.045,238.102
		c0,1.277,1.035,2.312,2.312,2.312l0,0c1.277,0,2.312-1.035,2.312-2.312v-3.75c0-1.277-1.035-2.312-2.312-2.312l0,0
		c-1.277,0-2.312,1.035-2.312,2.312V238.102z"/>
	<path fill="#BCBEC0" d="M84.422,211.997L49.088,63.164l38.125,0.25c7.5-0.125,12.125,7.25,12.125,7.25l94.083,112.542
		c11.394,12.416,29.718,18.628,36.876,21.291L84.422,211.997z"/>
	<path fill="#E6E7E8" stroke="#E6E7E8" stroke-width="2" stroke-miterlimit="10" d="M586.443,239.102
		c0,1.277,1.035,2.312,2.312,2.312l0,0c1.277,0,2.312-1.035,2.312-2.312v-3.75c0-1.277-1.035-2.312-2.312-2.312l0,0
		c-1.277,0-2.312,1.035-2.312,2.312V239.102z"/>
	<path fill="#E6E7E8" stroke="#E6E7E8" stroke-width="2" stroke-miterlimit="10" d="M566.443,239.102
		c0,1.277,1.035,2.312,2.312,2.312l0,0c1.277,0,2.312-1.035,2.312-2.312v-3.75c0-1.277-1.035-2.312-2.312-2.312l0,0
		c-1.277,0-2.312,1.035-2.312,2.312V239.102z"/>
	<path fill="#BCBEC0" stroke="#BCBEC0" stroke-width="2" stroke-miterlimit="10" d="M623.016,268.872c0,0-166.573-26-203.906-34
		c0,0-8.666-0.667-12.333-5c0,0-43.259-48.84-45.457-51.208c0,0-1.625-2.75-5.5-2.75h-5.75l26.678,50.935
		c0,0,10.322,14.315,20.572,17.565c0,0,115.548,43.456,122.458,48.209c0,0,24.334,13.751,42.667,5.585L623.016,268.872"/>
	<g>
		<path fill="#BCBEC0" stroke="#BCBEC0" stroke-width="2" stroke-miterlimit="10" d="M583.443,280.372c5.5-2.833,23.5-6.5,23.5-6.5
			c8.834-2,36-1.834,36-1.834c16.167,0.5,23.834,4.667,23.834,4.667l-1.32,53.354c-48.309,8.182-85.73-0.45-85.73-0.45
			l-1.783-46.403L583.443,280.372z"/>
		<polygon fill="#BCBEC0" stroke="#BCBEC0" stroke-width="2" stroke-miterlimit="10" points="578.444,291.914 559.944,298.164 
			559.944,316.173 578.444,321.414 		"/>
		<polygon fill="#BCBEC0" stroke="#BCBEC0" stroke-width="2" stroke-miterlimit="10" points="560.319,312.289 546.569,306.664 
			560.319,299.914 		"/>
	</g>
</g>
</svg>
