<?xml version="1.0" encoding="utf-8"?>
<!-- Generator: Adobe Illustrator 16.0.0, SVG Export Plug-In . SVG Version: 6.00 Build 0)  -->
<!DOCTYPE svg PUBLIC "-//W3C//DTD SVG 1.1//EN" "http://www.w3.org/Graphics/SVG/1.1/DTD/svg11.dtd">
<svg version="1.1" id="Layer_1" xmlns="http://www.w3.org/2000/svg" xmlns:xlink="http://www.w3.org/1999/xlink" x="0px" y="0px"
	 width="935.953px" height="317.984px" viewBox="0 0 935.953 317.984" enable-background="new 0 0 935.953 317.984"
	 xml:space="preserve">
<path fill="#FFFFFF" stroke="#414042" stroke-width="2" stroke-miterlimit="10" d="M525.954,253.993l-37.834-0.199l-166.694-6.279
	c-39.139-1.885-120.057-17.839-120.057-17.839c-80.93-14.604-176.795-46.307-176.795-46.307l-0.035-15.886l4.5-1.25
	c11.17-2.865,48.125-6.875,48.125-6.875l145.875-7.5l19.54,0.126l-0.083-6.584h2.333l4.167,6.652l117.543-0.944l419.562,2.125
	l-0.25-10.25h1.875l7.188,10.571c52.307,2.294,74.665,19.449,74.665,19.449c13.671,11.323,17.917,17.646,17.917,17.646l17.383,8.636
	c17.395,8.635,15.758,20.332,15.758,20.332c0.286,10.462-13.238,15.795-13.238,15.795c-11.516,6.686-40.898,11.592-40.898,11.592
	c-10.476,2.312-59.427,4.416-59.427,4.416l-154.918,0.537L525.954,253.993z"/>
<circle fill="#FFFFFF" stroke="#58595B" stroke-width="2" stroke-miterlimit="10" cx="799.388" cy="292.056" r="11.602"/>
<circle fill="#FFFFFF" stroke="#58595B" stroke-width="2" stroke-miterlimit="10" cx="485.36" cy="283.307" r="18.773"/>
<polygon fill="#58595B" stroke="#58595B" stroke-width="2" stroke-miterlimit="10" points="847.663,190.733 857.163,190.733 
	857.163,178.9 849.768,178.9 847.663,181.212 "/>
<path fill="#58595B" stroke="#58595B" stroke-width="2" stroke-miterlimit="10" d="M868.081,178.9h-7.584v11.833h8.416
	c0,0,4.418-0.166,6.918-1.083L868.081,178.9z"/>
<polygon fill="#58595B" stroke="#58595B" stroke-width="2" stroke-miterlimit="10" points="876.87,179.351 871.497,178.9 
	879.913,189.733 887.537,190.442 "/>
<path fill="#58595B" stroke="#58595B" stroke-width="2" stroke-miterlimit="10" d="M774.58,187.462c0,1.277,1.035,2.312,2.312,2.312
	l0,0c1.277,0,2.312-1.035,2.312-2.312v-3.75c0-1.277-1.035-2.312-2.312-2.312l0,0c-1.277,0-2.312,1.035-2.312,2.312V187.462z"/>
<path fill="#58595B" stroke="#58595B" stroke-width="2" stroke-miterlimit="10" d="M593.33,187.462c0,1.277,1.035,2.312,2.312,2.312
	l0,0c1.277,0,2.312-1.035,2.312-2.312v-3.75c0-1.277-1.035-2.312-2.312-2.312l0,0c-1.277,0-2.312,1.035-2.312,2.312V187.462z"/>
<path fill="#58595B" stroke="#58595B" stroke-width="2" stroke-miterlimit="10" d="M606.276,187.462
	c0,1.277,1.035,2.312,2.312,2.312l0,0c1.277,0,2.312-1.035,2.312-2.312v-3.75c0-1.277-1.035-2.312-2.312-2.312l0,0
	c-1.277,0-2.312,1.035-2.312,2.312V187.462z"/>
<path fill="#58595B" stroke="#58595B" stroke-width="2" stroke-miterlimit="10" d="M619.224,187.462
	c0,1.277,1.035,2.312,2.312,2.312l0,0c1.277,0,2.312-1.035,2.312-2.312v-3.75c0-1.277-1.035-2.312-2.312-2.312l0,0
	c-1.277,0-2.312,1.035-2.312,2.312V187.462z"/>
<path fill="#58595B" stroke="#58595B" stroke-width="2" stroke-miterlimit="10" d="M632.169,187.462
	c0,1.277,1.035,2.312,2.312,2.312l0,0c1.277,0,2.312-1.035,2.312-2.312v-3.75c0-1.277-1.035-2.312-2.312-2.312l0,0
	c-1.277,0-2.312,1.035-2.312,2.312V187.462z"/>
<path fill="#58595B" stroke="#58595B" stroke-width="2" stroke-miterlimit="10" d="M645.116,187.462
	c0,1.277,1.035,2.312,2.312,2.312l0,0c1.277,0,2.312-1.035,2.312-2.312v-3.75c0-1.277-1.035-2.312-2.312-2.312l0,0
	c-1.277,0-2.312,1.035-2.312,2.312V187.462z"/>
<path fill="#58595B" stroke="#58595B" stroke-width="2" stroke-miterlimit="10" d="M658.062,187.462
	c0,1.277,1.035,2.312,2.312,2.312l0,0c1.277,0,2.312-1.035,2.312-2.312v-3.75c0-1.277-1.035-2.312-2.312-2.312l0,0
	c-1.277,0-2.312,1.035-2.312,2.312V187.462z"/>
<path fill="#58595B" stroke="#58595B" stroke-width="2" stroke-miterlimit="10" d="M671.009,187.462
	c0,1.277,1.035,2.312,2.312,2.312l0,0c1.277,0,2.312-1.035,2.312-2.312v-3.75c0-1.277-1.035-2.312-2.312-2.312l0,0
	c-1.277,0-2.312,1.035-2.312,2.312V187.462z"/>
<path fill="#58595B" stroke="#58595B" stroke-width="2" stroke-miterlimit="10" d="M696.901,187.462
	c0,1.277,1.035,2.312,2.312,2.312l0,0c1.277,0,2.312-1.035,2.312-2.312v-3.75c0-1.277-1.035-2.312-2.312-2.312l0,0
	c-1.277,0-2.312,1.035-2.312,2.312V187.462z"/>
<path fill="#58595B" stroke="#58595B" stroke-width="2" stroke-miterlimit="10" d="M709.849,187.462
	c0,1.277,1.035,2.312,2.312,2.312l0,0c1.277,0,2.312-1.035,2.312-2.312v-3.75c0-1.277-1.035-2.312-2.312-2.312l0,0
	c-1.277,0-2.312,1.035-2.312,2.312V187.462z"/>
<path fill="#58595B" stroke="#58595B" stroke-width="2" stroke-miterlimit="10" d="M722.794,187.462
	c0,1.277,1.035,2.312,2.312,2.312l0,0c1.277,0,2.312-1.035,2.312-2.312v-3.75c0-1.277-1.035-2.312-2.312-2.312l0,0
	c-1.277,0-2.312,1.035-2.312,2.312V187.462z"/>
<path fill="#58595B" stroke="#58595B" stroke-width="2" stroke-miterlimit="10" d="M735.741,187.462
	c0,1.277,1.035,2.312,2.312,2.312l0,0c1.277,0,2.312-1.035,2.312-2.312v-3.75c0-1.277-1.035-2.312-2.312-2.312l0,0
	c-1.277,0-2.312,1.035-2.312,2.312V187.462z"/>
<path fill="#58595B" stroke="#58595B" stroke-width="2" stroke-miterlimit="10" d="M748.687,187.462
	c0,1.277,1.035,2.312,2.312,2.312l0,0c1.277,0,2.312-1.035,2.312-2.312v-3.75c0-1.277-1.035-2.312-2.312-2.312l0,0
	c-1.277,0-2.312,1.035-2.312,2.312V187.462z"/>
<path fill="#58595B" stroke="#58595B" stroke-width="2" stroke-miterlimit="10" d="M761.634,187.462
	c0,1.277,1.035,2.312,2.312,2.312l0,0c1.277,0,2.312-1.035,2.312-2.312v-3.75c0-1.277-1.035-2.312-2.312-2.312l0,0
	c-1.277,0-2.312,1.035-2.312,2.312V187.462z"/>
<path fill="#58595B" stroke="#58595B" stroke-width="2" stroke-miterlimit="10" d="M683.955,187.462
	c0,1.277,1.035,2.312,2.312,2.312l0,0c1.277,0,2.312-1.035,2.312-2.312v-3.75c0-1.277-1.035-2.312-2.312-2.312l0,0
	c-1.277,0-2.312,1.035-2.312,2.312V187.462z"/>
<path fill="#FFFFFF" stroke="#58595B" stroke-width="2" stroke-miterlimit="10" d="M791.557,206.438
	c0,1.743,1.413,3.156,3.156,3.156h17.844c1.743,0,3.156-1.413,3.156-3.156v-37.844c0-1.743-1.413-3.156-3.156-3.156h-17.844
	c-1.743,0-3.156,1.413-3.156,3.156V206.438z"/>
<path fill="#FFFFFF" stroke="#58595B" stroke-width="2" stroke-miterlimit="10" d="M197.557,206.438
	c0,1.743,1.413,3.156,3.156,3.156h17.844c1.743,0,3.156-1.413,3.156-3.156v-37.844c0-1.743-1.413-3.156-3.156-3.156h-17.844
	c-1.743,0-3.156,1.413-3.156,3.156V206.438z"/>
<path fill="#FFFFFF" stroke="#58595B" stroke-width="2" stroke-miterlimit="10" d="M148.496,179.732c0,0-8.29-0.5-16.062-1.667
	l-66.271-11.833l-38.333-0.794l41.333,14.294c0,0,10.666,3.833,20.333,4.333s50.666-0.5,59-3.5"/>
<path fill="#58595B" stroke="#58595B" stroke-width="2" stroke-miterlimit="10" d="M538.831,187.462
	c0,1.277,1.035,2.312,2.312,2.312l0,0c1.277,0,2.312-1.035,2.312-2.312v-3.75c0-1.277-1.035-2.312-2.312-2.312l0,0
	c-1.277,0-2.312,1.035-2.312,2.312V187.462z"/>
<path fill="#58595B" stroke="#58595B" stroke-width="2" stroke-miterlimit="10" d="M255.018,186.462
	c0,1.277,1.035,2.312,2.312,2.312l0,0c1.277,0,2.312-1.035,2.312-2.312v-3.75c0-1.277-1.035-2.312-2.312-2.312l0,0
	c-1.277,0-2.312,1.035-2.312,2.312V186.462z"/>
<path fill="#58595B" stroke="#58595B" stroke-width="2" stroke-miterlimit="10" d="M267.918,186.462
	c0,1.277,1.035,2.312,2.312,2.312l0,0c1.277,0,2.312-1.035,2.312-2.312v-3.75c0-1.277-1.035-2.312-2.312-2.312l0,0
	c-1.277,0-2.312,1.035-2.312,2.312V186.462z"/>
<path fill="#58595B" stroke="#58595B" stroke-width="2" stroke-miterlimit="10" d="M280.818,186.462
	c0,1.277,1.035,2.312,2.312,2.312l0,0c1.277,0,2.312-1.035,2.312-2.312v-3.75c0-1.277-1.035-2.312-2.312-2.312l0,0
	c-1.277,0-2.312,1.035-2.312,2.312V186.462z"/>
<path fill="#58595B" stroke="#58595B" stroke-width="2" stroke-miterlimit="10" d="M293.72,186.462c0,1.277,1.035,2.312,2.312,2.312
	l0,0c1.277,0,2.312-1.035,2.312-2.312v-3.75c0-1.277-1.035-2.312-2.312-2.312l0,0c-1.277,0-2.312,1.035-2.312,2.312V186.462z"/>
<path fill="#58595B" stroke="#58595B" stroke-width="2" stroke-miterlimit="10" d="M306.62,186.462c0,1.277,1.035,2.312,2.312,2.312
	l0,0c1.277,0,2.312-1.035,2.312-2.312v-3.75c0-1.277-1.035-2.312-2.312-2.312l0,0c-1.277,0-2.312,1.035-2.312,2.312V186.462z"/>
<path fill="#58595B" stroke="#58595B" stroke-width="2" stroke-miterlimit="10" d="M319.521,186.462
	c0,1.277,1.035,2.312,2.312,2.312l0,0c1.277,0,2.312-1.035,2.312-2.312v-3.75c0-1.277-1.035-2.312-2.312-2.312l0,0
	c-1.277,0-2.312,1.035-2.312,2.312V186.462z"/>
<path fill="#58595B" stroke="#58595B" stroke-width="2" stroke-miterlimit="10" d="M332.421,186.462
	c0,1.277,1.035,2.312,2.312,2.312l0,0c1.277,0,2.312-1.035,2.312-2.312v-3.75c0-1.277-1.035-2.312-2.312-2.312l0,0
	c-1.277,0-2.312,1.035-2.312,2.312V186.462z"/>
<path fill="#58595B" stroke="#58595B" stroke-width="2" stroke-miterlimit="10" d="M345.321,186.462
	c0,1.277,1.035,2.312,2.312,2.312l0,0c1.277,0,2.312-1.035,2.312-2.312v-3.75c0-1.277-1.035-2.312-2.312-2.312l0,0
	c-1.277,0-2.312,1.035-2.312,2.312V186.462z"/>
<path fill="#58595B" stroke="#58595B" stroke-width="2" stroke-miterlimit="10" d="M358.223,186.462
	c0,1.277,1.035,2.312,2.312,2.312l0,0c1.277,0,2.312-1.035,2.312-2.312v-3.75c0-1.277-1.035-2.312-2.312-2.312l0,0
	c-1.277,0-2.312,1.035-2.312,2.312V186.462z"/>
<path fill="#58595B" stroke="#58595B" stroke-width="2" stroke-miterlimit="10" d="M371.123,186.462
	c0,1.277,1.035,2.312,2.312,2.312l0,0c1.277,0,2.312-1.035,2.312-2.312v-3.75c0-1.277-1.035-2.312-2.312-2.312l0,0
	c-1.277,0-2.312,1.035-2.312,2.312V186.462z"/>
<path fill="#58595B" stroke="#58595B" stroke-width="2" stroke-miterlimit="10" d="M384.023,186.462
	c0,1.277,1.035,2.312,2.312,2.312l0,0c1.277,0,2.312-1.035,2.312-2.312v-3.75c0-1.277-1.035-2.312-2.312-2.312l0,0
	c-1.277,0-2.312,1.035-2.312,2.312V186.462z"/>
<path fill="#58595B" stroke="#58595B" stroke-width="2" stroke-miterlimit="10" d="M396.924,186.462
	c0,1.277,1.035,2.312,2.312,2.312l0,0c1.277,0,2.312-1.035,2.312-2.312v-3.75c0-1.277-1.035-2.312-2.312-2.312l0,0
	c-1.277,0-2.312,1.035-2.312,2.312V186.462z"/>
<path fill="#58595B" stroke="#58595B" stroke-width="2" stroke-miterlimit="10" d="M409.824,186.462
	c0,1.277,1.035,2.312,2.312,2.312l0,0c1.277,0,2.312-1.035,2.312-2.312v-3.75c0-1.277-1.035-2.312-2.312-2.312l0,0
	c-1.277,0-2.312,1.035-2.312,2.312V186.462z"/>
<path fill="#58595B" stroke="#58595B" stroke-width="2" stroke-miterlimit="10" d="M422.726,186.462
	c0,1.277,1.035,2.312,2.312,2.312l0,0c1.277,0,2.312-1.035,2.312-2.312v-3.75c0-1.277-1.035-2.312-2.312-2.312l0,0
	c-1.277,0-2.312,1.035-2.312,2.312V186.462z"/>
<path fill="#58595B" stroke="#58595B" stroke-width="2" stroke-miterlimit="10" d="M435.626,186.462
	c0,1.277,1.035,2.312,2.312,2.312l0,0c1.277,0,2.312-1.035,2.312-2.312v-3.75c0-1.277-1.035-2.312-2.312-2.312l0,0
	c-1.277,0-2.312,1.035-2.312,2.312V186.462z"/>
<path fill="#58595B" stroke="#58595B" stroke-width="2" stroke-miterlimit="10" d="M448.526,186.462
	c0,1.277,1.035,2.312,2.312,2.312l0,0c1.277,0,2.312-1.035,2.312-2.312v-3.75c0-1.277-1.035-2.312-2.312-2.312l0,0
	c-1.277,0-2.312,1.035-2.312,2.312V186.462z"/>
<path fill="#58595B" stroke="#58595B" stroke-width="2" stroke-miterlimit="10" d="M461.427,186.462
	c0,1.277,1.035,2.312,2.312,2.312l0,0c1.277,0,2.312-1.035,2.312-2.312v-3.75c0-1.277-1.035-2.312-2.312-2.312l0,0
	c-1.277,0-2.312,1.035-2.312,2.312V186.462z"/>
<path fill="#58595B" stroke="#58595B" stroke-width="2" stroke-miterlimit="10" d="M474.328,186.462
	c0,1.277,1.035,2.312,2.312,2.312l0,0c1.277,0,2.312-1.035,2.312-2.312v-3.75c0-1.277-1.035-2.312-2.312-2.312l0,0
	c-1.277,0-2.312,1.035-2.312,2.312V186.462z"/>
<path fill="#58595B" stroke="#58595B" stroke-width="2" stroke-miterlimit="10" d="M487.228,186.462
	c0,1.277,1.035,2.312,2.312,2.312l0,0c1.277,0,2.312-1.035,2.312-2.312v-3.75c0-1.277-1.035-2.312-2.312-2.312l0,0
	c-1.277,0-2.312,1.035-2.312,2.312V186.462z"/>
<path fill="#58595B" stroke="#58595B" stroke-width="2" stroke-miterlimit="10" d="M500.129,186.462
	c0,1.277,1.035,2.312,2.312,2.312l0,0c1.277,0,2.312-1.035,2.312-2.312v-3.75c0-1.277-1.035-2.312-2.312-2.312l0,0
	c-1.277,0-2.312,1.035-2.312,2.312V186.462z"/>
<path fill="#58595B" stroke="#58595B" stroke-width="2" stroke-miterlimit="10" d="M513.029,186.462
	c0,1.277,1.035,2.312,2.312,2.312l0,0c1.277,0,2.312-1.035,2.312-2.312v-3.75c0-1.277-1.035-2.312-2.312-2.312l0,0
	c-1.277,0-2.312,1.035-2.312,2.312V186.462z"/>
<path fill="#58595B" stroke="#58595B" stroke-width="2" stroke-miterlimit="10" d="M525.931,186.462
	c0,1.277,1.035,2.312,2.312,2.312l0,0c1.277,0,2.312-1.035,2.312-2.312v-3.75c0-1.277-1.035-2.312-2.312-2.312l0,0
	c-1.277,0-2.312,1.035-2.312,2.312V186.462z"/>
<path fill="#FFFFFF" stroke="#58595B" stroke-width="2" stroke-miterlimit="10" d="M550.603,197.236
	c0,0.872,0.707,1.578,1.578,1.578h8.922c0.871,0,1.578-0.706,1.578-1.578v-18.922c0-0.872-0.707-1.578-1.578-1.578h-8.922
	c-0.871,0-1.578,0.706-1.578,1.578V197.236z"/>
<path fill="#FFFFFF" stroke="#58595B" stroke-width="2" stroke-miterlimit="10" d="M570.603,197.236
	c0,0.872,0.707,1.578,1.578,1.578h8.922c0.871,0,1.578-0.706,1.578-1.578v-18.922c0-0.872-0.707-1.578-1.578-1.578h-8.922
	c-0.871,0-1.578,0.706-1.578,1.578V197.236z"/>
<path fill="#FFFFFF" stroke="#58595B" stroke-width="2" stroke-miterlimit="10" d="M72.308,159.358L36.974,10.525l38.125,0.25
	c7.5-0.125,12.125,7.25,12.125,7.25l94.083,112.542c11.394,12.416,29.718,18.628,36.876,21.291L72.308,159.358z"/>
<path fill="#58595B" stroke="#58595B" stroke-width="2" stroke-miterlimit="10" d="M574.329,187.462
	c0,1.277,1.035,2.312,2.312,2.312l0,0c1.277,0,2.312-1.035,2.312-2.312v-3.75c0-1.277-1.035-2.312-2.312-2.312l0,0
	c-1.277,0-2.312,1.035-2.312,2.312V187.462z"/>
<path fill="#58595B" stroke="#58595B" stroke-width="2" stroke-miterlimit="10" d="M554.329,187.462
	c0,1.277,1.035,2.312,2.312,2.312l0,0c1.277,0,2.312-1.035,2.312-2.312v-3.75c0-1.277-1.035-2.312-2.312-2.312l0,0
	c-1.277,0-2.312,1.035-2.312,2.312V187.462z"/>
<path fill="none" stroke="#595A5C" stroke-width="2" stroke-miterlimit="10" d="M628.146,220.395c0,0-1.916-2.584-7.25-2.584h-9.75
	c-5.332,0-8.133,3.378-8.133,3.378"/>
<path fill="#FFFFFF" stroke="#595A5C" stroke-width="2" stroke-miterlimit="10" d="M610.901,217.233c0,0-166.573-26-203.906-34
	c0,0-8.666-0.667-12.333-5c0,0-43.259-48.84-45.457-51.208c0,0-1.625-2.75-5.5-2.75h-5.75l26.678,50.935
	c0,0,10.322,14.315,20.572,17.565c0,0,115.548,43.456,122.458,48.209c0,0,24.334,13.751,42.667,5.585L610.901,217.233"/>
<path fill="#FFFFFF" stroke="#595A5C" stroke-width="2" stroke-miterlimit="10" d="M469.33,207.15l-56.5-2.25l-3.25,6.5
	c0,0,8.25,2,23.75,1.25c0,0,19.5-0.5,30.25-2.75S469.33,207.15,469.33,207.15z"/>
<polyline fill="none" stroke="#595A5C" stroke-width="2" stroke-miterlimit="10" points="412.593,205.375 402.955,204.9 
	402.663,209.712 409.88,210.8 "/>
<path fill="#FFFFFF" stroke="#595A5C" stroke-width="2" stroke-miterlimit="10" d="M503.244,220.316l-56.5-2.25l-3.25,6.5
	c0,0,8.25,2,23.75,1.25c0,0,19.5-0.5,30.25-2.75S503.244,220.316,503.244,220.316z"/>
<polyline fill="none" stroke="#595A5C" stroke-width="2" stroke-miterlimit="10" points="446.415,218.724 436.83,219.4 
	436.577,223.399 443.494,223.837 "/>
<path fill="#FFFFFF" stroke="#595A5C" stroke-width="2" stroke-miterlimit="10" d="M527.829,235.316l-56.499-2.25l-3.25,6.5
	c0,0,8.249,2,23.749,1.25c0,0,19.5-0.5,30.25-2.75S527.829,235.316,527.829,235.316z"/>
<polyline fill="none" stroke="#595A5C" stroke-width="2" stroke-miterlimit="10" points="470.997,233.733 461.162,234.4 
	461.162,238.399 468.08,238.962 "/>
<g>
	<path fill="#FFFFFF" stroke="#58595B" stroke-width="2" stroke-miterlimit="10" d="M571.329,228.733c5.5-2.833,23.5-6.5,23.5-6.5
		c8.834-2,36-1.834,36-1.834c16.167,0.5,23.834,4.667,23.834,4.667l-1.32,53.354c-48.309,8.182-85.73-0.45-85.73-0.45l-1.783-46.403
		L571.329,228.733z"/>
	<polygon fill="#FFFFFF" stroke="#58595B" stroke-width="2" stroke-miterlimit="10" points="566.33,240.275 547.83,246.525 
		547.83,264.534 566.33,269.775 	"/>
	<polygon fill="#FFFFFF" stroke="#58595B" stroke-width="2" stroke-miterlimit="10" points="548.205,260.65 534.455,255.025 
		548.205,248.275 	"/>
</g>
</svg>
