<?xml version="1.0" encoding="utf-8"?>
<!-- Generator: Adobe Illustrator 16.0.0, SVG Export Plug-In . SVG Version: 6.00 Build 0)  -->
<!DOCTYPE svg PUBLIC "-//W3C//DTD SVG 1.1//EN" "http://www.w3.org/Graphics/SVG/1.1/DTD/svg11.dtd">
<svg version="1.1" id="Layer_1" xmlns="http://www.w3.org/2000/svg" xmlns:xlink="http://www.w3.org/1999/xlink" x="0px" y="0px"
	 width="1000px" height="500px" viewBox="0 0 1000 500" enable-background="new 0 0 1000 500" xml:space="preserve">
<circle fill="#FFFFFF" stroke="#F1F2F2" stroke-width="2" stroke-miterlimit="10" cx="811.502" cy="473.695" r="11.602"/>
<circle fill="#FFFFFF" cx="497.475" cy="464.946" r="18.773"/>
<g>
	<path fill="#FFFFFF" d="M898.737,371.131c-1.321-1.664-4.294-5.105-9.7-10.086L898.737,371.131z"/>
	<path fill="#FFFFFF" d="M916.992,380.925l-17.383-8.636c0,0-0.06-0.086-0.161-0.227l-7.421-0.69l-8.416-10.833l5.366,0.45
		c-2.064-1.899-4.464-4.01-7.285-6.347c0,0-22.358-17.155-74.665-19.449l-7.188-10.571h-1.875l0.25,10.25l-419.562-2.125
		l-117.543,0.944l-4.167-6.652h-2.333l0.083,6.584l-19.54-0.126l-145.875,7.5c0,0-36.955,4.01-48.125,6.875l-4.5,1.25l0.035,15.886
		c0,0,95.865,31.702,176.795,46.307c0,0,80.918,15.954,120.057,17.839l166.694,6.279l37.834,0.199l126.2-2.035l154.918-0.537
		c0,0,48.951-2.104,59.427-4.416c0,0,29.383-4.906,40.898-11.592c0,0,13.524-5.333,13.238-15.795
		C932.75,401.257,934.387,389.56,916.992,380.925z M266.827,368.289c0,1.405-1.139,2.544-2.543,2.544
		c-1.405,0-2.544-1.139-2.544-2.544v-4.125c0-1.405,1.139-2.544,2.544-2.544c1.404,0,2.543,1.139,2.543,2.544V368.289z
		 M281.018,368.289c0,1.405-1.139,2.544-2.543,2.544c-1.405,0-2.544-1.139-2.544-2.544v-4.125c0-1.405,1.139-2.544,2.544-2.544
		c1.404,0,2.543,1.139,2.543,2.544V368.289z M295.208,368.289c0,1.405-1.139,2.544-2.543,2.544c-1.405,0-2.544-1.139-2.544-2.544
		v-4.125c0-1.405,1.139-2.544,2.544-2.544c1.404,0,2.543,1.139,2.543,2.544V368.289z M309.4,368.289
		c0,1.405-1.139,2.544-2.544,2.544s-2.544-1.139-2.544-2.544v-4.125c0-1.405,1.139-2.544,2.544-2.544s2.544,1.139,2.544,2.544
		V368.289z M323.591,368.289c0,1.405-1.139,2.544-2.544,2.544s-2.544-1.139-2.544-2.544v-4.125c0-1.405,1.139-2.544,2.544-2.544
		s2.544,1.139,2.544,2.544V368.289z M337.781,368.289c0,1.405-1.139,2.544-2.544,2.544s-2.544-1.139-2.544-2.544v-4.125
		c0-1.405,1.139-2.544,2.544-2.544s2.544,1.139,2.544,2.544V368.289z M351.972,368.289c0,1.405-1.139,2.544-2.544,2.544
		s-2.544-1.139-2.544-2.544v-4.125c0-1.405,1.139-2.544,2.544-2.544s2.544,1.139,2.544,2.544V368.289z M366.162,368.289
		c0,1.405-1.139,2.544-2.544,2.544s-2.544-1.139-2.544-2.544v-4.125c0-1.405,1.139-2.544,2.544-2.544s2.544,1.139,2.544,2.544
		V368.289z M380.354,368.289c0,1.405-1.139,2.544-2.544,2.544s-2.544-1.139-2.544-2.544v-4.125c0-1.405,1.139-2.544,2.544-2.544
		s2.544,1.139,2.544,2.544V368.289z M452.424,368.289c0,1.405-1.139,2.544-2.544,2.544s-2.544-1.139-2.544-2.544v-4.125
		c0-1.405,1.139-2.544,2.544-2.544s2.544,1.139,2.544,2.544V368.289z M466.614,368.289c0,1.405-1.139,2.544-2.544,2.544
		s-2.544-1.139-2.544-2.544v-4.125c0-1.405,1.139-2.544,2.544-2.544s2.544,1.139,2.544,2.544V368.289z M480.805,368.289
		c0,1.405-1.139,2.544-2.544,2.544s-2.544-1.139-2.544-2.544v-4.125c0-1.405,1.139-2.544,2.544-2.544s2.544,1.139,2.544,2.544
		V368.289z M494.995,368.289c0,1.405-1.139,2.544-2.544,2.544s-2.544-1.139-2.544-2.544v-4.125c0-1.405,1.139-2.544,2.544-2.544
		s2.544,1.139,2.544,2.544V368.289z M509.187,368.289c0,1.405-1.139,2.544-2.544,2.544s-2.544-1.139-2.544-2.544v-4.125
		c0-1.405,1.139-2.544,2.544-2.544s2.544,1.139,2.544,2.544V368.289z M523.377,368.289c0,1.405-1.139,2.544-2.544,2.544
		s-2.544-1.139-2.544-2.544v-4.125c0-1.405,1.139-2.544,2.544-2.544s2.544,1.139,2.544,2.544V368.289z M537.568,368.289
		c0,1.405-1.139,2.544-2.544,2.544s-2.544-1.139-2.544-2.544v-4.125c0-1.405,1.139-2.544,2.544-2.544s2.544,1.139,2.544,2.544
		V368.289z M551.759,368.289c0,1.405-1.139,2.544-2.544,2.544s-2.544-1.139-2.544-2.544v-4.125c0-1.405,1.139-2.544,2.544-2.544
		s2.544,1.139,2.544,2.544V368.289z M568.807,368.289c0,1.405-1.139,2.544-2.544,2.544s-2.544-1.139-2.544-2.544v-4.125
		c0-1.405,1.139-2.544,2.544-2.544s2.544,1.139,2.544,2.544V368.289z M590.807,368.289c0,1.405-1.139,2.544-2.544,2.544
		s-2.544-1.139-2.544-2.544v-4.125c0-1.405,1.139-2.544,2.544-2.544s2.544,1.139,2.544,2.544V368.289z M611.708,368.289
		c0,1.405-1.139,2.544-2.544,2.544s-2.544-1.139-2.544-2.544v-4.125c0-1.405,1.139-2.544,2.544-2.544s2.544,1.139,2.544,2.544
		V368.289z M625.948,368.289c0,1.405-1.139,2.544-2.543,2.544c-1.405,0-2.544-1.139-2.544-2.544v-4.125
		c0-1.405,1.139-2.544,2.544-2.544c1.404,0,2.543,1.139,2.543,2.544V368.289z M640.19,368.289c0,1.405-1.139,2.544-2.544,2.544
		c-1.404,0-2.543-1.139-2.543-2.544v-4.125c0-1.405,1.139-2.544,2.543-2.544c1.405,0,2.544,1.139,2.544,2.544V368.289z
		 M654.431,368.289c0,1.405-1.139,2.544-2.544,2.544s-2.544-1.139-2.544-2.544v-4.125c0-1.405,1.139-2.544,2.544-2.544
		s2.544,1.139,2.544,2.544V368.289z M668.673,368.289c0,1.405-1.139,2.544-2.544,2.544s-2.544-1.139-2.544-2.544v-4.125
		c0-1.405,1.139-2.544,2.544-2.544s2.544,1.139,2.544,2.544V368.289z M682.912,368.289c0,1.405-1.139,2.544-2.544,2.544
		c-1.404,0-2.543-1.139-2.543-2.544v-4.125c0-1.405,1.139-2.544,2.543-2.544c1.405,0,2.544,1.139,2.544,2.544V368.289z
		 M697.154,368.289c0,1.405-1.139,2.544-2.544,2.544s-2.544-1.139-2.544-2.544v-4.125c0-1.405,1.139-2.544,2.544-2.544
		s2.544,1.139,2.544,2.544V368.289z M711.396,368.289c0,1.405-1.139,2.544-2.544,2.544s-2.544-1.139-2.544-2.544v-4.125
		c0-1.405,1.139-2.544,2.544-2.544s2.544,1.139,2.544,2.544V368.289z M725.636,368.289c0,1.405-1.139,2.544-2.543,2.544
		c-1.405,0-2.544-1.139-2.544-2.544v-4.125c0-1.405,1.139-2.544,2.544-2.544c1.404,0,2.543,1.139,2.543,2.544V368.289z
		 M739.878,368.289c0,1.405-1.139,2.544-2.544,2.544c-1.404,0-2.543-1.139-2.543-2.544v-4.125c0-1.405,1.139-2.544,2.543-2.544
		c1.405,0,2.544,1.139,2.544,2.544V368.289z M754.118,368.289c0,1.405-1.139,2.544-2.544,2.544s-2.544-1.139-2.544-2.544v-4.125
		c0-1.405,1.139-2.544,2.544-2.544s2.544,1.139,2.544,2.544V368.289z M768.36,368.289c0,1.405-1.139,2.544-2.544,2.544
		s-2.544-1.139-2.544-2.544v-4.125c0-1.405,1.139-2.544,2.544-2.544s2.544,1.139,2.544,2.544V368.289z M782.6,368.289
		c0,1.405-1.139,2.544-2.544,2.544c-1.404,0-2.543-1.139-2.543-2.544v-4.125c0-1.405,1.139-2.544,2.543-2.544
		c1.405,0,2.544,1.139,2.544,2.544V368.289z M869.277,372.372h-9.5v-9.521l2.104-2.312h7.396V372.372z M881.027,372.372h-8.416
		v-11.833h7.584l7.75,10.75C885.445,372.206,881.027,372.372,881.027,372.372z"/>
</g>
<path fill="#FFFFFF" stroke="#58595B" stroke-width="2" stroke-miterlimit="10" d="M396.138,368.102
	c0,1.277,1.035,2.312,2.312,2.312l0,0c1.277,0,2.312-1.035,2.312-2.312v-3.75c0-1.277-1.035-2.312-2.312-2.312l0,0
	c-1.277,0-2.312,1.035-2.312,2.312V368.102z"/>
<path fill="#FFFFFF" stroke="#E6E7E8" stroke-width="2" stroke-miterlimit="10" d="M404.764,368.289
	c0,1.405,1.139,2.544,2.544,2.544l0,0c1.405,0,2.544-1.139,2.544-2.544v-4.125c0-1.405-1.139-2.544-2.544-2.544l0,0
	c-1.405,0-2.544,1.139-2.544,2.544V368.289z"/>
<path fill="#FFFFFF" stroke="#E6E7E8" stroke-width="2" stroke-miterlimit="10" d="M418.955,368.289
	c0,1.405,1.139,2.544,2.544,2.544l0,0c1.405,0,2.544-1.139,2.544-2.544v-4.125c0-1.405-1.139-2.544-2.544-2.544l0,0
	c-1.405,0-2.544,1.139-2.544,2.544V368.289z"/>
<path fill="#FFFFFF" stroke="#E6E7E8" stroke-width="2" stroke-miterlimit="10" d="M433.146,368.289
	c0,1.405,1.139,2.544,2.544,2.544l0,0c1.405,0,2.544-1.139,2.544-2.544v-4.125c0-1.405-1.139-2.544-2.544-2.544l0,0
	c-1.405,0-2.544,1.139-2.544,2.544V368.289z"/>
<path fill="#FFFFFF" d="M84.422,341.997L49.088,193.164l38.125,0.25c7.5-0.125,12.125,7.25,12.125,7.25l94.083,112.542
	c11.394,12.416,29.718,18.628,36.876,21.291L84.422,341.997z"/>
<path fill="#FFFFFF" d="M623.016,398.872c0,0-166.573-26-203.906-34c0,0-8.666-0.667-12.333-5c0,0-43.259-48.84-45.457-51.208
	c0,0-1.625-2.75-5.5-2.75h-5.75l26.678,50.935c0,0,10.322,14.315,20.572,17.565c0,0,115.548,43.456,122.458,48.209
	c0,0,24.334,13.751,42.667,5.585L623.016,398.872"/>
<g>
	<path fill="#FFFFFF" stroke="#FFFFFF" stroke-miterlimit="10" d="M583.443,410.372c5.5-2.833,23.5-6.5,23.5-6.5
		c8.834-2,36-1.834,36-1.834c16.167,0.5,23.834,4.667,23.834,4.667l-1.32,53.354c-48.309,8.182-85.73-0.45-85.73-0.45l-1.783-46.403
		L583.443,410.372z"/>
	<polygon fill="#FFFFFF" stroke="#FFFFFF" stroke-miterlimit="10" points="578.444,421.914 559.944,428.164 559.944,446.173 
		578.444,451.414 	"/>
	<polygon fill="#FFFFFF" stroke="#FFFFFF" stroke-miterlimit="10" points="560.319,442.289 546.569,436.664 560.319,429.914 	"/>
</g>
</svg>
