<?xml version="1.0" encoding="utf-8"?>
<!-- Generator: Adobe Illustrator 16.0.0, SVG Export Plug-In . SVG Version: 6.00 Build 0)  -->
<!DOCTYPE svg PUBLIC "-//W3C//DTD SVG 1.1//EN" "http://www.w3.org/Graphics/SVG/1.1/DTD/svg11.dtd">
<svg version="1.1" id="Layer_1" xmlns="http://www.w3.org/2000/svg" xmlns:xlink="http://www.w3.org/1999/xlink" x="0px" y="0px"
	 width="3000px" height="1000px" viewBox="0 0 3000 1000" enable-background="new 0 0 3000 1000" xml:space="preserve">
<rect x="-115" y="683.764" fill="#F1F2F2" stroke="#F1F2F2" stroke-width="1.5328" stroke-miterlimit="10" stroke-dasharray="147.1503,73.5752" width="3115" height="341.236"/>
<g>
	<g>
		<path fill-rule="evenodd" clip-rule="evenodd" fill="#F1F2F2" stroke="#F1F2F2" stroke-miterlimit="10" d="M2439.014,557.078
			v-2.705H2337.86V433.444h-4.768v3.176h-23.427v-3.176h-4.76v120.929h-287.868l-4.302,0.037v-32.373h-28.016v50.467h-12.547v21.598
			h-12.488v39.082h-1.617v-27.89h-9.601v8.831h-1.593V577.83h-9.582V462.706h-89.979v144.585h-10.417v25.893h-2.715v-7.287
			l-26.271-0.193l-0.068,7.48h-1.587v-28.621h-13.191v-6.601h-10.462v6.601h-3.497v19.812h-4.266v-12.833h-6.719v-94.9h-2.457
			v-5.668h-6.125v-8.476h-35.089v8.476h-6.126v5.668h-2.448v116.543h-2.646l-7.15-8.57l-12.66-99.058V417.316l-12.774-9.37
			l-6.468-87.208l-6.467,87.208l-12.78,9.37v108.239l-12.663,99.058l-7.146,8.57h-5.596v-19.301H1619.5v-129.37h-5.504v-2.911
			h-39.514v2.911h-5.494v95.271h-11.672v53.4h-17.716v-26.652h-35.778V332.738h-8.243v-12.363h-72.84v12.363h-8.236v260.096h-10.974
			v31.867h-4.578v-67.028h-23.875v56.577h-4.087V489.242h-7.285v-4.158h-13.547v4.158h-7.536v-18.449h-1.033v18.449h-13.542v-2.424
			h-7.281v2.424h-9.451v119.099h-15.247v-9.79h0.684l-1.549-7.604l-1.503,7.479h-0.199v-14.493h0.672l-1.538-7.589l-1.335,6.621
			h-0.378v-6.123h-1.103v-10.312h0.619l-3.064-15.188l-3.064,15.188h0.616v10.312h-1.106v6.123h-0.377l-1.339-6.621l-1.534,7.589
			h0.67v14.298l-1.457-7.284l-1.537,7.604h0.442v2.824h-6.048l-3.765-3.413l-7.659,6.95v-6.361h0.681l-1.541-7.604l-1.509,7.479
			h-0.198v-14.493h0.686l-1.547-7.589l-1.334,6.621h-0.379v-6.123h-1.092v-10.312h0.616l-3.069-15.188l-3.062,15.188h0.611v10.312
			h-1.107v6.123h-0.365l-1.34-6.621l-1.535,7.589h0.669v14.298l-1.472-7.284l-1.533,7.604h0.435v18.886h0.051v2.586h-15.605v13.161
			h-8.651v-56.383h-3.611v-2.183h-11.892v2.183h-7.564v46.479h-10.084v-16.578h-38.919v18.758h-12.614v-15.537h-5.399v-40.703
			h-37.112v29.926h-6.294l2.245,108.822h1350.634v-24.138h-101.048l-0.105-114.043h101.153v-2.696h-7.422v-10.012H2439.014z
			 M2290.729,557.078h8.724v10.012h-8.724V557.078z M2279.895,557.078h8.721v10.012h-8.721V557.078z M2269.058,557.078h8.728v10.012
			h-8.728V557.078z M2258.227,557.078h8.725v10.012h-8.725V557.078z M2247.393,557.078h8.721v10.012h-8.721V557.078z
			 M2236.553,557.078h8.722v10.012h-8.722V557.078z M2225.715,557.078h8.723v10.012h-8.723V557.078z M2214.885,557.078h8.721v10.012
			h-8.721V557.078z M2204.052,557.078h8.723v10.012h-8.723V557.078z M2193.215,557.078h8.721v10.012h-8.721V557.078z
			 M2182.38,557.078h8.717v10.012h-8.717V557.078z M2171.547,557.078h8.721v10.012h-8.721V557.078z M2160.713,557.078h8.719v10.012
			h-8.719V557.078z M2149.869,557.078h8.732v10.012h-8.732V557.078z M2139.034,557.078h8.722v10.012h-8.722V557.078z
			 M2128.204,557.078h8.714v10.012h-8.714V557.078z M2106.53,557.078h8.724v10.012h-8.724V557.078z M2095.691,557.078h8.725v10.012
			h-8.725V557.078z M2112.804,569.786l2.05,2.069l-11.055,11.041l-11.061-11.041l2.055-2.069H2112.804z M2092.738,597.788
			l11.061-11.084l11.055,11.084l-11.055,11.054L2092.738,597.788z M2101.885,610.746l-9.795,9.809v-19.631L2101.885,610.746z
			 M2092.09,594.602V575.01l9.795,9.779L2092.09,594.602z M2084.867,557.078h8.713v10.012h-8.713V557.078z M2074.03,557.078h8.72
			v10.012h-8.72V557.078z M2041.516,557.078h8.725v10.012h-8.725V557.078z M2017.736,567.09h-4.799l-0.035-9.955l4.834-0.057V567.09
			z M2028.568,567.09h-8.718v-10.012h8.718V567.09z M2030.679,557.078h8.729v10.012h-8.729V557.078z M2053.369,590.092h-7.277v4.373
			h-9.366v-24.679h16.644V590.092z M2061.078,567.09h-8.726v-10.012h8.726V567.09z M2063.191,557.078h8.725v10.012h-8.725V557.078z
			 M2087.326,633.184H2077.3v-43.092h-13.288v-20.306h23.314V633.184z M2092.09,633.184v-6.311l6.294,6.311H2092.09z
			 M2100.509,622.918v8.57l-7.771-7.774l11.061-11.064l10.257,10.269H2100.509z M2115.515,620.555l-9.811-9.809l9.811-9.822V620.555
			z M2115.515,594.617l-9.811-9.828l9.811-9.779V594.617z M2117.361,557.078h8.729v10.012h-8.729V557.078z M2304.427,627.006
			l-27.87-0.098h-60.012l-96.113-0.188l-0.155-56.934h184.63L2304.427,627.006z M2304.906,567.09h-3.342v-10.012h3.342V567.09z
			 M2311.109,441.384h20.541l0.791,0.769l-11.061,11.065h-0.006l-11.053-11.065L2311.109,441.384z M2315.074,567.09l6.301-6.32
			h0.006l6.303,6.32H2315.074z M2330.381,569.786l2.061,2.069l-11.061,11.041h-0.006l-11.053-11.041l2.051-2.069H2330.381z
			 M2318.791,554.373l-8.469-8.46l11.053-11.054h0.006l11.061,11.054l-8.472,8.46H2318.791z M2321.375,531.045l-11.053-11.07
			l11.053-11.053h0.006l11.061,11.053l-11.061,11.07H2321.375z M2321.375,505.09l-11.053-11.035l11.053-11.076h0.006l11.061,11.076
			l-11.061,11.035H2321.375z M2321.375,479.162l-11.053-11.079l11.053-11.027h0.006l11.061,11.027l-11.061,11.079H2321.375z
			 M2309.666,445.343l9.809,9.795l-9.809,9.802V445.343z M2309.666,471.282l9.809,9.786l-9.809,9.823V471.282z M2309.666,497.193
			l9.809,9.814l-9.809,9.798V497.193z M2309.666,523.151l9.809,9.779l-9.809,9.821V523.151z M2309.666,549.057l5.314,5.316h-5.314
			V549.057z M2309.666,557.078h8.011l1.798,1.779l-8.214,8.232h-1.595V557.078z M2309.666,575.01l9.809,9.779l-9.809,9.812V575.01z
			 M2309.666,606.918v-5.994l5.971,5.994H2309.666z M2319.452,606.918l-9.13-9.13l11.053-11.084h0.006l11.061,11.084l-9.129,9.13
			H2319.452z M2333.093,606.918h-5.968l5.968-5.994V606.918z M2333.093,594.617l-9.805-9.828l9.805-9.779V594.617z M2333.093,567.09
			h-1.595l-8.21-8.232l1.8-1.779h8.005V567.09z M2333.093,554.373h-5.309l5.309-5.316V554.373z M2333.093,542.752l-9.805-9.821
			l9.805-9.779V542.752z M2333.093,516.818l-9.805-9.811l9.805-9.814V516.818z M2333.093,490.891l-9.805-9.823l9.805-9.786V490.891z
			 M2333.093,464.94l-9.805-9.802l9.805-9.795V464.94z M2342.793,567.09h-4.933v-10.012h4.933V567.09z M2353.631,567.09h-8.726
			v-10.012h8.726V567.09z M2364.467,567.09h-8.729v-10.012h8.729V567.09z M2375.305,567.09h-8.729v-10.012h8.729V567.09z
			 M2386.144,567.09h-8.732v-10.012h8.732V567.09z M2396.972,567.09h-8.72v-10.012h8.72V567.09z M2407.804,567.09h-8.718v-10.012
			h8.718V567.09z M2418.643,567.09h-8.717v-10.012h8.717V567.09z M2429.476,567.09h-8.722v-10.012h8.722V567.09z"/>
		
			<rect x="1809.241" y="507.166" fill-rule="evenodd" clip-rule="evenodd" fill="#F1F2F2" stroke="#F1F2F2" stroke-miterlimit="10" width="23.859" height="118.791"/>
		
			<rect x="1811.018" y="493.713" fill-rule="evenodd" clip-rule="evenodd" fill="#F1F2F2" stroke="#F1F2F2" stroke-miterlimit="10" width="20.561" height="13.453"/>
		<g>
			
				<rect x="1811.652" y="483.309" fill-rule="evenodd" clip-rule="evenodd" fill="#F1F2F2" stroke="#F1F2F2" stroke-miterlimit="10" width="19.29" height="11.169"/>
			<g>
				
					<rect x="1825.453" y="488.767" fill-rule="evenodd" clip-rule="evenodd" fill="#F1F2F2" stroke="#F1F2F2" stroke-width="0.25" stroke-miterlimit="10" width="3.936" height="4.442"/>
				
					<circle fill-rule="evenodd" clip-rule="evenodd" fill="#F1F2F2" stroke="#F1F2F2" stroke-miterlimit="10" cx="1827.42" cy="489.211" r="2.112"/>
			</g>
			<g>
				
					<rect x="1819.33" y="488.767" fill-rule="evenodd" clip-rule="evenodd" fill="#F1F2F2" stroke="#F1F2F2" stroke-width="0.25" stroke-miterlimit="10" width="3.934" height="4.442"/>
				
					<circle fill-rule="evenodd" clip-rule="evenodd" fill="#F1F2F2" stroke="#F1F2F2" stroke-miterlimit="10" cx="1821.296" cy="489.211" r="2.114"/>
			</g>
			<g>
				
					<rect x="1813.204" y="488.767" fill-rule="evenodd" clip-rule="evenodd" fill="#F1F2F2" stroke="#F1F2F2" stroke-width="0.25" stroke-miterlimit="10" width="3.937" height="4.442"/>
				
					<circle fill-rule="evenodd" clip-rule="evenodd" fill="#F1F2F2" stroke="#F1F2F2" stroke-miterlimit="10" cx="1815.173" cy="489.211" r="2.112"/>
			</g>
		</g>
		
			<rect x="1837.42" y="355.122" fill-rule="evenodd" clip-rule="evenodd" fill="#F1F2F2" stroke="#F1F2F2" stroke-miterlimit="10" width="62.947" height="307.894"/>
		<path fill-rule="evenodd" clip-rule="evenodd" fill="#F1F2F2" stroke="#F1F2F2" stroke-miterlimit="10" d="M1900.361,356.647
			c0,0,2.351-78.794-9.424-163.974h-43.752c-11.773,85.18-9.422,163.974-9.422,163.974"/>
		<path fill-rule="evenodd" clip-rule="evenodd" fill="#F1F2F2" stroke="#F1F2F2" stroke-miterlimit="10" d="M1674.299,647.048
			c0,33.647,63.071,60.919,140.874,60.919s140.874-27.271,140.874-60.919c0-33.642-63.071-60.919-140.874-60.919
			S1674.299,613.406,1674.299,647.048z"/>
		<g>
			
				<rect x="2217.064" y="603.446" fill-rule="evenodd" clip-rule="evenodd" fill="#F1F2F2" stroke="#F1F2F2" stroke-miterlimit="10" width="33.41" height="113.364"/>
			
				<rect x="2221.491" y="597.735" fill-rule="evenodd" clip-rule="evenodd" fill="#F1F2F2" stroke="#F1F2F2" stroke-miterlimit="10" width="24.557" height="4.14"/>
			
				<rect x="2222.205" y="593.641" fill-rule="evenodd" clip-rule="evenodd" fill="#F1F2F2" stroke="#F1F2F2" stroke-miterlimit="10" width="23.129" height="3.428"/>
			
				<rect x="2224.346" y="578.698" fill-rule="evenodd" clip-rule="evenodd" fill="#F1F2F2" stroke="#F1F2F2" stroke-miterlimit="10" width="18.848" height="13.849"/>
			
				<rect x="2229.322" y="563.469" fill-rule="evenodd" clip-rule="evenodd" fill="#F1F2F2" stroke="#F1F2F2" stroke-miterlimit="10" width="8.895" height="12.688"/>
			
				<line fill-rule="evenodd" clip-rule="evenodd" fill="#F1F2F2" stroke="#F1F2F2" stroke-miterlimit="10" x1="2233.77" y1="519.992" x2="2233.77" y2="544.264"/>
			<path fill-rule="evenodd" clip-rule="evenodd" fill="#F1F2F2" stroke="#F1F2F2" stroke-miterlimit="10" d="M2224.93,534.233
				c2.854-0.429,4.568-2.712,4.568-2.712c1.355-2.357,3.641-2.642,3.641-2.642v-7.245c0,0-2.285,0.284-3.641,2.641
				c0,0-1.714,2.284-4.568,2.713V534.233z"/>
			<path fill-rule="evenodd" clip-rule="evenodd" fill="#F1F2F2" stroke="#F1F2F2" stroke-miterlimit="10" d="M2229.61,551.332
				c0-3.963,2.5-5.213,2.5-5.213c0-1.498,1.534-2.069,1.534-2.069h0.252c0,0,1.534,0.571,1.534,2.069c0,0,2.498,1.25,2.498,5.213
				H2229.61z"/>
			
				<line fill-rule="evenodd" clip-rule="evenodd" fill="#F1F2F2" stroke="#F1F2F2" stroke-miterlimit="10" x1="2251.569" y1="639.045" x2="2215.97" y2="639.045"/>
			
				<line fill-rule="evenodd" clip-rule="evenodd" fill="#F1F2F2" stroke="#F1F2F2" stroke-width="2" stroke-miterlimit="10" x1="2252.52" y1="630.668" x2="2215.018" y2="630.668"/>
			
				<line fill-rule="evenodd" clip-rule="evenodd" fill="#F1F2F2" stroke="#F1F2F2" stroke-width="2" stroke-miterlimit="10" x1="2251.854" y1="631.812" x2="2215.684" y2="631.812"/>
			
				<line fill-rule="evenodd" clip-rule="evenodd" fill="#F1F2F2" stroke="#F1F2F2" stroke-width="2" stroke-miterlimit="10" x1="2252.52" y1="607.062" x2="2215.018" y2="607.062"/>
			
				<line fill-rule="evenodd" clip-rule="evenodd" fill="#F1F2F2" stroke="#F1F2F2" stroke-width="2" stroke-miterlimit="10" x1="2251.854" y1="608.205" x2="2215.684" y2="608.205"/>
			
				<line fill-rule="evenodd" clip-rule="evenodd" fill="#F1F2F2" stroke="#F1F2F2" stroke-width="2" stroke-miterlimit="10" x1="2252.52" y1="602.113" x2="2215.018" y2="602.113"/>
			
				<line fill-rule="evenodd" clip-rule="evenodd" fill="#F1F2F2" stroke="#F1F2F2" stroke-width="2" stroke-miterlimit="10" x1="2251.854" y1="603.255" x2="2215.684" y2="603.255"/>
			
				<line fill-rule="evenodd" clip-rule="evenodd" fill="#F1F2F2" stroke="#F1F2F2" stroke-width="2" stroke-miterlimit="10" x1="2246.572" y1="597.543" x2="2220.967" y2="597.543"/>
			
				<line fill-rule="evenodd" clip-rule="evenodd" fill="#F1F2F2" stroke="#F1F2F2" stroke-width="2" stroke-miterlimit="10" x1="2246" y1="593.117" x2="2221.539" y2="593.117"/>
			
				<line fill-rule="evenodd" clip-rule="evenodd" fill="#F1F2F2" stroke="#F1F2F2" stroke-width="2" stroke-miterlimit="10" x1="2244.239" y1="578.127" x2="2223.3" y2="578.127"/>
			<g>
				<path fill-rule="evenodd" clip-rule="evenodd" fill="#F1F2F2" stroke="#F1F2F2" stroke-miterlimit="10" d="M2217.23,598.686
					c0,0.605,0.488,1.096,1.095,1.096l0,0c0.603,0,1.095-0.49,1.095-1.096l0,0c0-0.605-0.492-1.096-1.095-1.096l0,0
					C2217.719,597.59,2217.23,598.08,2217.23,598.686L2217.23,598.686z"/>
				
					<line fill-rule="evenodd" clip-rule="evenodd" fill="#F1F2F2" stroke="#F1F2F2" stroke-width="2" stroke-miterlimit="10" x1="2219.801" y1="601.111" x2="2216.849" y2="601.111"/>
				
					<line fill-rule="evenodd" clip-rule="evenodd" fill="#F1F2F2" stroke="#F1F2F2" stroke-miterlimit="10" x1="2219.254" y1="600.302" x2="2217.397" y2="600.302"/>
			</g>
			<g>
				<path fill-rule="evenodd" clip-rule="evenodd" fill="#F1F2F2" stroke="#F1F2F2" stroke-miterlimit="10" d="M2247.346,598.686
					c0,0.605,0.49,1.096,1.095,1.096l0,0c0.604,0,1.093-0.49,1.093-1.096l0,0c0-0.605-0.488-1.096-1.093-1.096l0,0
					C2247.836,597.59,2247.346,598.08,2247.346,598.686L2247.346,598.686z"/>
				
					<line fill-rule="evenodd" clip-rule="evenodd" fill="#F1F2F2" stroke="#F1F2F2" stroke-width="2" stroke-miterlimit="10" x1="2249.915" y1="601.111" x2="2246.964" y2="601.111"/>
				
					<line fill-rule="evenodd" clip-rule="evenodd" fill="#F1F2F2" stroke="#F1F2F2" stroke-miterlimit="10" x1="2249.367" y1="600.302" x2="2247.51" y2="600.302"/>
			</g>
			<g>
				<path fill-rule="evenodd" clip-rule="evenodd" fill="#F1F2F2" stroke="#F1F2F2" stroke-miterlimit="10" d="M2222.656,591.001
					c0,0.302,0.244,0.547,0.547,0.547l0,0c0.303,0,0.547-0.245,0.547-0.547l0,0c0-0.302-0.244-0.548-0.547-0.548l0,0
					C2222.9,590.453,2222.656,590.699,2222.656,591.001L2222.656,591.001z"/>
				
					<line fill-rule="evenodd" clip-rule="evenodd" fill="#F1F2F2" stroke="#F1F2F2" stroke-width="2" stroke-miterlimit="10" x1="2223.943" y1="592.215" x2="2222.465" y2="592.215"/>
				
					<line fill-rule="evenodd" clip-rule="evenodd" fill="#F1F2F2" stroke="#F1F2F2" stroke-miterlimit="10" x1="2223.668" y1="591.809" x2="2222.739" y2="591.809"/>
			</g>
			<g>
				<path fill-rule="evenodd" clip-rule="evenodd" fill="#F1F2F2" stroke="#F1F2F2" stroke-miterlimit="10" d="M2243.8,591.102
					c0,0.302,0.244,0.547,0.546,0.547l0,0c0.303,0,0.547-0.245,0.547-0.547l0,0c0-0.303-0.244-0.547-0.547-0.547l0,0
					C2244.044,590.555,2243.8,590.799,2243.8,591.102L2243.8,591.102z"/>
				
					<line fill-rule="evenodd" clip-rule="evenodd" fill="#F1F2F2" stroke="#F1F2F2" stroke-width="2" stroke-miterlimit="10" x1="2245.084" y1="592.314" x2="2243.607" y2="592.314"/>
				
					<line fill-rule="evenodd" clip-rule="evenodd" fill="#F1F2F2" stroke="#F1F2F2" stroke-miterlimit="10" x1="2244.811" y1="591.91" x2="2243.883" y2="591.91"/>
			</g>
			<g>
				
					<line fill-rule="evenodd" clip-rule="evenodd" fill="#F1F2F2" stroke="#F1F2F2" stroke-miterlimit="10" x1="2232.965" y1="552.902" x2="2232.965" y2="561.184"/>
				
					<line fill-rule="evenodd" clip-rule="evenodd" fill="#F1F2F2" stroke="#F1F2F2" stroke-miterlimit="10" x1="2229.75" y1="552.902" x2="2229.75" y2="561.184"/>
				
					<line fill-rule="evenodd" clip-rule="evenodd" fill="#F1F2F2" stroke="#F1F2F2" stroke-miterlimit="10" x1="2231.359" y1="552.902" x2="2231.359" y2="561.184"/>
				
					<line fill-rule="evenodd" clip-rule="evenodd" fill="#F1F2F2" stroke="#F1F2F2" stroke-miterlimit="10" x1="2234.572" y1="552.902" x2="2234.572" y2="561.184"/>
				
					<line fill-rule="evenodd" clip-rule="evenodd" fill="#F1F2F2" stroke="#F1F2F2" stroke-miterlimit="10" x1="2237.788" y1="552.902" x2="2237.788" y2="561.184"/>
				
					<line fill-rule="evenodd" clip-rule="evenodd" fill="#F1F2F2" stroke="#F1F2F2" stroke-miterlimit="10" x1="2236.182" y1="552.902" x2="2236.182" y2="561.184"/>
			</g>
			
				<line fill-rule="evenodd" clip-rule="evenodd" fill="#F1F2F2" stroke="#F1F2F2" stroke-miterlimit="10" x1="2238.23" y1="552.617" x2="2229.307" y2="552.617"/>
			
				<line fill-rule="evenodd" clip-rule="evenodd" fill="#F1F2F2" stroke="#F1F2F2" stroke-width="2" stroke-miterlimit="10" x1="2238.885" y1="551.807" x2="2228.652" y2="551.807"/>
			
				<line fill-rule="evenodd" clip-rule="evenodd" fill="#F1F2F2" stroke="#F1F2F2" stroke-miterlimit="10" x1="2239.73" y1="563.469" x2="2239.73" y2="576.156"/>
			
				<line fill-rule="evenodd" clip-rule="evenodd" fill="#F1F2F2" stroke="#F1F2F2" stroke-miterlimit="10" x1="2228.309" y1="563.469" x2="2228.309" y2="576.156"/>
			
				<rect x="2226.077" y="561.184" fill-rule="evenodd" clip-rule="evenodd" fill="#F1F2F2" stroke="#F1F2F2" stroke-miterlimit="10" width="15.385" height="1.677"/>
			
				<rect x="2226.986" y="562.766" fill-rule="evenodd" clip-rule="evenodd" fill="#F1F2F2" stroke="#F1F2F2" stroke-miterlimit="10" width="13.564" height="1.107"/>
			
				<rect x="2225.559" y="576.156" fill-rule="evenodd" clip-rule="evenodd" fill="#F1F2F2" stroke="#F1F2F2" stroke-miterlimit="10" width="16.42" height="1.477"/>
		</g>
		<polyline fill-rule="evenodd" clip-rule="evenodd" fill="#F1F2F2" stroke="#F1F2F2" stroke-miterlimit="10" points="
			2186.174,627.736 2233.534,618.854 2237.043,618.854 2284.403,627.736 		"/>
		<path fill="#F1F2F2" stroke="#F1F2F2" stroke-miterlimit="10" d="M2844.724,554.307V433.378h-4.76v3.176h-23.427v-3.176h-4.766
			v120.928h-101.153v2.705h7.422v10.011h-7.422v2.698h101.153l-0.105,114.043l33.708-0.287l-0.169-56.537l-0.481-57.219h172.31
			l3.887-2.698h-8.206v-10.011h8.712v9.659l2.116-1.468v-8.191h8.728v2.136l0.176-0.121c0.113-1.575,0.236-3.148,0.364-4.72
			H2844.724z M2728.877,567.022h-8.721v-10.011h8.721V567.022z M2739.705,567.022h-8.716v-10.011h8.716V567.022z M2750.544,567.022
			h-8.718v-10.011h8.718V567.022z M2761.379,567.022h-8.719v-10.011h8.719V567.022z M2772.219,567.022h-8.73v-10.011h8.73V567.022z
			 M2783.055,567.022h-8.728v-10.011h8.728V567.022z M2793.893,567.022h-8.728v-10.011h8.728V567.022z M2804.725,567.022h-8.726
			v-10.011h8.726V567.022z M2811.771,567.022h-4.934v-10.011h4.934V567.022z M2817.982,441.318h20.538l0.789,0.769l-11.053,11.065
			h-0.006l-11.06-11.065L2817.982,441.318z M2821.946,567.022l6.305-6.318h0.006l6.302,6.318H2821.946z M2837.257,569.721
			l2.053,2.069l-11.053,11.04h-0.006l-11.06-11.04l2.058-2.069H2837.257z M2825.66,554.307l-8.469-8.461l11.06-11.053h0.006
			l11.053,11.053l-8.471,8.461H2825.66z M2828.251,530.979l-11.06-11.069l11.06-11.054h0.006l11.053,11.054l-11.053,11.069H2828.251
			z M2828.251,505.023l-11.06-11.034l11.06-11.078h0.006l11.053,11.078l-11.053,11.034H2828.251z M2828.251,479.097l-11.06-11.079
			l11.06-11.027h0.006l11.053,11.027l-11.053,11.079H2828.251z M2816.537,445.277l9.807,9.795l-9.807,9.802V445.277z
			 M2816.537,471.217l9.807,9.785l-9.807,9.823V471.217z M2816.537,497.127l9.807,9.813l-9.807,9.812V497.127z M2816.537,523.086
			l9.807,9.779l-9.807,9.822V523.086z M2816.537,548.989l5.309,5.317h-5.309V548.989z M2816.537,557.012h8.005l1.802,1.779
			l-8.212,8.231h-1.595V557.012z M2816.537,574.943l9.807,9.779l-9.807,9.829V574.943z M2816.537,606.854v-5.996l5.968,5.996
			H2816.537z M2826.317,606.854l-9.126-9.131l11.06-11.084h0.006l11.053,11.084l-9.132,9.131H2826.317z M2839.964,606.854h-5.97
			l5.97-5.996V606.854z M2839.964,594.535l-9.808-9.812l9.808-9.779V594.535z M2839.964,567.022h-1.593l-8.215-8.231l1.799-1.779
			h8.009V567.022z M2839.964,554.307h-5.312l5.312-5.317V554.307z M2839.964,542.688l-9.808-9.822l9.808-9.779V542.688z
			 M2839.964,516.74l-9.808-9.8l9.808-9.813V516.74z M2839.964,490.825l-9.808-9.823l9.808-9.785V490.825z M2839.964,464.874
			l-9.808-9.802l9.808-9.795V464.874z M2848.065,567.022h-3.342v-10.011h3.342V567.022z M2858.902,567.022h-8.723v-10.011h8.723
			V567.022z M2869.737,567.022h-8.723v-10.011h8.723V567.022z M2880.574,567.022h-8.729v-10.011h8.729V567.022z M2891.404,567.022
			h-8.725v-10.011h8.725V567.022z M2902.239,567.022h-8.723v-10.011h8.723V567.022z M2913.08,567.022h-8.725v-10.011h8.725V567.022z
			 M2923.917,567.022h-8.725v-10.011h8.725V567.022z M2934.745,567.022h-8.721v-10.011h8.721V567.022z M2945.58,567.022h-8.725
			v-10.011h8.725V567.022z M2956.417,567.022h-8.721v-10.011h8.721V567.022z M2967.252,567.022h-8.719v-10.011h8.719V567.022z
			 M2978.084,567.022h-8.721v-10.011h8.721V567.022z M2988.917,567.022h-8.717v-10.011h8.717V567.022z M2999.761,567.022h-8.732
			v-10.011h8.732V567.022z M3010.596,567.022h-8.722v-10.011h8.722V567.022z"/>
		<path fill-rule="evenodd" clip-rule="evenodd" fill="#F1F2F2" stroke="#F1F2F2" stroke-miterlimit="10" d="M2777.545,684.4"/>
		<g>
			<path fill-rule="evenodd" clip-rule="evenodd" fill="#F1F2F2" stroke="#F1F2F2" stroke-miterlimit="10" d="M1994.701,553.725
				h-86.714v15.412h86.927L1994.701,553.725z M1918.861,566.441h-8.725V556.43h8.725V566.441z M1929.696,566.441h-8.729V556.43
				h8.729V566.441z M1940.535,566.441h-8.729V556.43h8.729V566.441z M1951.373,566.441h-8.732V556.43h8.732V566.441z
				 M1962.201,566.441h-8.721V556.43h8.721V566.441z M1973.033,566.441h-8.717V556.43h8.717V566.441z M1983.872,566.441h-8.718
				V556.43h8.718V566.441z M1985.984,556.43h8.721v10.012h-8.721"/>
			<polyline fill-rule="evenodd" clip-rule="evenodd" fill="#F1F2F2" stroke="#F1F2F2" stroke-miterlimit="10" points="
				1994.595,569.137 2004.105,569.137 2004.105,566.441 1996.685,566.441 1996.685,556.43 2004.105,556.43 2004.105,553.725 
				1994.701,553.725 			"/>
		</g>
		<g>
			<path fill-rule="evenodd" clip-rule="evenodd" fill="#F1F2F2" stroke="#F1F2F2" stroke-miterlimit="10" d="M2525.727,554.252
				h-86.713v15.412h86.926L2525.727,554.252z M2449.887,566.969h-8.725v-10.012h8.725V566.969z M2460.721,566.969h-8.729v-10.012
				h8.729V566.969z M2471.56,566.969h-8.728v-10.012h8.728V566.969z M2482.398,566.969h-8.731v-10.012h8.731V566.969z
				 M2493.227,566.969h-8.721v-10.012h8.721V566.969z M2504.06,566.969h-8.717v-10.012h8.717V566.969z M2514.896,566.969h-8.717
				v-10.012h8.717V566.969z M2517.01,556.957h8.72v10.012h-8.72"/>
			<polyline fill-rule="evenodd" clip-rule="evenodd" fill="#F1F2F2" stroke="#F1F2F2" stroke-miterlimit="10" points="
				2525.619,569.664 2535.131,569.664 2535.131,566.969 2527.709,566.969 2527.709,556.957 2535.131,556.957 2535.131,554.252 
				2525.727,554.252 			"/>
		</g>
		<g>
			<path fill-rule="evenodd" clip-rule="evenodd" fill="#F1F2F2" stroke="#F1F2F2" stroke-miterlimit="10" d="M2621.844,554.252
				h-86.713v15.412h86.927L2621.844,554.252z M2546.005,566.969h-8.727v-10.012h8.727V566.969z M2556.84,566.969h-8.729v-10.012
				h8.729V566.969z M2567.679,566.969h-8.729v-10.012h8.729V566.969z M2578.517,566.969h-8.732v-10.012h8.732V566.969z
				 M2589.345,566.969h-8.72v-10.012h8.72V566.969z M2600.177,566.969h-8.717v-10.012h8.717V566.969z M2611.016,566.969h-8.717
				v-10.012h8.717V566.969z M2613.127,556.957h8.722v10.012h-8.722"/>
			<polyline fill-rule="evenodd" clip-rule="evenodd" fill="#F1F2F2" stroke="#F1F2F2" stroke-miterlimit="10" points="
				2621.738,569.664 2631.25,569.664 2631.25,566.969 2623.828,566.969 2623.828,556.957 2631.25,556.957 2631.25,554.252 
				2621.844,554.252 			"/>
		</g>
		<g>
			<path fill-rule="evenodd" clip-rule="evenodd" fill="#F1F2F2" stroke="#F1F2F2" stroke-miterlimit="10" d="M2717.963,554.252
				h-86.713v15.412h86.927L2717.963,554.252z M2642.123,566.969h-8.726v-10.012h8.726V566.969z M2652.957,566.969h-8.728v-10.012
				h8.728V566.969z M2663.796,566.969h-8.728v-10.012h8.728V566.969z M2674.634,566.969h-8.73v-10.012h8.73V566.969z
				 M2685.462,566.969h-8.719v-10.012h8.719V566.969z M2696.296,566.969h-8.717v-10.012h8.717V566.969z M2707.133,566.969h-8.716
				v-10.012h8.716V566.969z M2709.245,556.957h8.721v10.012h-8.721"/>
			<polyline fill-rule="evenodd" clip-rule="evenodd" fill="#F1F2F2" stroke="#F1F2F2" stroke-miterlimit="10" points="
				2717.855,569.664 2727.367,569.664 2727.367,566.969 2719.947,566.969 2719.947,556.957 2727.367,556.957 2727.367,554.252 
				2717.963,554.252 			"/>
		</g>
		<path fill-rule="evenodd" clip-rule="evenodd" fill="none" stroke="#F1F2F2" stroke-width="4" stroke-miterlimit="10" d="
			M2337.004,440.55c0,0,190.999,242.334,476.927,0"/>
		<path fill-rule="evenodd" clip-rule="evenodd" fill="none" stroke="#F1F2F2" stroke-width="4" stroke-miterlimit="10" d="
			M2841.769,437.983c0,0,87.035,111.171,230.891,110.58"/>
		<path fill-rule="evenodd" clip-rule="evenodd" fill="none" stroke="#F1F2F2" stroke-width="4" stroke-miterlimit="10" d="
			M2307.627,439.042c0,0-67.377,115.275-211.232,114.683"/>
	</g>
	<path fill="#F1F2F2" d="M1342.894,759.542H-37.559V396.703c0,0,12-6.667,20.667-14.667c0,0,52.667-27.333,84.667-19.333
		c0,0,47.333,1.333,64-4.667c0,0,91.333-23.774,102-31.22c0,0,13.333-9.446,28.667-6.113c0,0,30.667-5.334,42-10.667
		c0,0,34-12.667,51.333-6.667c0,0,42-20,64.667-19.333c0,0,16.667-8,22.667-5.333c0,0,38.667-21.334,62.667-10
		c0,0,12.667-11.333,23.334-10c0,0,35.333,10,41.333,16c0,0,24-2.666,38.667,6c0,0,14.666,9.334,17.333,8l13.86,4.307
		c18.327,0.747,45.349,24.959,45.349,24.959c8.602,9.105,35.2,25.274,35.2,25.274c15.491,2.5,24.451,16.164,24.451,16.164
		c7.209,10.828,83.543,66.326,83.543,66.326c13.323,11.674,57.871,27.726,57.871,27.726c32.711,4.243,71.751,48.929,71.751,48.929
		c5.145,10.613,13.879,21.203,13.879,21.203s184.097,148.338,369.455,159.38c0,0,436.092,28.571,471.092,28.571c0,0,52,14,56,48
		H1342.894z"/>
	<g>
		<path fill="#E6E7E8" stroke="#E6E7E8" stroke-width="0.5" stroke-miterlimit="10" d="M86.141,495.23
			c0,0,109.825-10.925,119.6-12.075c0,0-27.025,77.05-32.2,108.101c0,0-13.8,79.924-7.475,124.773c0,0,6.325,78.2,14.95,87.975
			H98.791c0,0,13.225-61.524,12.65-129.375c0,0,0-62.099-7.475-94.873C103.966,579.756,91.315,507.881,86.141,495.23z"/>
		<path fill="#E6E7E8" stroke="#E6E7E8" stroke-width="0.5" stroke-miterlimit="10" d="M140,480.662v9.19V480.662z"/>
		<polygon fill="#E6E7E8" stroke="#E6E7E8" stroke-width="0.5" stroke-miterlimit="10" points="140,480.662 199.993,480.662 
			199.993,483.775 140,489.853 		"/>
		<polygon fill="#E6E7E8" stroke="#E6E7E8" stroke-width="0.5" stroke-miterlimit="10" points="134.826,464.945 142.876,479.703 
			198.076,479.703 204.593,464.945 		"/>
		<polygon fill="#E6E7E8" stroke="#E6E7E8" stroke-width="0.5" stroke-miterlimit="10" points="129.076,456.896 132.526,464.945 
			207.276,464.945 214.368,449.611 		"/>
		
			<line fill="#E6E7E8" stroke="#E6E7E8" stroke-width="0.5" stroke-miterlimit="10" x1="135.976" y1="436.003" x2="135.976" y2="455.554"/>
		
			<line fill="#E6E7E8" stroke="#E6E7E8" stroke-width="0.5" stroke-miterlimit="10" x1="201.526" y1="434.661" x2="201.526" y2="454.211"/>
		
			<line fill="#E6E7E8" stroke="#E6E7E8" stroke-width="0.5" stroke-miterlimit="10" x1="154.759" y1="436.003" x2="154.759" y2="455.554"/>
		
			<line fill="#E6E7E8" stroke="#E6E7E8" stroke-width="0.5" stroke-miterlimit="10" x1="151.118" y1="437.729" x2="151.118" y2="457.278"/>
		
			<line fill="#E6E7E8" stroke="#E6E7E8" stroke-width="0.5" stroke-miterlimit="10" x1="187.151" y1="433.703" x2="187.151" y2="453.253"/>
		
			<line fill="#E6E7E8" stroke="#E6E7E8" stroke-width="0.5" stroke-miterlimit="10" x1="180.443" y1="436.003" x2="180.443" y2="455.554"/>
		
			<line fill="#E6E7E8" stroke="#E6E7E8" stroke-width="0.5" stroke-miterlimit="10" x1="197.309" y1="437.729" x2="197.309" y2="457.278"/>
		
			<line fill="#E6E7E8" stroke="#E6E7E8" stroke-width="0.5" stroke-miterlimit="10" x1="169.709" y1="433.703" x2="169.709" y2="453.253"/>
		
			<line fill="#E6E7E8" stroke="#E6E7E8" stroke-width="0.5" stroke-miterlimit="10" x1="165.876" y1="439.836" x2="165.876" y2="459.386"/>
		
			<line fill="#E6E7E8" stroke="#E6E7E8" stroke-width="0.5" stroke-miterlimit="10" x1="145.94" y1="434.661" x2="145.94" y2="454.211"/>
	</g>
</g>
<g>
	<g>
		
			<line fill="none" stroke="#A7A9AC" stroke-miterlimit="10" stroke-dasharray="96.625,48.3125" x1="13.312" y1="890.858" x2="3032.844" y2="890.858"/>
	</g>
</g>
</svg>
