<?xml version="1.0" encoding="utf-8"?>
<!-- Generator: Adobe Illustrator 16.0.0, SVG Export Plug-In . SVG Version: 6.00 Build 0)  -->
<!DOCTYPE svg PUBLIC "-//W3C//DTD SVG 1.1//EN" "http://www.w3.org/Graphics/SVG/1.1/DTD/svg11.dtd">
<svg version="1.1" id="Layer_1" xmlns="http://www.w3.org/2000/svg" xmlns:xlink="http://www.w3.org/1999/xlink" x="0px" y="0px"
	 width="992px" height="311px" viewBox="0 0 992 311" enable-background="new 0 0 992 311" xml:space="preserve">
<g>
	<path fill-rule="evenodd" clip-rule="evenodd" fill="#F1F2F2" stroke="#F1F2F2" stroke-miterlimit="10" d="M695.8,211.104v-1.421
		h-53.105v-63.486h-2.504v1.667h-12.299v-1.667h-2.499v63.486H474.262l-2.258,0.02v-16.995h-14.708v26.495h-6.587v11.338h-6.557
		v20.519h-0.85v-14.643h-5.04v4.637h-0.836v-19.055h-5.03v-60.44h-47.239v75.907h-5.47v13.594h-1.425v-3.826l-13.792-0.102
		l-0.036,3.928h-0.833v-15.026h-6.926v-3.466h-5.491v3.466h-1.837v10.401h-2.239v-6.737h-3.527v-49.823h-1.29v-2.976h-3.216v-4.45
		h-18.421v4.45h-3.217v2.976h-1.285v61.186h-1.389l-3.754-4.499l-6.647-52.006v-56.825l-6.706-4.92l-3.396-45.784l-3.396,45.784
		l-6.709,4.92v56.825l-6.648,52.006l-3.752,4.499h-2.938v-10.133h-5.264v-67.92h-2.89v-1.528h-20.744v1.528h-2.885v50.018h-6.128
		v28.035h-9.301v-13.992h-18.783V93.325h-4.327v-6.491h-38.241v6.491h-4.324v136.55h-5.762v16.73h-2.403v-35.19h-12.534v29.703
		h-2.146v-65.629h-3.824v-2.183h-7.112v2.183h-3.957v-9.686h-0.542v9.686h-7.109v-1.272h-3.822v1.272h-4.962v62.526h-8.005v-5.14
		h0.359l-0.814-3.992l-0.788,3.927h-0.104v-7.608h0.353l-0.808-3.984l-0.701,3.476h-0.197v-3.214h-0.58v-5.414h0.325l-1.608-7.974
		l-1.609,7.974h0.323v5.414h-0.58v3.214h-0.198l-0.702-3.476l-0.807,3.984h0.353v7.506l-0.765-3.824l-0.808,3.992h0.232v1.483
		h-3.176l-1.977-1.793l-4.021,3.649v-3.34h0.357l-0.809-3.992l-0.793,3.927h-0.104v-7.608h0.36l-0.812-3.984l-0.7,3.476h-0.2v-3.214
		h-0.572v-5.414h0.323l-1.61-7.974l-1.608,7.974h0.321v5.414h-0.581v3.214h-0.192l-0.703-3.476l-0.806,3.984h0.352v7.506
		l-0.773-3.824l-0.804,3.992h0.228v9.916h0.026v1.357h-8.192v6.909H55.62v-29.601h-1.896v-1.146H47.48v1.146H43.51v24.4h-5.294
		v-8.703H17.782v9.848H11.16v-8.157H8.326v-21.369h-19.484v15.712h-3.304l1.178,57.131H695.8v-12.673h-53.05l-0.056-59.872H695.8
		v-1.415h-3.896v-5.256H695.8z M617.95,211.104h4.579v5.256h-4.579V211.104z M612.262,211.104h4.578v5.256h-4.578V211.104z
		 M606.572,211.104h4.582v5.256h-4.582V211.104z M600.886,211.104h4.581v5.256h-4.581V211.104z M595.198,211.104h4.578v5.256h-4.578
		V211.104z M589.508,211.104h4.579v5.256h-4.579V211.104z M583.817,211.104h4.579v5.256h-4.579V211.104z M578.132,211.104h4.578
		v5.256h-4.578V211.104z M572.445,211.104h4.579v5.256h-4.579V211.104z M566.755,211.104h4.578v5.256h-4.578V211.104z
		 M561.067,211.104h4.575v5.256h-4.575V211.104z M555.379,211.104h4.579v5.256h-4.579V211.104z M549.691,211.104h4.577v5.256h-4.577
		V211.104z M543.999,211.104h4.584v5.256h-4.584V211.104z M538.31,211.104h4.579v5.256h-4.579V211.104z M532.625,211.104h4.574
		v5.256h-4.574V211.104z M521.245,211.104h4.58v5.256h-4.58V211.104z M515.556,211.104h4.58v5.256h-4.58V211.104z M524.539,217.774
		l1.076,1.087l-5.804,5.797l-5.807-5.797l1.079-1.087H524.539z M514.005,232.477l5.807-5.82l5.804,5.82l-5.804,5.803
		L514.005,232.477z M518.807,239.279l-5.143,5.149v-10.307L518.807,239.279z M513.664,230.803v-10.285l5.143,5.134L513.664,230.803z
		 M509.872,211.104h4.575v5.256h-4.575V211.104z M504.183,211.104h4.578v5.256h-4.578V211.104z M487.113,211.104h4.58v5.256h-4.58
		V211.104z M474.629,216.359h-2.52l-0.019-5.227l2.538-0.029V216.359z M480.315,216.359h-4.577v-5.256h4.577V216.359z
		 M481.423,211.104h4.584v5.256h-4.584V211.104z M493.336,228.436h-3.82v2.296h-4.918v-12.957h8.738V228.436z M497.383,216.359
		h-4.58v-5.256h4.58V216.359z M498.493,211.104h4.58v5.256h-4.58V211.104z M511.163,251.059h-5.264v-22.623h-6.976v-10.661h12.239
		V251.059z M513.664,251.059v-3.313l3.306,3.313H513.664z M518.085,245.669v4.5l-4.08-4.081l5.807-5.811l5.386,5.392H518.085z
		 M525.962,244.429l-5.149-5.149l5.149-5.157V244.429z M525.962,230.812l-5.149-5.16l5.149-5.134V230.812z M526.932,211.104h4.583
		v5.256h-4.583V211.104z M625.142,247.815l-14.632-0.052h-31.507l-50.459-0.1l-0.082-29.89h96.931L625.142,247.815z
		 M625.393,216.359h-1.754v-5.256h1.754V216.359z M628.649,150.363h10.784l0.415,0.404l-5.807,5.81h-0.003l-5.803-5.81
		L628.649,150.363z M630.731,216.359l3.308-3.318h0.003l3.31,3.318H630.731z M638.768,217.774l1.081,1.087l-5.807,5.797h-0.003
		l-5.803-5.797l1.077-1.087H638.768z M632.683,209.683l-4.446-4.44l5.803-5.804h0.003l5.807,5.804l-4.446,4.44H632.683z
		 M634.039,197.436l-5.803-5.812l5.803-5.803h0.003l5.807,5.803l-5.807,5.812H634.039z M634.039,183.81l-5.803-5.794l5.803-5.814
		h0.003l5.807,5.814l-5.807,5.794H634.039z M634.039,170.197l-5.803-5.816l5.803-5.789h0.003l5.807,5.789l-5.807,5.816H634.039z
		 M627.892,152.442l5.149,5.143l-5.149,5.146V152.442z M627.892,166.06l5.149,5.138l-5.149,5.157V166.06z M627.892,179.664
		l5.149,5.152l-5.149,5.144V179.664z M627.892,193.292l5.149,5.133l-5.149,5.157V193.292z M627.892,206.892l2.79,2.791h-2.79
		V206.892z M627.892,211.104h4.206l0.943,0.934l-4.312,4.322h-0.837V211.104z M627.892,220.518l5.149,5.134l-5.149,5.151V220.518z
		 M627.892,237.27v-3.147l3.135,3.147H627.892z M633.029,237.27l-4.793-4.793l5.803-5.82h0.003l5.807,5.82l-4.792,4.793H633.029z
		 M640.19,237.27h-3.133l3.133-3.147V237.27z M640.19,230.812l-5.147-5.16l5.147-5.134V230.812z M640.19,216.359h-0.837
		l-4.311-4.322l0.945-0.934h4.202V216.359z M640.19,209.683h-2.787l2.787-2.791V209.683z M640.19,203.582l-5.147-5.157l5.147-5.133
		V203.582z M640.19,189.967l-5.147-5.15l5.147-5.152V189.967z M640.19,176.354l-5.147-5.157l5.147-5.138V176.354z M640.19,162.73
		l-5.147-5.146l5.147-5.143V162.73z M645.283,216.359h-2.589v-5.256h2.589V216.359z M650.974,216.359h-4.582v-5.256h4.582V216.359z
		 M656.662,216.359h-4.583v-5.256h4.583V216.359z M662.353,216.359h-4.583v-5.256h4.583V216.359z M668.042,216.359h-4.583v-5.256
		h4.583V216.359z M673.727,216.359h-4.577v-5.256h4.577V216.359z M679.414,216.359h-4.577v-5.256h4.577V216.359z M685.104,216.359
		h-4.576v-5.256h4.576V216.359z M690.791,216.359h-4.578v-5.256h4.578V216.359z"/>
	
		<rect x="365.168" y="184.899" fill-rule="evenodd" clip-rule="evenodd" fill="#F1F2F2" stroke="#F1F2F2" stroke-miterlimit="10" width="12.526" height="62.365"/>
	
		<rect x="366.102" y="177.837" fill-rule="evenodd" clip-rule="evenodd" fill="#F1F2F2" stroke="#F1F2F2" stroke-miterlimit="10" width="10.794" height="7.062"/>
	<g>
		
			<rect x="366.435" y="172.374" fill-rule="evenodd" clip-rule="evenodd" fill="#F1F2F2" stroke="#F1F2F2" stroke-miterlimit="10" width="10.128" height="5.863"/>
		<g>
			
				<rect x="373.68" y="175.239" fill-rule="evenodd" clip-rule="evenodd" fill="#F1F2F2" stroke="#F1F2F2" stroke-width="0.25" stroke-miterlimit="10" width="2.066" height="2.333"/>
			
				<circle fill-rule="evenodd" clip-rule="evenodd" fill="#F1F2F2" stroke="#F1F2F2" stroke-miterlimit="10" cx="374.713" cy="175.473" r="1.109"/>
		</g>
		<g>
			
				<rect x="370.466" y="175.239" fill-rule="evenodd" clip-rule="evenodd" fill="#F1F2F2" stroke="#F1F2F2" stroke-width="0.25" stroke-miterlimit="10" width="2.064" height="2.333"/>
			
				<circle fill-rule="evenodd" clip-rule="evenodd" fill="#F1F2F2" stroke="#F1F2F2" stroke-miterlimit="10" cx="371.498" cy="175.473" r="1.11"/>
		</g>
		<g>
			
				<rect x="367.25" y="175.239" fill-rule="evenodd" clip-rule="evenodd" fill="#F1F2F2" stroke="#F1F2F2" stroke-width="0.25" stroke-miterlimit="10" width="2.066" height="2.333"/>
			
				<circle fill-rule="evenodd" clip-rule="evenodd" fill="#F1F2F2" stroke="#F1F2F2" stroke-miterlimit="10" cx="368.283" cy="175.473" r="1.109"/>
		</g>
	</g>
	
		<rect x="379.963" y="105.076" fill-rule="evenodd" clip-rule="evenodd" fill="#F1F2F2" stroke="#F1F2F2" stroke-miterlimit="10" width="33.047" height="161.645"/>
	<path fill-rule="evenodd" clip-rule="evenodd" fill="#F1F2F2" stroke="#F1F2F2" stroke-miterlimit="10" d="M413.007,105.877
		c0,0,1.234-41.366-4.947-86.086h-22.97c-6.182,44.72-4.946,86.086-4.946,86.086"/>
	
		<ellipse fill-rule="evenodd" clip-rule="evenodd" fill="#F1F2F2" stroke="#F1F2F2" stroke-miterlimit="10" cx="368.283" cy="258.337" rx="73.959" ry="31.982"/>
	<g>
		
			<rect x="599.276" y="225.446" fill-rule="evenodd" clip-rule="evenodd" fill="#F1F2F2" stroke="#F1F2F2" stroke-miterlimit="10" width="17.54" height="59.517"/>
		
			<rect x="601.6" y="222.447" fill-rule="evenodd" clip-rule="evenodd" fill="#F1F2F2" stroke="#F1F2F2" stroke-miterlimit="10" width="12.894" height="2.174"/>
		
			<rect x="601.975" y="220.299" fill-rule="evenodd" clip-rule="evenodd" fill="#F1F2F2" stroke="#F1F2F2" stroke-miterlimit="10" width="12.143" height="1.799"/>
		
			<rect x="603.099" y="212.454" fill-rule="evenodd" clip-rule="evenodd" fill="#F1F2F2" stroke="#F1F2F2" stroke-miterlimit="10" width="9.896" height="7.271"/>
		
			<rect x="605.712" y="204.458" fill-rule="evenodd" clip-rule="evenodd" fill="#F1F2F2" stroke="#F1F2F2" stroke-miterlimit="10" width="4.669" height="6.661"/>
		
			<line fill-rule="evenodd" clip-rule="evenodd" fill="#F1F2F2" stroke="#F1F2F2" stroke-miterlimit="10" x1="608.046" y1="181.633" x2="608.046" y2="194.376"/>
		<path fill-rule="evenodd" clip-rule="evenodd" fill="#F1F2F2" stroke="#F1F2F2" stroke-miterlimit="10" d="M603.405,189.11
			c1.498-0.226,2.398-1.425,2.398-1.425c0.712-1.237,1.911-1.387,1.911-1.387v-3.804c0,0-1.199,0.149-1.911,1.387
			c0,0-0.9,1.198-2.398,1.424V189.11z"/>
		<path fill-rule="evenodd" clip-rule="evenodd" fill="#F1F2F2" stroke="#F1F2F2" stroke-miterlimit="10" d="M605.863,198.087
			c0-2.081,1.312-2.737,1.312-2.737c0-0.786,0.805-1.086,0.805-1.086h0.133c0,0,0.806,0.3,0.806,1.086c0,0,1.311,0.656,1.311,2.737
			H605.863z"/>
		
			<line fill-rule="evenodd" clip-rule="evenodd" fill="#F1F2F2" stroke="#F1F2F2" stroke-miterlimit="10" x1="617.391" y1="244.136" x2="598.702" y2="244.136"/>
		
			<line fill-rule="evenodd" clip-rule="evenodd" fill="#F1F2F2" stroke="#F1F2F2" stroke-width="2" stroke-miterlimit="10" x1="617.89" y1="239.738" x2="598.201" y2="239.738"/>
		
			<line fill-rule="evenodd" clip-rule="evenodd" fill="#F1F2F2" stroke="#F1F2F2" stroke-width="2" stroke-miterlimit="10" x1="617.54" y1="240.339" x2="598.551" y2="240.339"/>
		
			<line fill-rule="evenodd" clip-rule="evenodd" fill="#F1F2F2" stroke="#F1F2F2" stroke-width="2" stroke-miterlimit="10" x1="617.89" y1="227.345" x2="598.201" y2="227.345"/>
		
			<line fill-rule="evenodd" clip-rule="evenodd" fill="#F1F2F2" stroke="#F1F2F2" stroke-width="2" stroke-miterlimit="10" x1="617.54" y1="227.945" x2="598.551" y2="227.945"/>
		
			<line fill-rule="evenodd" clip-rule="evenodd" fill="#F1F2F2" stroke="#F1F2F2" stroke-width="2" stroke-miterlimit="10" x1="617.89" y1="224.747" x2="598.201" y2="224.747"/>
		
			<line fill-rule="evenodd" clip-rule="evenodd" fill="#F1F2F2" stroke="#F1F2F2" stroke-width="2" stroke-miterlimit="10" x1="617.54" y1="225.346" x2="598.551" y2="225.346"/>
		
			<line fill-rule="evenodd" clip-rule="evenodd" fill="#F1F2F2" stroke="#F1F2F2" stroke-width="2" stroke-miterlimit="10" x1="614.768" y1="222.348" x2="601.325" y2="222.348"/>
		
			<line fill-rule="evenodd" clip-rule="evenodd" fill="#F1F2F2" stroke="#F1F2F2" stroke-width="2" stroke-miterlimit="10" x1="614.467" y1="220.023" x2="601.625" y2="220.023"/>
		
			<line fill-rule="evenodd" clip-rule="evenodd" fill="#F1F2F2" stroke="#F1F2F2" stroke-width="2" stroke-miterlimit="10" x1="613.543" y1="212.154" x2="602.549" y2="212.154"/>
		<g>
			<path fill-rule="evenodd" clip-rule="evenodd" fill="#F1F2F2" stroke="#F1F2F2" stroke-miterlimit="10" d="M599.363,222.947
				c0,0.317,0.256,0.575,0.575,0.575l0,0c0.315,0,0.574-0.258,0.574-0.575l0,0c0-0.318-0.259-0.575-0.574-0.575l0,0
				C599.619,222.372,599.363,222.629,599.363,222.947L599.363,222.947z"/>
			
				<line fill-rule="evenodd" clip-rule="evenodd" fill="#F1F2F2" stroke="#F1F2F2" stroke-width="2" stroke-miterlimit="10" x1="600.713" y1="224.221" x2="599.163" y2="224.221"/>
			
				<line fill-rule="evenodd" clip-rule="evenodd" fill="#F1F2F2" stroke="#F1F2F2" stroke-miterlimit="10" x1="600.426" y1="223.795" x2="599.45" y2="223.795"/>
		</g>
		<g>
			<path fill-rule="evenodd" clip-rule="evenodd" fill="#F1F2F2" stroke="#F1F2F2" stroke-miterlimit="10" d="M615.174,222.947
				c0,0.317,0.257,0.575,0.574,0.575l0,0c0.317,0,0.574-0.258,0.574-0.575l0,0c0-0.318-0.257-0.575-0.574-0.575l0,0
				C615.431,222.372,615.174,222.629,615.174,222.947L615.174,222.947z"/>
			
				<line fill-rule="evenodd" clip-rule="evenodd" fill="#F1F2F2" stroke="#F1F2F2" stroke-width="2" stroke-miterlimit="10" x1="616.523" y1="224.221" x2="614.973" y2="224.221"/>
			
				<line fill-rule="evenodd" clip-rule="evenodd" fill="#F1F2F2" stroke="#F1F2F2" stroke-miterlimit="10" x1="616.235" y1="223.795" x2="615.26" y2="223.795"/>
		</g>
		<g>
			<path fill-rule="evenodd" clip-rule="evenodd" fill="#F1F2F2" stroke="#F1F2F2" stroke-miterlimit="10" d="M602.212,218.912
				c0,0.159,0.128,0.287,0.287,0.287l0,0c0.159,0,0.287-0.128,0.287-0.287l0,0c0-0.158-0.128-0.287-0.287-0.287l0,0
				C602.34,218.625,602.212,218.754,602.212,218.912L602.212,218.912z"/>
			
				<line fill-rule="evenodd" clip-rule="evenodd" fill="#F1F2F2" stroke="#F1F2F2" stroke-width="2" stroke-miterlimit="10" x1="602.888" y1="219.55" x2="602.111" y2="219.55"/>
			
				<line fill-rule="evenodd" clip-rule="evenodd" fill="#F1F2F2" stroke="#F1F2F2" stroke-miterlimit="10" x1="602.743" y1="219.337" x2="602.256" y2="219.337"/>
		</g>
		<g>
			<path fill-rule="evenodd" clip-rule="evenodd" fill="#F1F2F2" stroke="#F1F2F2" stroke-miterlimit="10" d="M613.312,218.966
				c0,0.157,0.129,0.287,0.287,0.287l0,0c0.159,0,0.287-0.13,0.287-0.287l0,0c0-0.159-0.128-0.287-0.287-0.287l0,0
				C613.44,218.679,613.312,218.807,613.312,218.966L613.312,218.966z"/>
			
				<line fill-rule="evenodd" clip-rule="evenodd" fill="#F1F2F2" stroke="#F1F2F2" stroke-width="2" stroke-miterlimit="10" x1="613.986" y1="219.603" x2="613.211" y2="219.603"/>
			
				<line fill-rule="evenodd" clip-rule="evenodd" fill="#F1F2F2" stroke="#F1F2F2" stroke-miterlimit="10" x1="613.843" y1="219.39" x2="613.355" y2="219.39"/>
		</g>
		<g>
			
				<line fill-rule="evenodd" clip-rule="evenodd" fill="#F1F2F2" stroke="#F1F2F2" stroke-miterlimit="10" x1="607.624" y1="198.911" x2="607.624" y2="203.259"/>
			
				<line fill-rule="evenodd" clip-rule="evenodd" fill="#F1F2F2" stroke="#F1F2F2" stroke-miterlimit="10" x1="605.936" y1="198.911" x2="605.936" y2="203.259"/>
			
				<line fill-rule="evenodd" clip-rule="evenodd" fill="#F1F2F2" stroke="#F1F2F2" stroke-miterlimit="10" x1="606.781" y1="198.911" x2="606.781" y2="203.259"/>
			
				<line fill-rule="evenodd" clip-rule="evenodd" fill="#F1F2F2" stroke="#F1F2F2" stroke-miterlimit="10" x1="608.468" y1="198.911" x2="608.468" y2="203.259"/>
			
				<line fill-rule="evenodd" clip-rule="evenodd" fill="#F1F2F2" stroke="#F1F2F2" stroke-miterlimit="10" x1="610.155" y1="198.911" x2="610.155" y2="203.259"/>
			
				<line fill-rule="evenodd" clip-rule="evenodd" fill="#F1F2F2" stroke="#F1F2F2" stroke-miterlimit="10" x1="609.312" y1="198.911" x2="609.312" y2="203.259"/>
		</g>
		
			<line fill-rule="evenodd" clip-rule="evenodd" fill="#F1F2F2" stroke="#F1F2F2" stroke-miterlimit="10" x1="610.389" y1="198.761" x2="605.703" y2="198.761"/>
		
			<line fill-rule="evenodd" clip-rule="evenodd" fill="#F1F2F2" stroke="#F1F2F2" stroke-width="2" stroke-miterlimit="10" x1="610.731" y1="198.336" x2="605.359" y2="198.336"/>
		
			<line fill-rule="evenodd" clip-rule="evenodd" fill="#F1F2F2" stroke="#F1F2F2" stroke-miterlimit="10" x1="611.176" y1="204.458" x2="611.176" y2="211.119"/>
		
			<line fill-rule="evenodd" clip-rule="evenodd" fill="#F1F2F2" stroke="#F1F2F2" stroke-miterlimit="10" x1="605.18" y1="204.458" x2="605.18" y2="211.119"/>
		
			<rect x="604.007" y="203.259" fill-rule="evenodd" clip-rule="evenodd" fill="#F1F2F2" stroke="#F1F2F2" stroke-miterlimit="10" width="8.078" height="0.88"/>
		
			<rect x="604.485" y="204.089" fill-rule="evenodd" clip-rule="evenodd" fill="#F1F2F2" stroke="#F1F2F2" stroke-miterlimit="10" width="7.121" height="0.582"/>
		
			<rect x="603.735" y="211.119" fill-rule="evenodd" clip-rule="evenodd" fill="#F1F2F2" stroke="#F1F2F2" stroke-miterlimit="10" width="8.621" height="0.775"/>
	</g>
	<polyline fill-rule="evenodd" clip-rule="evenodd" fill="#F1F2F2" stroke="#F1F2F2" stroke-miterlimit="10" points="
		563.059,248.199 587.922,243.535 589.765,243.535 614.63,248.199 	"/>
	<path fill="#F1F2F2" stroke="#F1F2F2" stroke-miterlimit="10" d="M908.798,209.648v-63.487h-2.5v1.667h-12.299v-1.667h-2.502
		v63.487h-53.104v1.42h3.896v5.256h-3.896v1.416h53.104l-0.055,59.873l17.695-0.151l-0.088-29.682l-0.252-30.04h90.462l2.04-1.416
		h-4.309v-5.256h4.574v5.071l1.111-0.771v-4.301h4.582v1.122l0.092-0.063c0.06-0.828,0.125-1.653,0.192-2.479H908.798z
		 M847.978,216.324h-4.578v-5.256h4.578V216.324z M853.662,216.324h-4.575v-5.256h4.575V216.324z M859.354,216.324h-4.577v-5.256
		h4.577V216.324z M865.041,216.324h-4.577v-5.256h4.577V216.324z M870.732,216.324h-4.584v-5.256h4.584V216.324z M876.421,216.324
		h-4.582v-5.256h4.582V216.324z M882.111,216.324h-4.582v-5.256h4.582V216.324z M887.798,216.324h-4.582v-5.256h4.582V216.324z
		 M891.497,216.324h-2.59v-5.256h2.59V216.324z M894.758,150.329h10.783l0.414,0.403l-5.804,5.81h-0.002l-5.807-5.81
		L894.758,150.329z M896.84,216.324l3.31-3.318h0.002l3.31,3.318H896.84z M904.877,217.74l1.078,1.086l-5.804,5.797h-0.002
		l-5.807-5.797l1.08-1.086H904.877z M898.789,209.648l-4.446-4.442l5.807-5.803h0.002l5.804,5.803l-4.448,4.442H898.789z
		 M900.149,197.402l-5.807-5.812l5.807-5.804h0.002l5.804,5.804l-5.804,5.812H900.149z M900.149,183.774l-5.807-5.793l5.807-5.816
		h0.002l5.804,5.816l-5.804,5.793H900.149z M900.149,170.163l-5.807-5.816l5.807-5.79h0.002l5.804,5.79l-5.804,5.816H900.149z
		 M893.999,152.408l5.148,5.142l-5.148,5.146V152.408z M893.999,166.026l5.148,5.137l-5.148,5.157V166.026z M893.999,179.629
		l5.148,5.152l-5.148,5.15V179.629z M893.999,193.257l5.148,5.135l-5.148,5.156V193.257z M893.999,206.856l2.787,2.792h-2.787
		V206.856z M893.999,211.068h4.202l0.946,0.935l-4.312,4.321h-0.837V211.068z M893.999,220.482l5.148,5.134l-5.148,5.16V220.482z
		 M893.999,237.235v-3.148l3.134,3.148H893.999z M899.135,237.235l-4.792-4.794l5.807-5.819h0.002l5.804,5.819l-4.795,4.794H899.135
		z M906.298,237.235h-3.134l3.134-3.148V237.235z M906.298,230.769l-5.148-5.152l5.148-5.134V230.769z M906.298,216.324h-0.836
		l-4.312-4.321l0.944-0.935h4.204V216.324z M906.298,209.648h-2.789l2.789-2.792V209.648z M906.298,203.548l-5.148-5.156
		l5.148-5.135V203.548z M906.298,189.926l-5.148-5.145l5.148-5.152V189.926z M906.298,176.32l-5.148-5.157l5.148-5.137V176.32z
		 M906.298,162.696l-5.148-5.146l5.148-5.142V162.696z M910.551,216.324h-1.753v-5.256h1.753V216.324z M916.241,216.324h-4.58
		v-5.256h4.58V216.324z M921.929,216.324h-4.579v-5.256h4.579V216.324z M927.619,216.324h-4.583v-5.256h4.583V216.324z
		 M933.305,216.324h-4.581v-5.256h4.581V216.324z M938.993,216.324h-4.579v-5.256h4.579V216.324z M944.685,216.324h-4.581v-5.256
		h4.581V216.324z M950.373,216.324h-4.579v-5.256h4.579V216.324z M956.058,216.324h-4.577v-5.256h4.577V216.324z M961.747,216.324
		h-4.581v-5.256h4.581V216.324z M967.436,216.324h-4.577v-5.256h4.577V216.324z M973.125,216.324h-4.578v-5.256h4.578V216.324z
		 M978.812,216.324h-4.578v-5.256h4.578V216.324z M984.498,216.324h-4.575v-5.256h4.575V216.324z M990.191,216.324h-4.584v-5.256
		h4.584V216.324z M995.88,216.324h-4.579v-5.256h4.579V216.324z"/>
	<path fill-rule="evenodd" clip-rule="evenodd" fill="#F1F2F2" stroke="#F1F2F2" stroke-miterlimit="10" d="M873.528,277.947"/>
	<g>
		<path fill-rule="evenodd" clip-rule="evenodd" fill="#F1F2F2" stroke="#F1F2F2" stroke-miterlimit="10" d="M462.535,209.343
			H417.01v8.091h45.638L462.535,209.343z M422.72,216.019h-4.581v-5.256h4.581V216.019z M428.408,216.019h-4.583v-5.256h4.583
			V216.019z M434.099,216.019h-4.583v-5.256h4.583V216.019z M439.788,216.019h-4.585v-5.256h4.585V216.019z M445.473,216.019h-4.578
			v-5.256h4.578V216.019z M451.16,216.019h-4.577v-5.256h4.577V216.019z M456.851,216.019h-4.577v-5.256h4.577V216.019z
			 M457.959,210.763h4.578v5.256h-4.578"/>
		<polyline fill-rule="evenodd" clip-rule="evenodd" fill="#F1F2F2" stroke="#F1F2F2" stroke-miterlimit="10" points="
			462.48,217.434 467.473,217.434 467.473,216.019 463.577,216.019 463.577,210.763 467.473,210.763 467.473,209.343 
			462.535,209.343 		"/>
	</g>
	<g>
		<path fill-rule="evenodd" clip-rule="evenodd" fill="#F1F2F2" stroke="#F1F2F2" stroke-miterlimit="10" d="M741.323,209.619H695.8
			v8.092h45.636L741.323,209.619z M701.508,216.296h-4.58v-5.256h4.58V216.296z M707.195,216.296h-4.583v-5.256h4.583V216.296z
			 M712.887,216.296h-4.583v-5.256h4.583V216.296z M718.576,216.296h-4.584v-5.256h4.584V216.296z M724.261,216.296h-4.578v-5.256
			h4.578V216.296z M729.949,216.296h-4.577v-5.256h4.577V216.296z M735.638,216.296h-4.576v-5.256h4.576V216.296z M736.747,211.04
			h4.578v5.256h-4.578"/>
		<polyline fill-rule="evenodd" clip-rule="evenodd" fill="#F1F2F2" stroke="#F1F2F2" stroke-miterlimit="10" points="
			741.268,217.711 746.261,217.711 746.261,216.296 742.364,216.296 742.364,211.04 746.261,211.04 746.261,209.619 
			741.323,209.619 		"/>
	</g>
	<g>
		<path fill-rule="evenodd" clip-rule="evenodd" fill="#F1F2F2" stroke="#F1F2F2" stroke-miterlimit="10" d="M791.785,209.619
			h-45.524v8.092h45.637L791.785,209.619z M751.971,216.296h-4.582v-5.256h4.582V216.296z M757.658,216.296h-4.582v-5.256h4.582
			V216.296z M763.348,216.296h-4.582v-5.256h4.582V216.296z M769.039,216.296h-4.586v-5.256h4.586V216.296z M774.724,216.296h-4.578
			v-5.256h4.578V216.296z M780.41,216.296h-4.577v-5.256h4.577V216.296z M786.101,216.296h-4.576v-5.256h4.576V216.296z
			 M787.209,211.04h4.579v5.256h-4.579"/>
		<polyline fill-rule="evenodd" clip-rule="evenodd" fill="#F1F2F2" stroke="#F1F2F2" stroke-miterlimit="10" points="
			791.729,217.711 796.724,217.711 796.724,216.296 792.827,216.296 792.827,211.04 796.724,211.04 796.724,209.619 
			791.785,209.619 		"/>
	</g>
	<g>
		<path fill-rule="evenodd" clip-rule="evenodd" fill="#F1F2F2" stroke="#F1F2F2" stroke-miterlimit="10" d="M842.248,209.619
			h-45.524v8.092h45.637L842.248,209.619z M802.432,216.296h-4.581v-5.256h4.581V216.296z M808.12,216.296h-4.583v-5.256h4.583
			V216.296z M813.81,216.296h-4.581v-5.256h4.581V216.296z M819.501,216.296h-4.584v-5.256h4.584V216.296z M825.186,216.296h-4.577
			v-5.256h4.577V216.296z M830.872,216.296h-4.575v-5.256h4.575V216.296z M836.562,216.296h-4.576v-5.256h4.576V216.296z
			 M837.671,211.04h4.579v5.256h-4.579"/>
		<polyline fill-rule="evenodd" clip-rule="evenodd" fill="#F1F2F2" stroke="#F1F2F2" stroke-miterlimit="10" points="
			842.191,217.711 847.185,217.711 847.185,216.296 843.29,216.296 843.29,211.04 847.185,211.04 847.185,209.619 842.248,209.619 
					"/>
	</g>
	<path fill-rule="evenodd" clip-rule="evenodd" fill="none" stroke="#F1F2F2" stroke-width="4" stroke-miterlimit="10" d="
		M642.244,149.927c0,0,100.274,127.224,250.388,0"/>
	<path fill-rule="evenodd" clip-rule="evenodd" fill="none" stroke="#F1F2F2" stroke-width="4" stroke-miterlimit="10" d="
		M907.245,148.578c0,0,45.693,58.365,121.218,58.055"/>
	<path fill-rule="evenodd" clip-rule="evenodd" fill="none" stroke="#F1F2F2" stroke-width="4" stroke-miterlimit="10" d="
		M626.821,149.135c0,0-35.373,60.519-110.896,60.208"/>
</g>
</svg>
