<?xml version="1.0" encoding="utf-8"?>
<!-- Generator: Adobe Illustrator 16.0.0, SVG Export Plug-In . SVG Version: 6.00 Build 0)  -->
<!DOCTYPE svg PUBLIC "-//W3C//DTD SVG 1.1//EN" "http://www.w3.org/Graphics/SVG/1.1/DTD/svg11.dtd">
<svg version="1.1" id="Layer_1" xmlns="http://www.w3.org/2000/svg" xmlns:xlink="http://www.w3.org/1999/xlink" x="0px" y="0px"
	 width="992px" height="473px" viewBox="0 -162 992 473" enable-background="new 0 -162 992 473" xml:space="preserve">
<g>
	<path fill="#F1F2F2" stroke="#F1F2F2" stroke-width="1.5625" stroke-miterlimit="10" d="M892,171.631v-2.219h-82.977V70.215h-3.912
		v2.604h-19.219v-2.604h-3.904v99.197H545.847l-3.528,0.031v-26.556h-22.98v41.399h-10.292v17.715h-10.245v32.062h-1.33v-22.881
		h-7.874v7.245h-1.307v-29.773h-7.857V94.217H406.62v118.605h-8.547v21.242h-2.226v-5.979l-21.551-0.16l-0.056,6.139h-1.303v-23.479
		h-10.821v-5.416h-8.579v5.416h-2.871v16.252h-3.499v-10.529h-5.51v-77.848h-2.017v-4.65h-5.024v-6.952h-28.783v6.952h-5.026v4.65
		h-2.009v95.604h-2.17l-5.865-7.029l-10.386-81.26V56.986l-10.479-7.688l-5.307-71.538l-5.306,71.538l-10.482,7.688v88.789
		l-10.388,81.26l-5.862,7.029h-4.59v-15.832h-8.226V112.106h-4.516v-2.387h-32.413v2.387h-4.508v78.151h-9.575v43.807h-14.532
		v-21.863h-29.349v-224.6h-6.761v-10.141H58.334v10.141h-6.756v213.359h-9.003v26.142H38.82v-54.985H19.236v46.411h-3.354V115.983
		H9.908v-3.411H-1.204v3.411h-6.183V100.85h-0.848v15.134h-11.108v-1.987h-5.972v1.987h-7.753v97.698h-12.509v-8.033h0.562
		l-1.272-6.237l-1.231,6.138h-0.162V193.66h0.551l-1.262-6.226l-1.095,5.431h-0.31v-5.021H-50.7v-8.459h0.508l-2.513-12.46
		l-2.514,12.46h0.505v8.459h-0.907v5.021h-0.309l-1.098-5.431l-1.261,6.226h0.552v11.728l-1.195-5.976l-1.262,6.238h0.362v2.318
		h-4.962l-3.09-2.802l-6.283,5.7v-5.219h0.559l-1.266-6.237l-1.237,6.138h-0.163V193.66h0.562l-1.269-6.226l-1.094,5.431h-0.312
		v-5.021h-0.894v-8.459h0.504l-2.516-12.46l-2.512,12.46h0.501v8.459h-0.908v5.021h-0.299l-1.099-5.431l-1.26,6.226h0.549v11.728
		l-1.207-5.976l-1.256,6.238h0.356v15.494h0.04v2.119h-12.799v10.797h-7.098v-46.252h-2.962v-1.791H-121v1.791h-6.204v38.126h-8.271
		v-13.599h-31.928v15.386h-10.347v-12.745h-4.428v-33.388h-30.443v24.548h-5.163l1.84,89.268H892v-19.799h-82.891l-0.087-93.553H892
		v-2.209h-6.086v-8.213H892L892,171.631z M770.359,171.631h7.156v8.213h-7.156V171.631z M761.472,171.631h7.153v8.213h-7.153
		V171.631z M752.581,171.631h7.161v8.213h-7.161V171.631z M743.697,171.631h7.158v8.213h-7.158V171.631z M734.811,171.631h7.152
		v8.213h-7.152V171.631z M725.918,171.631h7.155v8.213h-7.155V171.631z M717.027,171.631h7.155v8.213h-7.155V171.631z
		 M708.144,171.631h7.153v8.213h-7.153V171.631z M699.258,171.631h7.155v8.213h-7.155V171.631z M690.367,171.631h7.152v8.213h-7.152
		V171.631z M681.48,171.631h7.146v8.213h-7.146V171.631z M672.592,171.631h7.154v8.213h-7.154V171.631z M663.705,171.631h7.15v8.213
		h-7.15V171.631z M654.812,171.631h7.161v8.213h-7.161V171.631z M645.921,171.631h7.155v8.213h-7.155V171.631z M637.039,171.631
		h7.147v8.213h-7.147V171.631z M619.258,171.631h7.156v8.213h-7.156V171.631z M610.368,171.631h7.157v8.213h-7.157V171.631z
		 M624.404,182.053l1.683,1.699l-9.069,9.058l-9.074-9.058l1.686-1.699H624.404z M607.945,205.026l9.074-9.093l9.068,9.093
		l-9.068,9.067L607.945,205.026z M615.447,215.656l-8.035,8.045v-16.105L615.447,215.656z M607.412,202.412V186.34l8.035,8.023
		L607.412,202.412z M601.487,171.631h7.148v8.213h-7.148V171.631z M592.598,171.631h7.154v8.213h-7.154V171.631z M565.927,171.631
		h7.157v8.213h-7.157V171.631z M546.42,179.844h-3.937l-0.03-8.168l3.966-0.045L546.42,179.844L546.42,179.844z M555.306,179.844
		h-7.152v-8.213h7.152V179.844z M557.035,171.631h7.163v8.213h-7.163V171.631z M575.65,198.713h-5.97v3.589h-7.685v-20.247h13.654
		V198.713z M581.973,179.844h-7.155v-8.213h7.155V179.844z M583.708,171.631h7.157v8.213h-7.157V171.631z M603.505,234.061h-8.225
		v-35.348h-10.901v-16.658h19.125L603.505,234.061L603.505,234.061z M607.412,234.061v-5.176l5.165,5.176H607.412z M614.32,225.639
		v7.031l-6.375-6.377l9.074-9.078l8.416,8.424H614.32z M626.628,223.703l-8.046-8.047l8.046-8.057V223.703z M626.628,202.426
		l-8.046-8.062l8.046-8.023V202.426z M628.143,171.631h7.162v8.213h-7.162V171.631z M781.596,228.991l-22.862-0.078h-49.229
		l-78.843-0.157l-0.128-46.703h151.454L781.596,228.991z M781.988,179.844h-2.74v-8.213h2.74V179.844z M787.077,76.723h16.849
		l0.648,0.633l-9.073,9.078h-0.004l-9.067-9.078L787.077,76.723z M790.33,179.844l5.168-5.186h0.006l5.17,5.186H790.33z
		 M802.887,182.053l1.689,1.699l-9.072,9.058h-0.006l-9.066-9.058l1.683-1.699H802.887z M793.379,169.412l-6.945-6.938l9.066-9.068
		h0.005l9.073,9.068l-6.945,6.938H793.379z M795.498,150.275l-9.066-9.081l9.066-9.068h0.006l9.072,9.068l-9.072,9.081H795.498z
		 M795.498,128.986l-9.066-9.055l9.066-9.084h0.006l9.072,9.084l-9.072,9.055H795.498z M795.498,107.715l-9.066-9.088l9.066-9.045
		h0.006l9.072,9.045l-9.072,9.088H795.498z M785.893,79.973l8.046,8.036l-8.046,8.039V79.973z M785.893,101.252l8.046,8.027
		l-8.046,8.058V101.252z M785.893,122.507l8.046,8.051l-8.046,8.037V122.507z M785.893,143.801l8.046,8.02l-8.046,8.059V143.801z
		 M785.893,165.051l4.359,4.361h-4.359V165.051z M785.893,171.631h6.572l1.474,1.461l-6.738,6.752h-1.308V171.631z M785.893,186.34
		l8.046,8.023l-8.046,8.049V186.34z M785.893,212.516V207.6l4.9,4.916H785.893z M793.922,212.516l-7.49-7.489l9.066-9.093h0.006
		l9.072,9.093l-7.488,7.489H793.922z M805.11,212.516h-4.897l4.897-4.916V212.516z M805.11,202.426l-8.043-8.062l8.043-8.023
		V202.426z M805.11,179.844h-1.309l-6.735-6.754l1.477-1.459h6.564v8.213H805.11z M805.11,169.412h-4.355l4.355-4.361V169.412z
		 M805.11,159.879l-8.043-8.059l8.043-8.02V159.879z M805.11,138.605l-8.043-8.048l8.043-8.05V138.605z M805.11,117.334
		l-8.043-8.057l8.043-8.029V117.334z M805.11,96.048l-8.043-8.04l8.043-8.037V96.048z M813.066,179.844h-4.044v-8.213h4.044V179.844
		z M821.959,179.844h-7.16v-8.213h7.16V179.844z M830.848,179.844h-7.162v-8.213h7.162V179.844z M839.739,179.844h-7.162v-8.213
		h7.162V179.844z M848.629,179.844h-7.161v-8.213h7.161V179.844z M857.51,179.844h-7.15v-8.213h7.15V179.844z M866.396,179.844
		h-7.151v-8.213h7.151V179.844z M875.286,179.844h-7.148v-8.213h7.148V179.844z M884.173,179.844h-7.153v-8.213h7.153V179.844z"/>
	
		<rect x="375.388" y="130.686" fill="#F1F2F2" stroke="#F1F2F2" stroke-width="1.5625" stroke-miterlimit="10" width="19.571" height="97.446"/>
	
		<rect x="376.848" y="119.651" fill="#F1F2F2" stroke="#F1F2F2" stroke-width="1.5625" stroke-miterlimit="10" width="16.865" height="11.034"/>
	<g>
		
			<rect x="377.367" y="111.116" fill="#F1F2F2" stroke="#F1F2F2" stroke-width="1.5625" stroke-miterlimit="10" width="15.825" height="9.159"/>
		<g>
			
				<rect x="388.688" y="115.593" fill="#F1F2F2" stroke="#F1F2F2" stroke-width="0.3906" stroke-miterlimit="10" width="3.228" height="3.646"/>
			<circle fill="#F1F2F2" stroke="#F1F2F2" stroke-width="1.5625" stroke-miterlimit="10" cx="390.301" cy="115.958" r="1.733"/>
		</g>
		<g>
			
				<rect x="383.665" y="115.593" fill="#F1F2F2" stroke="#F1F2F2" stroke-width="0.3906" stroke-miterlimit="10" width="3.226" height="3.646"/>
			<path fill="#F1F2F2" stroke="#F1F2F2" stroke-width="1.5625" stroke-miterlimit="10" d="M385.279,114.225
				c0.957,0,1.732,0.775,1.732,1.733s-0.775,1.734-1.732,1.734c-0.96,0-1.735-0.776-1.735-1.734S384.319,114.225,385.279,114.225z"
				/>
		</g>
		<g>
			
				<rect x="378.641" y="115.593" fill="#F1F2F2" stroke="#F1F2F2" stroke-width="0.3906" stroke-miterlimit="10" width="3.228" height="3.646"/>
			<circle fill="#F1F2F2" stroke="#F1F2F2" stroke-width="1.5625" stroke-miterlimit="10" cx="380.254" cy="115.958" r="1.733"/>
		</g>
	</g>
	
		<rect x="398.504" y="5.964" fill="#F1F2F2" stroke="#F1F2F2" stroke-width="1.5625" stroke-miterlimit="10" width="51.636" height="252.568"/>
	<path fill="#F1F2F2" stroke="#F1F2F2" stroke-width="1.5625" stroke-miterlimit="10" d="M450.136,7.214
		c0,0,1.929-64.634-7.73-134.509h-35.89c-9.66,69.875-7.729,134.509-7.729,134.509"/>
	
		<ellipse fill="#F1F2F2" stroke="#F1F2F2" stroke-width="1.5625" stroke-miterlimit="10" cx="380.254" cy="245.433" rx="115.562" ry="49.971"/>
	<g>
		
			<rect x="741.182" y="194.04" fill="#F1F2F2" stroke="#F1F2F2" stroke-width="1.5625" stroke-miterlimit="10" width="27.406" height="92.995"/>
		
			<rect x="744.812" y="189.355" fill="#F1F2F2" stroke="#F1F2F2" stroke-width="1.5625" stroke-miterlimit="10" width="20.146" height="3.396"/>
		
			<rect x="745.398" y="185.998" fill="#F1F2F2" stroke="#F1F2F2" stroke-width="1.5625" stroke-miterlimit="10" width="18.974" height="2.812"/>
		
			<rect x="747.154" y="173.741" fill="#F1F2F2" stroke="#F1F2F2" stroke-width="1.5625" stroke-miterlimit="10" width="15.463" height="11.36"/>
		
			<rect x="751.237" y="161.247" fill="#F1F2F2" stroke="#F1F2F2" stroke-width="1.5625" stroke-miterlimit="10" width="7.296" height="10.407"/>
		
			<line fill="none" stroke="#F1F2F2" stroke-width="1.5625" stroke-miterlimit="10" x1="754.885" y1="125.583" x2="754.885" y2="145.494"/>
		<path fill="#F1F2F2" stroke="#F1F2F2" stroke-width="1.5625" stroke-miterlimit="10" d="M747.634,137.266
			c2.34-0.354,3.746-2.225,3.746-2.225c1.112-1.934,2.985-2.169,2.985-2.169v-5.944c0,0-1.873,0.232-2.985,2.168
			c0,0-1.406,1.872-3.746,2.225V137.266z"/>
		<path fill="#F1F2F2" stroke="#F1F2F2" stroke-width="1.5625" stroke-miterlimit="10" d="M751.474,151.292
			c0-3.251,2.05-4.276,2.05-4.276c0-1.228,1.259-1.696,1.259-1.696h0.207c0,0,1.259,0.469,1.259,1.696c0,0,2.05,1.025,2.05,4.276
			H751.474z"/>
		
			<line fill="none" stroke="#F1F2F2" stroke-width="1.5625" stroke-miterlimit="10" x1="769.485" y1="223.244" x2="740.285" y2="223.244"/>
		
			<line fill="none" stroke="#F1F2F2" stroke-width="3.125" stroke-miterlimit="10" x1="770.266" y1="216.373" x2="739.502" y2="216.373"/>
		
			<line fill="none" stroke="#F1F2F2" stroke-width="3.125" stroke-miterlimit="10" x1="769.719" y1="217.312" x2="740.048" y2="217.312"/>
		
			<line fill="none" stroke="#F1F2F2" stroke-width="3.125" stroke-miterlimit="10" x1="770.266" y1="197.009" x2="739.502" y2="197.009"/>
		
			<line fill="none" stroke="#F1F2F2" stroke-width="3.125" stroke-miterlimit="10" x1="769.719" y1="197.946" x2="740.048" y2="197.946"/>
		
			<line fill="none" stroke="#F1F2F2" stroke-width="3.125" stroke-miterlimit="10" x1="770.266" y1="192.949" x2="739.502" y2="192.949"/>
		
			<line fill="none" stroke="#F1F2F2" stroke-width="3.125" stroke-miterlimit="10" x1="769.719" y1="193.884" x2="740.048" y2="193.884"/>
		
			<line fill="none" stroke="#F1F2F2" stroke-width="3.125" stroke-miterlimit="10" x1="765.387" y1="189.2" x2="744.383" y2="189.2"/>
		
			<line fill="none" stroke="#F1F2F2" stroke-width="3.125" stroke-miterlimit="10" x1="764.918" y1="185.568" x2="744.852" y2="185.568"/>
		
			<line fill="none" stroke="#F1F2F2" stroke-width="3.125" stroke-miterlimit="10" x1="763.474" y1="173.273" x2="746.295" y2="173.273"/>
		<g>
			<path fill="#F1F2F2" stroke="#F1F2F2" stroke-width="1.5625" stroke-miterlimit="10" d="M741.317,190.137
				c0,0.495,0.399,0.898,0.897,0.898l0,0c0.493,0,0.897-0.403,0.897-0.898l0,0c0-0.497-0.404-0.898-0.897-0.898l0,0
				C741.717,189.238,741.317,189.64,741.317,190.137L741.317,190.137z"/>
			
				<line fill="none" stroke="#F1F2F2" stroke-width="3.125" stroke-miterlimit="10" x1="743.426" y1="192.126" x2="741.005" y2="192.126"/>
			
				<line fill="none" stroke="#F1F2F2" stroke-width="1.5625" stroke-miterlimit="10" x1="742.978" y1="191.462" x2="741.453" y2="191.462"/>
		</g>
		<g>
			<path fill="#F1F2F2" stroke="#F1F2F2" stroke-width="1.5625" stroke-miterlimit="10" d="M766.021,190.137
				c0,0.495,0.401,0.898,0.898,0.898l0,0c0.495,0,0.896-0.403,0.896-0.898l0,0c0-0.497-0.403-0.898-0.896-0.898l0,0
				C766.423,189.238,766.021,189.64,766.021,190.137L766.021,190.137z"/>
			
				<line fill="none" stroke="#F1F2F2" stroke-width="3.125" stroke-miterlimit="10" x1="768.131" y1="192.126" x2="765.707" y2="192.126"/>
			
				<line fill="none" stroke="#F1F2F2" stroke-width="1.5625" stroke-miterlimit="10" x1="767.68" y1="191.462" x2="766.155" y2="191.462"/>
		</g>
		<g>
			<path fill="#F1F2F2" stroke="#F1F2F2" stroke-width="1.5625" stroke-miterlimit="10" d="M745.769,183.832
				c0,0.247,0.2,0.448,0.449,0.448l0,0c0.247,0,0.448-0.201,0.448-0.448l0,0c0-0.247-0.201-0.449-0.448-0.449l0,0
				C745.969,183.383,745.769,183.585,745.769,183.832L745.769,183.832z"/>
			
				<line fill="none" stroke="#F1F2F2" stroke-width="3.125" stroke-miterlimit="10" x1="746.824" y1="184.828" x2="745.611" y2="184.828"/>
			
				<line fill="none" stroke="#F1F2F2" stroke-width="1.5625" stroke-miterlimit="10" x1="746.599" y1="184.495" x2="745.838" y2="184.495"/>
		</g>
		<g>
			<path fill="#F1F2F2" stroke="#F1F2F2" stroke-width="1.5625" stroke-miterlimit="10" d="M763.113,183.916
				c0,0.246,0.201,0.449,0.447,0.449l0,0c0.248,0,0.449-0.203,0.449-0.449l0,0c0-0.25-0.201-0.447-0.449-0.447l0,0
				C763.313,183.469,763.113,183.666,763.113,183.916L763.113,183.916z"/>
			
				<line fill="none" stroke="#F1F2F2" stroke-width="3.125" stroke-miterlimit="10" x1="764.166" y1="184.912" x2="762.955" y2="184.912"/>
			
				<line fill="none" stroke="#F1F2F2" stroke-width="1.5625" stroke-miterlimit="10" x1="763.942" y1="184.58" x2="763.181" y2="184.58"/>
		</g>
		<g>
			
				<line fill="none" stroke="#F1F2F2" stroke-width="1.5625" stroke-miterlimit="10" x1="754.226" y1="152.58" x2="754.226" y2="159.373"/>
			
				<line fill="none" stroke="#F1F2F2" stroke-width="1.5625" stroke-miterlimit="10" x1="751.588" y1="152.58" x2="751.588" y2="159.373"/>
			
				<line fill="none" stroke="#F1F2F2" stroke-width="1.5625" stroke-miterlimit="10" x1="752.908" y1="152.58" x2="752.908" y2="159.373"/>
			
				<line fill="none" stroke="#F1F2F2" stroke-width="1.5625" stroke-miterlimit="10" x1="755.544" y1="152.58" x2="755.544" y2="159.373"/>
			
				<line fill="none" stroke="#F1F2F2" stroke-width="1.5625" stroke-miterlimit="10" x1="758.181" y1="152.58" x2="758.181" y2="159.373"/>
			
				<line fill="none" stroke="#F1F2F2" stroke-width="1.5625" stroke-miterlimit="10" x1="756.863" y1="152.58" x2="756.863" y2="159.373"/>
		</g>
		
			<line fill="none" stroke="#F1F2F2" stroke-width="1.5625" stroke-miterlimit="10" x1="758.545" y1="152.346" x2="751.224" y2="152.346"/>
		
			<line fill="none" stroke="#F1F2F2" stroke-width="3.125" stroke-miterlimit="10" x1="759.08" y1="151.682" x2="750.687" y2="151.682"/>
		
			<line fill="none" stroke="#F1F2F2" stroke-width="1.5625" stroke-miterlimit="10" x1="759.774" y1="161.247" x2="759.774" y2="171.654"/>
		
			<line fill="none" stroke="#F1F2F2" stroke-width="1.5625" stroke-miterlimit="10" x1="750.406" y1="161.247" x2="750.406" y2="171.654"/>
		
			<rect x="748.573" y="159.373" fill="#F1F2F2" stroke="#F1F2F2" stroke-width="1.5625" stroke-miterlimit="10" width="12.622" height="1.376"/>
		
			<rect x="749.32" y="160.671" fill="#F1F2F2" stroke="#F1F2F2" stroke-width="1.5625" stroke-miterlimit="10" width="11.126" height="0.909"/>
		
			<rect x="748.148" y="171.654" fill="#F1F2F2" stroke="#F1F2F2" stroke-width="1.5625" stroke-miterlimit="10" width="13.47" height="1.213"/>
	</g>
	<polyline fill="#F1F2F2" stroke="#F1F2F2" stroke-width="1.5625" stroke-miterlimit="10" points="684.592,229.593 723.44,222.306 
		726.32,222.306 765.172,229.593 	"/>
	<path fill="#F1F2F2" stroke="#F1F2F2" stroke-width="1.5625" stroke-miterlimit="10" d="M1224.809,169.357V70.158h-3.906v2.605
		h-19.216v-2.605h-3.91v99.199h-82.976v2.219h6.088v8.212h-6.088v2.214h82.976l-0.085,93.551l27.647-0.237l-0.138-46.378
		l-0.394-46.936h141.347l3.188-2.214h-6.731v-8.212h7.145v7.923l1.737-1.205v-6.721h7.159v1.754l0.144-0.099
		c0.095-1.294,0.195-2.583,0.3-3.873h-154.286V169.357z M1129.778,179.788h-7.153v-8.212h7.153V179.788z M1138.66,179.788h-7.149
		v-8.212h7.149V179.788z M1147.552,179.788h-7.149v-8.212h7.149V179.788z M1156.438,179.788h-7.151v-8.212h7.151V179.788z
		 M1165.332,179.788h-7.162v-8.212h7.162V179.788z M1174.221,179.788h-7.16v-8.212h7.16V179.788z M1183.111,179.788h-7.158v-8.212
		h7.158V179.788z M1191.996,179.788h-7.159v-8.212h7.159V179.788z M1197.776,179.788h-4.047v-8.212h4.047V179.788z M1202.871,76.671
		h16.849l0.647,0.63l-9.068,9.078h-0.003l-9.073-9.078L1202.871,76.671z M1206.125,179.788l5.172-5.185h0.004l5.171,5.185H1206.125z
		 M1218.682,182.002l1.686,1.696l-9.068,9.058h-0.003l-9.073-9.058l1.687-1.696H1218.682z M1209.17,169.357l-6.946-6.941
		l9.073-9.068h0.004l9.068,9.068l-6.951,6.941H1209.17z M1211.296,150.223l-9.073-9.082l9.073-9.068h0.003l9.068,9.068l-9.068,9.082
		H1211.296z M1211.296,128.928l-9.073-9.052l9.073-9.087h0.003l9.068,9.087l-9.068,9.052H1211.296z M1211.296,107.662l-9.073-9.087
		l9.073-9.05h0.003l9.068,9.05l-9.068,9.087H1211.296z M1201.687,79.919l8.044,8.034l-8.044,8.04V79.919z M1201.687,101.195
		l8.044,8.029l-8.044,8.058V101.195z M1201.687,122.452l8.044,8.05l-8.044,8.047V122.452z M1201.687,143.746l8.044,8.023
		l-8.044,8.056V143.746z M1201.687,164.993l4.354,4.364h-4.354V164.993z M1201.687,171.576h6.565l1.479,1.461l-6.738,6.751h-1.307
		L1201.687,171.576L1201.687,171.576z M1201.687,186.286l8.044,8.021l-8.044,8.06V186.286z M1201.687,212.461v-4.919l4.896,4.919
		H1201.687z M1209.71,212.461l-7.486-7.489l9.073-9.093h0.004l9.068,9.093l-7.492,7.489H1209.71z M1220.902,212.461h-4.896
		l4.896-4.919V212.461z M1220.902,202.359l-8.043-8.051l8.043-8.022V202.359z M1220.902,179.788h-1.306l-6.737-6.751l1.475-1.461
		h6.568V179.788L1220.902,179.788z M1220.902,169.357h-4.357l4.357-4.364V169.357z M1220.902,159.825l-8.043-8.056l8.043-8.023
		V159.825z M1220.902,138.541l-8.043-8.039l8.043-8.05V138.541z M1220.902,117.282l-8.043-8.058l8.043-8.029V117.282z
		 M1220.902,95.993l-8.043-8.04l8.043-8.034V95.993z M1227.548,179.788h-2.739v-8.212h2.739V179.788z M1236.439,179.788h-7.156
		v-8.212h7.156V179.788z M1245.326,179.788h-7.154v-8.212h7.154V179.788z M1254.217,179.788h-7.16v-8.212h7.16V179.788z
		 M1263.102,179.788h-7.158v-8.212h7.158V179.788z M1271.989,179.788h-7.155v-8.212h7.155V179.788z M1280.885,179.788h-7.161v-8.212
		h7.161V179.788z M1289.771,179.788h-7.156v-8.212h7.156V179.788z M1298.652,179.788h-7.151v-8.212h7.151V179.788z
		 M1307.542,179.788h-7.158v-8.212h7.158V179.788z M1316.432,179.788h-7.151v-8.212h7.151V179.788z M1325.32,179.788h-7.153v-8.212
		h7.153V179.788z M1334.207,179.788h-7.153v-8.212h7.153V179.788z M1343.092,179.788h-7.15v-8.212h7.15V179.788z M1351.986,179.788
		h-7.162v-8.212h7.162V179.788z M1360.875,179.788h-7.155v-8.212h7.155V179.788z"/>
	<path fill="#F1F2F2" stroke="#F1F2F2" stroke-width="1.5625" stroke-miterlimit="10" d="M1169.7,276.074"/>
	<g>
		<path fill="#F1F2F2" stroke="#F1F2F2" stroke-width="1.5625" stroke-miterlimit="10" d="M527.523,168.88H456.39v12.642h71.312
			L527.523,168.88z M465.312,179.312h-7.157v-8.212h7.157V179.312z M474.199,179.312h-7.16v-8.212h7.16V179.312z M483.092,179.312
			h-7.161v-8.212h7.161V179.312z M491.981,179.312h-7.164v-8.212h7.164V179.312z M500.863,179.312h-7.153v-8.212h7.153V179.312z
			 M509.75,179.312h-7.152v-8.212h7.152V179.312z M518.642,179.312h-7.15v-8.212h7.15V179.312z M520.374,171.101h7.153v8.212h-7.153
			"/>
		<polyline fill="#F1F2F2" stroke="#F1F2F2" stroke-width="1.5625" stroke-miterlimit="10" points="527.438,181.521 
			535.238,181.521 535.238,179.312 529.152,179.312 529.152,171.101 535.238,171.101 535.238,168.88 527.523,168.88 		"/>
	</g>
	<g>
		<path fill="#F1F2F2" stroke="#F1F2F2" stroke-width="1.5625" stroke-miterlimit="10" d="M963.131,169.311H892v12.645h71.307
			L963.131,169.311z M900.918,179.744h-7.155v-8.213h7.155V179.744z M909.805,179.744h-7.16v-8.213h7.16V179.744z M918.698,179.744
			h-7.161v-8.213h7.161V179.744z M927.588,179.744h-7.162v-8.213h7.162V179.744z M936.471,179.744h-7.154v-8.213h7.154V179.744z
			 M945.358,179.744h-7.152v-8.213h7.152V179.744z M954.246,179.744h-7.148v-8.213h7.148V179.744z M955.979,171.531h7.153v8.213
			h-7.153"/>
		<polyline fill="#F1F2F2" stroke="#F1F2F2" stroke-width="1.5625" stroke-miterlimit="10" points="963.043,181.955 
			970.846,181.955 970.846,179.744 964.756,179.744 964.756,171.531 970.846,171.531 970.846,169.311 963.131,169.311 		"/>
	</g>
	<g>
		<path fill="#F1F2F2" stroke="#F1F2F2" stroke-width="1.5625" stroke-miterlimit="10" d="M1041.977,169.311h-71.131v12.645h71.309
			L1041.977,169.311z M979.766,179.744h-7.158v-8.213h7.158V179.744z M988.652,179.744h-7.158v-8.213h7.158V179.744z
			 M997.543,179.744h-7.159v-8.213h7.159V179.744z M1006.436,179.744h-7.165v-8.213h7.165V179.744z M1015.318,179.744h-7.151v-8.213
			h7.151V179.744z M1024.203,179.744h-7.152v-8.213h7.152V179.744z M1033.095,179.744h-7.149v-8.213h7.149V179.744z
			 M1034.827,171.531h7.154v8.213h-7.154"/>
		<polyline fill="#F1F2F2" stroke="#F1F2F2" stroke-width="1.5625" stroke-miterlimit="10" points="1041.888,181.955 
			1049.693,181.955 1049.693,179.744 1043.605,179.744 1043.605,171.531 1049.693,171.531 1049.693,169.311 1041.977,169.311 		"/>
	</g>
	<g>
		<path fill="#F1F2F2" stroke="#F1F2F2" stroke-width="1.5625" stroke-miterlimit="10" d="M1120.826,169.311h-71.133v12.645h71.309
			L1120.826,169.311z M1058.611,179.744h-7.157v-8.213h7.157V179.744z M1067.5,179.744h-7.16v-8.213h7.16V179.744z M1076.39,179.744
			h-7.158v-8.213h7.158V179.744z M1085.282,179.744h-7.161v-8.213h7.161V179.744z M1094.166,179.744h-7.151v-8.213h7.151V179.744z
			 M1103.05,179.744h-7.148v-8.213h7.148V179.744z M1111.941,179.744h-7.15v-8.213h7.15V179.744z M1113.674,171.531h7.154v8.213
			h-7.154"/>
		<polyline fill="#F1F2F2" stroke="#F1F2F2" stroke-width="1.5625" stroke-miterlimit="10" points="1120.736,181.955 
			1128.538,181.955 1128.538,179.744 1122.453,179.744 1122.453,171.531 1128.538,171.531 1128.538,169.311 1120.826,169.311 		"/>
	</g>
	<path fill="none" stroke="#F1F2F2" stroke-width="6.25" stroke-miterlimit="10" d="M808.318,76.042c0,0,156.678,198.786,391.231,0"
		/>
	<path fill="none" stroke="#F1F2F2" stroke-width="6.25" stroke-miterlimit="10" d="M1222.383,73.936
		c0,0,71.395,91.195,189.402,90.71"/>
	<path fill="none" stroke="#F1F2F2" stroke-width="6.25" stroke-miterlimit="10" d="M784.221,74.805
		c0,0-55.27,94.562-173.275,94.075"/>
</g>
<path fill="#EFEFEF" d="M805.769-16.593c3.466,0.963,3.576,3.147,3.576,3.147c0.418,1.893-1.856,3.335-1.856,3.335
	c-1.86,1.618-7.033,3.536-7.033,3.536c-1.824,0.786-10.653,2.877-10.653,2.877l-28.155,5.505l0.481,5.314
	c-8.5,3.174-15.606,2.911-15.606,2.911l-0.516-1.748c-1.471-0.043-3.601-0.218-3.601-0.218l-0.188-0.665
	c-1.226-0.089-2.58-0.535-2.58-0.535l-0.264-0.396l-7.496,1.398l-30.535,4.677c-7.184,1.023-22.457,0.947-22.457,0.947
	c-15.227,0.169-35.945-2.516-35.945-2.516l-0.441-2.365l0.826-0.853c1.688-1.174,8.585-3.223,8.585-3.223l-11.543-25.758
	l7.005-1.306c1.312-0.118,2.43,0.754,2.43,0.754l22.699,18.082c4.061,2.676,7.443,1.727,7.443,1.727l3.453-0.58l18.716-3.618
	l-3.526-4.598l1.146-0.214c0.614-0.114,1.608,0.674,1.608,0.674l4.809,3.513l4.506-0.84l-0.819-1.67l0.491-0.09l1.803,1.486
	l70.245-12.889l1.522-0.24c9.592-1.409,14.534,0.891,14.534,0.891c2.882,1.583,3.874,2.584,3.874,2.584L805.769-16.593z"/>
</svg>
