<?xml version="1.0" encoding="utf-8"?>
<!-- Generator: Adobe Illustrator 16.0.0, SVG Export Plug-In . SVG Version: 6.00 Build 0)  -->
<!DOCTYPE svg PUBLIC "-//W3C//DTD SVG 1.1//EN" "http://www.w3.org/Graphics/SVG/1.1/DTD/svg11.dtd">
<svg version="1.1" id="Layer_1" xmlns="http://www.w3.org/2000/svg" xmlns:xlink="http://www.w3.org/1999/xlink" x="0px" y="0px"
	 width="348.703px" height="182px" viewBox="0 0 348.703 182" enable-background="new 0 0 348.703 182" xml:space="preserve">
<path fill="#FFFFFF" stroke="#808285" stroke-miterlimit="10" d="M336.476,139.368c6.443,3.198,5.837,7.53,5.837,7.53
	c0.106,3.875-4.904,5.851-4.904,5.851c-4.264,2.476-15.148,4.293-15.148,4.293c-3.879,0.856-22.009,1.636-22.009,1.636
	l-57.377,0.198l-1.056,10.619c-17.892,3.03-31.752-0.167-31.752-0.167l-0.354-3.628c-2.872-0.64-6.991-1.786-6.991-1.786
	l-0.116-1.376c-2.373-0.638-4.865-2.024-4.865-2.024l-0.369-0.877l-15.25-0.08l-61.739-2.326
	c-14.497-0.699-44.466-6.607-44.466-6.607C45.944,145.215,6.263,132.13,6.263,132.13l0.025-4.812l1.944-1.364
	c3.759-1.669,18.078-3.095,18.078-3.095L13.348,67.916l14.251,0.076c2.623,0.264,4.487,2.398,4.487,2.398l37.769,44.074
	c6.967,6.786,13.969,6.198,13.969,6.198l7,0.162l38.125-0.049l-5.194-10.361l2.332,0.013c1.25,0.007,2.905,1.931,2.905,1.931
	l8.121,8.711l9.166,0.048l-0.979-3.589l0.999,0.007l2.98,3.598l142.831,1.17l3.08,0.101c19.373,0.85,28.213,7.23,28.213,7.23
	c5.063,4.194,6.635,6.536,6.635,6.536L336.476,139.368z"/>
<circle fill="#FFFFFF" stroke="#808285" stroke-miterlimit="10" cx="297.391" cy="173.805" r="4.297"/>
<circle fill="#FFFFFF" stroke="#808285" stroke-miterlimit="10" cx="181.084" cy="170.564" r="6.953"/>
</svg>
