<?xml version="1.0" encoding="utf-8"?>
<!-- Generator: Adobe Illustrator 16.0.0, SVG Export Plug-In . SVG Version: 6.00 Build 0)  -->
<!DOCTYPE svg PUBLIC "-//W3C//DTD SVG 1.1//EN" "http://www.w3.org/Graphics/SVG/1.1/DTD/svg11.dtd">
<svg version="1.1" id="Layer_1" xmlns="http://www.w3.org/2000/svg" xmlns:xlink="http://www.w3.org/1999/xlink" x="0px" y="0px"
	 width="816.71px" height="434px" viewBox="0 0 816.71 434" enable-background="new 0 0 816.71 434" xml:space="preserve">
<g>
	<g>
		<defs>
			<rect id="SVGID_1_" x="-328" y="-56" width="1500" height="700"/>
		</defs>
		<clipPath id="SVGID_2_">
			<use xlink:href="#SVGID_1_"  overflow="visible"/>
		</clipPath>
		<path clip-path="url(#SVGID_2_)" fill="#F2F2F2" d="M536.261,266.21c17.318,5.758,35.854,11.444,48.467,14.007
			c30.236,6.143,47.244,6.614,47.244,6.614v6.142l14.172,5.668l18.898-11.811l11.811,0.473v-3.779l61.416-12.283l-24.566-9.449
			l-39.213,2.835l13.229-46.771l-21.26-7.087l-41.102,36.378l-18.426,1.416l-40.629-18.424l168.188-40.158l-24.566-13.228
			l-113.385,16.535c0,0-28.346-10.393-34.016-5.669c-5.67,4.724-2.836,9.921-2.836,9.921l-23.426,2.928"/>
	</g>
	<g>
		<defs>
			<rect id="SVGID_3_" x="-328" y="-56" width="1500" height="700"/>
		</defs>
		<clipPath id="SVGID_4_">
			<use xlink:href="#SVGID_3_"  overflow="visible"/>
		</clipPath>
		<path clip-path="url(#SVGID_4_)" fill="#F2F2F2" d="M474.193,198.063c-19.977-7.367-73.652-27.115-87.416-31.703
			c-17.008-5.67-36.938-10.077-46.012-3.352c0,0-14.092-2.024-17.295,5.714c-1.635,3.953-5.669,23.129,104.409,56.445l9.449,17.728
			h-13.229c0,0-17.007-5.197-18.896,0c-1.891,5.196,0,7.086,13.701,13.229c0,0-3.779,4.725-1.891,8.503
			c1.891,3.78,18.426,11.339,32.125,13.229c0,0,5.197-2.836,4.252-7.088c0,0-0.658,4.952,9.609,9.889"/>
	</g>
	<g>
		<defs>
			<rect id="SVGID_5_" x="-328" y="-56" width="1500" height="700"/>
		</defs>
		<clipPath id="SVGID_6_">
			<use xlink:href="#SVGID_5_"  overflow="visible"/>
		</clipPath>
		
			<circle clip-path="url(#SVGID_6_)" fill="none" stroke="#000066" stroke-width="28.8" stroke-miterlimit="10" cx="355.39" cy="225.591" r="113.526"/>
	</g>
	<g>
		<defs>
			<rect id="SVGID_7_" x="-328" y="-56" width="1500" height="700"/>
		</defs>
		<clipPath id="SVGID_8_">
			<use xlink:href="#SVGID_7_"  overflow="visible"/>
		</clipPath>
		
			<circle clip-path="url(#SVGID_8_)" fill="none" stroke="#000066" stroke-width="28.8" stroke-miterlimit="10" cx="646.992" cy="225.591" r="113.526"/>
	</g>
	<g>
		<defs>
			<rect id="SVGID_9_" x="-328" y="-56" width="1500" height="700"/>
		</defs>
		<clipPath id="SVGID_10_">
			<use xlink:href="#SVGID_9_"  overflow="visible"/>
		</clipPath>
		
			<line clip-path="url(#SVGID_10_)" fill="none" stroke="#000066" stroke-width="27.958" stroke-miterlimit="10" x1="500.89" y1="35.066" x2="500.89" y2="80.066"/>
	</g>
	<g>
		<defs>
			<rect id="SVGID_11_" x="-328" y="-56" width="1500" height="700"/>
		</defs>
		<clipPath id="SVGID_12_">
			<use xlink:href="#SVGID_11_"  overflow="visible"/>
		</clipPath>
		
			<line clip-path="url(#SVGID_12_)" fill="none" stroke="#000066" stroke-width="27.958" stroke-miterlimit="10" stroke-dasharray="102.684,8.215" x1="500.89" y1="88.281" x2="500.89" y2="305.973"/>
	</g>
	<g>
		<defs>
			<rect id="SVGID_13_" x="-328" y="-56" width="1500" height="700"/>
		</defs>
		<clipPath id="SVGID_14_">
			<use xlink:href="#SVGID_13_"  overflow="visible"/>
		</clipPath>
		
			<line clip-path="url(#SVGID_14_)" fill="none" stroke="#000066" stroke-width="27.958" stroke-miterlimit="10" x1="500.89" y1="310.079" x2="500.89" y2="355.079"/>
	</g>
	<g>
		<defs>
			<rect id="SVGID_15_" x="-328" y="-56" width="1500" height="700"/>
		</defs>
		<clipPath id="SVGID_16_">
			<use xlink:href="#SVGID_15_"  overflow="visible"/>
		</clipPath>
		<path clip-path="url(#SVGID_16_)" fill="#000066" d="M276.412,218.009c11.595-55.2,55.2-73.2,55.2-73.2
			S269.212,152.009,276.412,218.009"/>
	</g>
	<g>
		<defs>
			<rect id="SVGID_17_" x="-328" y="-56" width="1500" height="700"/>
		</defs>
		<clipPath id="SVGID_18_">
			<use xlink:href="#SVGID_17_"  overflow="visible"/>
		</clipPath>
		<path clip-path="url(#SVGID_18_)" fill="none" stroke="#000066" stroke-width="3.6" stroke-miterlimit="10" d="M276.412,218.009
			c11.595-55.2,55.2-73.2,55.2-73.2S269.212,152.009,276.412,218.009z"/>
	</g>
	<g>
		<defs>
			<rect id="SVGID_19_" x="-328" y="-56" width="1500" height="700"/>
		</defs>
		<clipPath id="SVGID_20_">
			<use xlink:href="#SVGID_19_"  overflow="visible"/>
		</clipPath>
		<path clip-path="url(#SVGID_20_)" fill="#000066" d="M568.378,216.815c11.596-55.2,55.199-73.2,55.199-73.2
			S561.179,150.815,568.378,216.815"/>
	</g>
	<g>
		<defs>
			<rect id="SVGID_21_" x="-328" y="-56" width="1500" height="700"/>
		</defs>
		<clipPath id="SVGID_22_">
			<use xlink:href="#SVGID_21_"  overflow="visible"/>
		</clipPath>
		<path clip-path="url(#SVGID_22_)" fill="none" stroke="#000066" stroke-width="3.6" stroke-miterlimit="10" d="M568.378,216.815
			c11.596-55.2,55.199-73.2,55.199-73.2S561.179,150.815,568.378,216.815z"/>
	</g>
</g>
<text transform="matrix(1 0 0 1 371.8062 418.5146)" fill="#000066" font-family="'MyriadPro-Regular'" font-size="36">For the plane spotters</text>
<polygon fill="#1B1464" points="32.089,97.5 69.355,97.5 136.355,320 209.355,97.5 243.855,97.5 152.855,353.549 116.855,353.549 
	"/>
</svg>
