<?xml version="1.0" encoding="utf-8"?>
<!-- Generator: Adobe Illustrator 16.0.0, SVG Export Plug-In . SVG Version: 6.00 Build 0)  -->
<!DOCTYPE svg PUBLIC "-//W3C//DTD SVG 1.1//EN" "http://www.w3.org/Graphics/SVG/1.1/DTD/svg11.dtd">
<svg version="1.1" id="Layer_1" xmlns="http://www.w3.org/2000/svg" xmlns:xlink="http://www.w3.org/1999/xlink" x="0px" y="0px"
	 width="816.71px" height="434px" viewBox="0 0 816.71 434" enable-background="new 0 0 816.71 434" xml:space="preserve">
<g>
	<defs>
		<rect id="SVGID_1_" x="-328" y="-56" width="1500" height="700"/>
	</defs>
	<clipPath id="SVGID_2_">
		<use xlink:href="#SVGID_1_"  overflow="visible"/>
	</clipPath>
	<path clip-path="url(#SVGID_2_)" fill="#F2F2F2" d="M536.261,266.21c17.319,5.758,35.854,11.445,48.467,14.007
		c30.236,6.142,47.244,6.614,47.244,6.614v6.142l14.173,5.668l18.897-11.811l11.811,0.473v-3.78l61.417-12.283l-24.568-9.449
		l-39.212,2.835l13.229-46.771l-21.26-7.087l-41.102,36.378l-18.425,1.417l-40.63-18.425l168.187-40.157l-24.566-13.228
		l-113.385,16.535c0,0-28.346-10.393-34.015-5.669c-5.67,4.724-2.835,9.921-2.835,9.921l-23.427,2.928"/>
	<path clip-path="url(#SVGID_2_)" fill="#F2F2F2" d="M474.193,198.063c-19.976-7.367-73.652-27.115-87.416-31.703
		c-17.008-5.67-36.938-10.077-46.012-3.352c0,0-14.092-2.024-17.295,5.714c-1.635,3.953-5.669,23.129,104.409,56.445l9.449,17.727
		H424.1c0,0-17.008-5.197-18.897,0c-1.89,5.197,0,7.087,13.7,13.229c0,0-3.779,4.724-1.889,8.503
		c1.889,3.78,18.425,11.339,32.125,13.229c0,0,5.197-2.835,4.252-7.087c0,0-0.66,4.952,9.609,9.888"/>
	
		<circle clip-path="url(#SVGID_2_)" fill="none" stroke="#000066" stroke-width="28.8" stroke-miterlimit="10" cx="355.39" cy="225.591" r="113.526"/>
	
		<circle clip-path="url(#SVGID_2_)" fill="none" stroke="#000066" stroke-width="28.8" stroke-miterlimit="10" cx="646.991" cy="225.591" r="113.526"/>
	
		<line clip-path="url(#SVGID_2_)" fill="none" stroke="#000066" stroke-width="27.958" stroke-miterlimit="10" x1="500.89" y1="35.066" x2="500.89" y2="80.066"/>
	
		<line clip-path="url(#SVGID_2_)" fill="none" stroke="#000066" stroke-width="27.958" stroke-miterlimit="10" stroke-dasharray="102.684,8.215" x1="500.89" y1="88.281" x2="500.89" y2="305.972"/>
	
		<line clip-path="url(#SVGID_2_)" fill="none" stroke="#000066" stroke-width="27.958" stroke-miterlimit="10" x1="500.89" y1="310.079" x2="500.89" y2="355.079"/>
	<path clip-path="url(#SVGID_2_)" fill="#000066" d="M276.412,218.009c11.595-55.2,55.2-73.2,55.2-73.2
		S269.212,152.009,276.412,218.009"/>
	<path clip-path="url(#SVGID_2_)" fill="none" stroke="#000066" stroke-width="3.6" stroke-miterlimit="10" d="M276.412,218.009
		c11.595-55.2,55.2-73.2,55.2-73.2S269.212,152.009,276.412,218.009z"/>
	<path clip-path="url(#SVGID_2_)" fill="#000066" d="M568.379,216.815c11.595-55.2,55.199-73.2,55.199-73.2
		S561.179,150.815,568.379,216.815"/>
	<path clip-path="url(#SVGID_2_)" fill="none" stroke="#000066" stroke-width="3.6" stroke-miterlimit="10" d="M568.379,216.815
		c11.595-55.2,55.199-73.2,55.199-73.2S561.179,150.815,568.379,216.815z"/>
</g>
<text transform="matrix(1 0 0 1 31.0894 354.5488)" fill="#1B1464" font-family="'MyriadPro-Regular'" font-size="381.6">V</text>
<text transform="matrix(1 0 0 1 355.3901 418.5146)"><tspan x="0" y="0" fill="#000066" font-family="'MyriadPro-Regular'" font-size="36" letter-spacing="-1">F</tspan><tspan x="16.416" y="0" fill="#000066" font-family="'MyriadPro-Regular'" font-size="36">or the plane spot</tspan><tspan x="271.543" y="0" fill="#000066" font-family="'MyriadPro-Regular'" font-size="36">t</tspan><tspan x="283.279" y="0" fill="#000066" font-family="'MyriadPro-Regular'" font-size="36">ers</tspan></text>
</svg>
