<svg id="Layer_1" data-name="Layer 1" xmlns="http://www.w3.org/2000/svg" viewBox="0 0 2560 387.5"><defs><style>.cls-1{fill:#d1d3d4;fill-rule:evenodd;}</style></defs><title>skyline</title><polygon class="cls-1" points="1411.4 277.2 1448.6 277.2 1448.6 334.4 1471.5 334.4 1471.5 315 1478.6 315 1478.6 322 1504.4 322 1504.4 280.6 1542.5 280.6 1542.5 359.5 1547.8 359.5 1547.8 330.6 1562.1 330.6 1562.1 263.9 1587.3 263.9 1587.3 336.8 1604 336.8 1604 292 1630.2 292 1630.2 336.8 1630.2 354.4 1630.2 359.5 1641.2 359.5 1641.2 310.1 1665 310.1 1665 331.6 1679.8 331.6 1679.8 269.6 1713.7 269.6 1713.7 337.8 1743.2 337.8 1743.2 262.4 1777.5 262.4 1777.5 326.8 1799.5 326.8 1799.5 340.9 1777.5 340.9 1777.5 359.5 1825.2 359.5 1825.2 203.3 1832.4 203.3 1832.4 201.9 1841.4 201.9 1841.4 196.7 1842.4 196.7 1842.4 201.9 1862.4 201.9 1862.4 203.3 1865.7 203.3 1865.7 359.5 1916.7 359.5 1916.7 296.7 1948.6 296.7 1948.6 335.7 1978.6 335.7 1978.6 359.5 1985 359.5 1985 307.2 1997.7 307.2 1997.7 217.3 2019.4 217.3 2019.4 212.4 2031.4 212.4 2031.4 198.1 2034.5 198.1 2034.5 177.9 2036.6 177.9 2036.6 198.1 2036.6 212.4 2036.6 217.3 2042.6 217.3 2042.6 212.4 2042.6 198.1 2042.6 177.9 2044.8 177.9 2044.8 198.1 2047.8 198.1 2047.8 212.4 2059.8 212.4 2059.8 217.3 2076.4 217.3 2076.4 359.5 2111.8 359.5 2111.8 315.5 2134 315.5 2134 335 2160.6 335 2160.6 359.5 2213.1 359.5 2213.1 275.1 2211.5 275.1 2211.5 267.5 2215.4 267.5 2215.4 265.2 2220.3 265.2 2220.3 261.7 2233.2 261.7 2233.2 259.4 2262.6 259.4 2262.6 264.6 2261.5 264.6 2261.5 267.5 2263.1 267.5 2263.1 275.1 2261.1 275.1 2261.1 359.5 2329.2 359.5 2329.2 261.8 2358.4 261.8 2358.4 359.5 2370.8 359.5 2370.8 314 2389 314 2389 359.5 2428.8 359.5 2428.8 309.3 2442.1 309.3 2442.1 359.5 2450.3 359.5 2559.3 359.5 2567.6 359.5 2567.6 324.3 2577.6 324.3 2577.6 271.3 2596.2 271.3 2596.2 359.5 2602.1 359.5 2602.1 286.3 2639.5 286.3 2639.5 359.5 2652.2 359.5 2652.2 324.3 2659.3 324.3 2659.3 285.1 2684.6 285.1 2684.6 324.4 2723.1 324.4 2723.1 282.4 2743.2 282.4 2743.2 324.4 2746.1 324.4 2746.1 342.7 2768.9 342.7 2768.9 359.5 2773.2 359.5 2773.2 328.6 2788.6 328.6 2788.6 340 2798.2 340 2798.2 359.5 2801.7 359.5 2801.7 375.5 1401.7 375.5 1401.7 359.5 1411.4 359.5 1411.4 277.2 1411.4 277.2"/><path class="cls-1" d="M1.7,375.5h1400V307h-6V289.7h-3.3v-2.3h-3.9v2.3h-5.3v-5.9h-6v-2.6h-8.5v-4.6h-7v4.6h-2.6v2.6h-2v5.9h-6.2V307h-3v-8.7h-8.6v-6.9h-12.5v6.9h-14.2v-9.5h-24.4v9.5h-17.5V285.8h-12.5v-9.9h-24.4V248.5h-33.9v37.3h-5V300h-11.5V282.8h-35.6V298h-9.3V255.5h-6.9v-2h-10.9v2h-3.3V307h-7.9V295h-14.3v-2.4h.1V275.4h.4l-1.4-7-1.4,6.7V262h.7l-1.5-7-1.2,6.1h-.3v-5.6h-1v-9.4h.5l-2.8-13.9-2.8,13.9h.6v9.4h-1v5.6h-.4l-1.2-6.1-1.4,7h.6v13.2h-.2l-1.3-6.8-1.4,7h.6v5.8l-7-6.4-3.5,3.1h-5.5v-2.5h.4l-1.4-7-1.3,6.7V262h.6l-1.4-7-1.3,6.1h-.3v-5.6h-1v-9.4h.6l-2.9-13.9-2.8,13.9h.6v9.4h-1v5.6h-.3l-1.3-6.1-1.4,7h.6v13.2h-.1l-1.4-6.8-1.4,7h.6v8.9h-14v-109h-8.6v-2.2h-6.7v2.2h-12.4V158.5h-.9v16.8H998v-3.8H985.6v3.8h-6.7V289.7h-3.7V238H953.4v61.3h-4.2V270.1H939.1V32.1h-7.5V20.8H864.9V32.1h-7.5V282.7H824.7V307H808.5V258.2H797.8V171h-5.1v-2.6H756.6V171h-5V289.4h-9.2V307h-5.1l-6.6-7.8-11.6-90.6V109.5L707.4,101l-5.9-79.8L695.6,101l-11.7,8.5v99.1l-11.6,90.6-6.5,7.8h-2.4V200.4h-2.3v-5.2h-5.6v-7.7H623.4v7.7h-5.6v5.2h-2.2v86.8h-6.2V299h-3.9V280.9h-3.2v-6.1h-9.6v6.1h-12V307h-3.2V294.7h-2.1V172.5h-1.7V152H559v20.5h-1.6V300.4h-2.3V307h-2.5V283.4h-9.5V151.1H460.8V256.4H452v33.2h-1.5v-8.1h-8.7V307h-1.5V271.3H428.9V251.5H417.4V205.3H391.7v32.5l-3.1-2.6-.4-.3H286.7q-50.1-20.4-90.7-47.3A415.1,415.1,0,0,1,124.4,128v-3.7H120v2.9H98.6v-2.9H94.3V128a415.1,415.1,0,0,1-71.6,59.6c-6.8,4.5-13.8,8.8-21,13v2.9c7.7-4.5,15.1-9.1,22.3-13.9a423.3,423.3,0,0,0,70.3-58v21.7A362.3,362.3,0,0,1,22.8,206c-6.9,3.9-13.9,7.6-21.1,11.1v2.8c7.6-3.8,15.1-7.7,22.3-11.7a371.4,371.4,0,0,0,70.3-51.5v78.2H1.7v2.5H8.5v9.2H1.7V249H94.3v34H85.2v10.3H70.5V284H58.8v9.3H31.7V269.1H5.4V307H1.7v68.5ZM361.2,271.6h8.6V249H354.6v18.6h6.6v4Zm-16.4-4V249H323.5v58h9.2V267.6Zm46.9-21V241l-4.3-3.6h-.2v9.2Zm-99.3,51.1h.9V249H124.4v34h6.2V259.6h19.7v41.7h5.2v-22H173V266.2h21.3v35.1h11V307h10.2V264.7h35.2v27.1h19V260.3h22.7v37.4Zm6.6,0h12.4v7.8l7.1-7.1-10.1-10.1h0l-9.4,9.4ZM98.6,283h5.5l-5.5-5.5V283Zm9,0h3.5l8.4-8.3-10.2-10.2h0L99.2,274.7l8.4,8.3Zm7,0H120v-5.5l-5.4,5.5Zm204.5,24h-5.7l5.7-5.7V307ZM10.4,246.6h8v-9.2h-8v9.2Zm9.9,0h8v-9.2h-8v9.2Zm9.9,0h8v-9.2h-8v9.2Zm10,0h7.9v-9.2H40.2v9.2Zm9.9,0h8v-9.2h-8v9.2Zm9.9,0h8v-9.2H60v9.2Zm9.9,0h8v-9.2h-8v9.2Zm9.9,0h8v-9.2h-8v9.2Zm9.9,0h4.6v-9.2H89.7v9.2Zm39.7-9.2v9.2h8v-9.2Zm-1.9,9.2v-9.2h-3.1v9.2Zm11.8-9.2v9.2h8v-9.2Zm9.9,0v9.2h8v-9.2Zm9.9,0v9.2h8v-9.2Zm9.9,0v9.2h8v-9.2Zm10,0v9.2h7.9v-9.2Zm9.9,0v9.2h8v-9.2Zm9.9,0v9.2h8v-9.2Zm9.9,0v9.2h8v-9.2Zm9.9,0v9.2h8v-9.2Zm9.9,0v9.2h8v-9.2Zm9.9,0v9.2h8v-9.2Zm10,0v9.2h7.9v-9.2Zm9.9,0v9.2h8v-9.2Zm9.9,0v9.2h8v-9.2Zm9.9,0v9.2h8v-9.2Zm9.9,0v9.2h8v-9.2Zm9.9,0v9.2h8v-9.2Zm9.9,0v9.2h8v-9.2Zm10,0v9.2h7.9v-9.2Zm9.9,0v9.2h8v-9.2Zm9.9,0v9.2h8v-9.2Zm9.9,0v9.2h8v-9.2Zm9.9,0v9.2h8v-9.2Zm9.9,0v9.2h8v-9.2Zm9.9,0v9.2h8v-9.2Zm-79.5,58.1,9-9-9-9v18Zm0-23.7,9-9-9-9v18Zm21.4-18-8.9,9,8.9,8.9V253.8Zm0,23.7-8.9,9,8.9,9v-18ZM316.7,249H300.2l-1.9,1.9L308.4,261h0l10.1-10.1-1.8-1.9Zm-8.3,15.5h0l-10.1,10.2,10.1,10.1h0l10.1-10.1-10.1-10.2Zm-184-132.9v21.7A356.5,356.5,0,0,0,195.9,206a440,440,0,0,0,62.2,28.9h22.2a509.4,509.4,0,0,1-85.7-45.3,422.5,422.5,0,0,1-70.2-58Zm0,25.1v78.2H251.2a439.9,439.9,0,0,1-56.5-26.7,371.4,371.4,0,0,1-70.3-51.5ZM99.9,131.5l-.7.8,10.1,10.1h0l10.2-10.1-.8-.8Zm20.1,3.7-8.9,8.9,8.9,9V135.2Zm-10.7,10.7h0L99.2,156l10.1,10.1h0L119.5,156l-10.2-10.1Zm-1.7-1.8-9-8.9v17.9l9-9Zm-9,90.8h4.9l-4.9-4.8v4.8Zm8.4,0h4.7l7.8-7.7-10.2-10.1h0L99.2,227.2l7.8,7.7Zm8.2,0H120v-4.8l-4.8,4.8Zm2.4,14.1H101.1l-1.9,1.9L109.3,261h0l10.2-10.1-1.9-1.9Zm-19-2.4h1.5l7.5-7.6-1.7-1.6H98.6v9.2Zm5,0h11.5l-5.8-5.8h0l-5.7,5.8Zm15,0H120v-9.2h-7.3l-1.6,1.6,7.5,7.6Zm1.4,25.1V253.8l-8.9,9,8.9,8.9Zm-12.4-8.9-9-9v18l9-9ZM120,224.3V206.4l-8.9,8.9,8.9,9Zm-12.4-9-9-8.9v17.9l9-9Zm1.7-1.7h0l10.2-10.1-10.2-10.2h0L99.2,203.5l10.1,10.1Zm10.7-13v-18l-8.9,9,8.9,9Zm-12.4-9-9-9v18l9-9Zm1.7-1.8h0l10.2-10.1-10.2-10.1h0L99.2,179.7l10.1,10.1Zm10.7-13V158.9l-8.9,9,8.9,8.9Zm-12.4-8.9-9-9v17.9l9-8.9Zm456.5-14h2.2v5.3h-2.2v-5.3Zm0,7.5h2.2V170h-2.2v-8.6Zm5.4-7.5h2.2v5.3h-2.2v-5.3Zm0,7.5h2.2V170h-2.2v-8.6Z"/><path class="cls-1" d="M2157.7,231.6h4v-6.4h5.2V202.6c-2.6,1.2-5.8-.4-8,3.6v-4.1c1.8-3.3,5.3-1.3,8-3.5v-1.1h.8v27.7h7.9v6.4h24.6v-9.2h16V347l8.9,16.1H2151l6.7-16.1V231.6Z"/><polygon class="cls-1" points="1844.9 350.7 1848.2 350.7 1848.2 273.4 1848.2 247.4 1876.8 247.4 1876.8 273.4 1898 273.4 1898 317.6 1922.8 317.6 1922.8 366.7 1844.9 366.7 1844.9 350.7 1844.9 350.7"/><polygon class="cls-1" points="1767 349.1 1770.3 349.1 1770.3 271.8 1770.3 245.9 1798.9 245.9 1798.9 271.8 1820.1 271.8 1820.1 316 1844.9 316 1844.9 365.1 1767 365.1 1767 349.1 1767 349.1"/><polygon class="cls-1" points="1401.7 344.9 1405 344.9 1405 267.6 1405 241.7 1433.6 241.7 1433.6 267.6 1454.8 267.6 1454.8 311.8 1479.6 311.8 1479.6 360.9 1401.7 360.9 1401.7 344.9 1401.7 344.9"/><polygon class="cls-1" points="2261 350.7 2264.3 350.7 2264.3 273.4 2264.3 247.4 2292.9 247.4 2292.9 273.4 2314.1 273.4 2314.1 317.6 2338.8 317.6 2338.8 366.7 2261 366.7 2261 350.7 2261 350.7"/><polygon class="cls-1" points="2377.6 349.1 2380.9 349.1 2380.9 271.8 2380.9 245.9 2409.5 245.9 2409.5 271.8 2430.7 271.8 2430.7 316 2455.5 316 2455.5 365.1 2377.6 365.1 2377.6 349.1 2377.6 349.1"/></svg>