<svg id="Layer_1" data-name="Layer 1" xmlns="http://www.w3.org/2000/svg" viewBox="0 0 2560 980"><defs><style>.cls-1{fill:#d1d3d4;fill-rule:evenodd;}</style></defs><title>skyline</title><polygon class="cls-1" points="1411.4 586.2 1448.6 586.2 1448.6 643.5 1471.5 643.5 1471.5 624.1 1478.6 624.1 1478.6 631.1 1504.4 631.1 1504.4 589.6 1542.5 589.6 1542.5 668.5 1547.8 668.5 1547.8 639.6 1562.1 639.6 1562.1 572.9 1587.3 572.9 1587.3 645.8 1604 645.8 1604 601 1630.2 601 1630.2 645.8 1630.2 663.5 1630.2 668.5 1641.2 668.5 1641.2 619.1 1665 619.1 1665 640.6 1679.8 640.6 1679.8 578.6 1713.7 578.6 1713.7 646.8 1743.2 646.8 1743.2 571.5 1777.5 571.5 1777.5 635.8 1799.5 635.8 1799.5 650 1777.5 650 1777.5 668.5 1825.2 668.5 1825.2 512.4 1832.4 512.4 1832.4 510.9 1841.4 510.9 1841.4 505.7 1842.4 505.7 1842.4 510.9 1862.4 510.9 1862.4 512.4 1865.7 512.4 1865.7 668.5 1916.7 668.5 1916.7 605.8 1948.6 605.8 1948.6 644.8 1978.6 644.8 1978.6 668.5 1985 668.5 1985 616.3 1997.7 616.3 1997.7 526.3 2019.4 526.3 2019.4 521.5 2031.4 521.5 2031.4 507.1 2034.5 507.1 2034.5 486.9 2036.6 486.9 2036.6 507.1 2036.6 521.5 2036.6 526.3 2042.6 526.3 2042.6 521.5 2042.6 507.1 2042.6 486.9 2044.8 486.9 2044.8 507.1 2047.8 507.1 2047.8 521.5 2059.8 521.5 2059.8 526.3 2076.4 526.3 2076.4 668.5 2111.8 668.5 2111.8 624.5 2134 624.5 2134 644 2160.6 644 2160.6 668.5 2213.1 668.5 2213.1 584.1 2211.5 584.1 2211.5 576.5 2215.4 576.5 2215.4 574.3 2220.3 574.3 2220.3 570.8 2233.2 570.8 2233.2 568.5 2262.6 568.5 2262.6 573.6 2261.5 573.6 2261.5 576.5 2263.1 576.5 2263.1 584.1 2261.1 584.1 2261.1 668.5 2329.2 668.5 2329.2 570.9 2358.4 570.9 2358.4 668.5 2370.8 668.5 2370.8 623 2389 623 2389 668.5 2428.8 668.5 2428.8 618.3 2442.1 618.3 2442.1 668.5 2450.3 668.5 2559.3 668.5 2567.6 668.5 2567.6 633.4 2577.6 633.4 2577.6 580.3 2596.2 580.3 2596.2 668.5 2602.1 668.5 2602.1 595.3 2639.5 595.3 2639.5 668.5 2652.2 668.5 2652.2 633.4 2659.3 633.4 2659.3 594.2 2684.6 594.2 2684.6 633.4 2723.1 633.4 2723.1 591.4 2743.2 591.4 2743.2 633.4 2746.1 633.4 2746.1 651.7 2768.9 651.7 2768.9 668.5 2773.2 668.5 2773.2 637.6 2788.6 637.6 2788.6 649 2798.2 649 2798.2 668.5 2801.7 668.5 2801.7 684.5 1401.7 684.5 1401.7 668.5 1411.4 668.5 1411.4 586.2 1411.4 586.2"/><path class="cls-1" d="M1.7,684.5h1400V616.1h-6V598.8h-3.3v-2.3h-3.9v2.3h-5.3v-6h-6v-2.6h-8.5v-4.6h-7v4.6h-2.6v2.6h-2v6h-6.2v17.3h-3v-8.8h-8.6v-6.9h-12.5v6.9h-14.2v-9.5h-24.4v9.5h-17.5V594.8h-12.5v-9.9h-24.4V557.6h-33.9v37.2h-5V609h-11.5V591.8h-35.6V607h-9.3V564.5h-6.9v-2h-10.9v2h-3.3v51.6h-7.9V604h-14.3v-2.3h.1V584.4h.4l-1.4-7-1.4,6.7V571h.7l-1.5-6.9-1.2,6h-.3v-5.6h-1v-9.4h.5l-2.8-13.9-2.8,13.9h.6v9.4h-1v5.6h-.4l-1.2-6-1.4,6.9h.6v13.3h-.2l-1.3-6.9-1.4,7h.6v5.8l-7-6.3-3.5,3.1h-5.5v-2.6h.4l-1.4-7-1.3,6.7V571h.6l-1.4-6.9-1.3,6h-.3v-5.6h-1v-9.4h.6l-2.9-13.9-2.8,13.9h.6v9.4h-1v5.6h-.3l-1.3-6-1.4,6.9h.6v13.3h-.1l-1.4-6.9-1.4,7h.6v8.9h-14V484.4h-8.6v-2.2h-6.7v2.2h-12.4V467.5h-.9v16.9H998v-3.8H985.6v3.8h-6.7V598.8h-3.7V547H953.4v61.3h-4.2V579.2H939.1v-238h-7.5V329.9H864.9v11.3h-7.5V591.7H824.7v24.4H808.5V567.2H797.8V480h-5.1v-2.6H756.6V480h-5V598.4h-9.2v17.7h-5.1l-6.6-7.9-11.6-90.6v-99L707.4,410l-5.9-79.8L695.6,410l-11.7,8.6v99l-11.6,90.6-6.5,7.9h-2.4V509.4h-2.3v-5.1h-5.6v-7.8H623.4v7.8h-5.6v5.1h-2.2v86.9h-6.2V608h-3.9V589.9h-3.2v-6h-9.6v6h-12v26.2h-3.2V603.7h-2.1V481.5h-1.7V461H559v20.5h-1.6V609.4h-2.3v6.7h-2.5V592.4h-9.5V460.1H460.8V565.4H452v33.2h-1.5v-8h-8.7v25.5h-1.5V580.3H428.9V560.6H417.4V514.4H391.7v32.4l-3.1-2.5-.4-.3H286.7q-50.1-20.6-90.7-47.4A415.1,415.1,0,0,1,124.4,437v-3.7H120v2.9H98.6v-2.9H94.3V437a415.1,415.1,0,0,1-71.6,59.6c-6.8,4.5-13.8,8.8-21,13.1v2.8c7.7-4.4,15.1-9.1,22.3-13.9a418.4,418.4,0,0,0,70.3-58v21.7A362.3,362.3,0,0,1,22.8,515c-6.9,3.9-13.9,7.6-21.1,11.2v2.7c7.6-3.7,15.1-7.6,22.3-11.7a367.1,367.1,0,0,0,70.3-51.5V544H1.7v2.4H8.5v9.2H1.7v2.5H94.3V592H85.2v10.3H70.5V593H58.8v9.3H31.7V578.1H5.4v38H1.7v68.4ZM361.2,580.7h8.6V558.1H354.6v18.6h6.6v4Zm-16.4-4V558.1H323.5v58h9.2V576.7Zm46.9-21.1V550l-4.3-3.6h-.2v9.2Zm-99.3,51.1h.9V558.1H124.4V592h6.2V568.6h19.7v41.7h5.2V588.4H173V575.2h21.3v35.1h11v5.8h10.2V573.7h35.2v27.1h19V569.3h22.7v37.4Zm6.6,0h12.4v7.8l7.1-7.1-10.1-10.1h0l-9.4,9.4ZM98.6,592h5.5l-5.5-5.4V592Zm9,0h3.5l8.4-8.3-10.2-10.2h0L99.2,583.7l8.4,8.3Zm7,0H120v-5.4l-5.4,5.4Zm204.5,24.1h-5.7l5.7-5.8v5.8ZM10.4,555.6h8v-9.2h-8v9.2Zm9.9,0h8v-9.2h-8v9.2Zm9.9,0h8v-9.2h-8v9.2Zm10,0h7.9v-9.2H40.2v9.2Zm9.9,0h8v-9.2h-8v9.2Zm9.9,0h8v-9.2H60v9.2Zm9.9,0h8v-9.2h-8v9.2Zm9.9,0h8v-9.2h-8v9.2Zm9.9,0h4.6v-9.2H89.7v9.2Zm39.7-9.2v9.2h8v-9.2Zm-1.9,9.2v-9.2h-3.1v9.2Zm11.8-9.2v9.2h8v-9.2Zm9.9,0v9.2h8v-9.2Zm9.9,0v9.2h8v-9.2Zm9.9,0v9.2h8v-9.2Zm10,0v9.2h7.9v-9.2Zm9.9,0v9.2h8v-9.2Zm9.9,0v9.2h8v-9.2Zm9.9,0v9.2h8v-9.2Zm9.9,0v9.2h8v-9.2Zm9.9,0v9.2h8v-9.2Zm9.9,0v9.2h8v-9.2Zm10,0v9.2h7.9v-9.2Zm9.9,0v9.2h8v-9.2Zm9.9,0v9.2h8v-9.2Zm9.9,0v9.2h8v-9.2Zm9.9,0v9.2h8v-9.2Zm9.9,0v9.2h8v-9.2Zm9.9,0v9.2h8v-9.2Zm10,0v9.2h7.9v-9.2Zm9.9,0v9.2h8v-9.2Zm9.9,0v9.2h8v-9.2Zm9.9,0v9.2h8v-9.2Zm9.9,0v9.2h8v-9.2Zm9.9,0v9.2h8v-9.2Zm9.9,0v9.2h8v-9.2Zm-79.5,58.1,9-9-9-8.9v17.9Zm0-23.7,9-9-9-9v18Zm21.4-18-8.9,9,8.9,9v-18Zm0,23.8-8.9,8.9,8.9,9V586.6Zm-2.4-28.5H300.2l-1.9,1.9,10.1,10.1h0L318.5,560l-1.8-1.9Zm-8.3,15.4h0l-10.1,10.2,10.1,10.1h0l10.1-10.1-10.1-10.2Zm-184-132.9v21.7A356.5,356.5,0,0,0,195.9,515a429.4,429.4,0,0,0,62.2,29h22.2a509.7,509.7,0,0,1-85.7-45.4,417.6,417.6,0,0,1-70.2-58Zm0,25.1V544H251.2a440.2,440.2,0,0,1-56.5-26.8,367.1,367.1,0,0,1-70.3-51.5ZM99.9,440.6l-.7.7,10.1,10.1h0l10.2-10.1-.8-.7Zm20.1,3.6-8.9,9,8.9,8.9V444.2Zm-10.7,10.7h0L99.2,465l10.1,10.2h0L119.5,465l-10.2-10.1Zm-1.7-1.7-9-9v17.9l9-8.9Zm-9,90.8h4.9l-4.9-4.9V544Zm8.4,0h4.7l7.8-7.8-10.2-10.1h0L99.2,536.2,107,544Zm8.2,0H120v-4.9l-4.8,4.9Zm2.4,14.1H101.1L99.2,560l10.1,10.1h0L119.5,560l-1.9-1.9Zm-19-2.5h1.5l7.5-7.5-1.7-1.7H98.6v9.2Zm5,0h11.5l-5.8-5.8h0l-5.7,5.8Zm15,0H120v-9.2h-7.3l-1.6,1.7,7.5,7.5Zm1.4,25.2v-18l-8.9,9,8.9,9Zm-12.4-9-9-9v18l9-9ZM120,533.3V515.4l-8.9,8.9,8.9,9Zm-12.4-9-9-8.9v17.9l9-9Zm1.7-1.7h0l10.2-10.1-10.2-10.1h0L99.2,512.5l10.1,10.1Zm10.7-13v-18l-8.9,9,8.9,9Zm-12.4-9-9-9v18l9-9Zm1.7-1.7h0l10.2-10.1-10.2-10.2h0L99.2,488.8l10.1,10.1Zm10.7-13v-18l-8.9,9,8.9,9Zm-12.4-9-9-9v18l9-9Zm456.5-14h2.2v5.3h-2.2v-5.3Zm0,7.5h2.2V479h-2.2v-8.6Zm5.4-7.5h2.2v5.3h-2.2v-5.3Zm0,7.5h2.2V479h-2.2v-8.6Z"/><path class="cls-1" d="M2157.7,540.6h4v-6.4h5.2V511.6c-2.6,1.3-5.8-.4-8,3.6v-4.1c1.8-3.3,5.3-1.3,8-3.4v-1.2h.8v27.7h7.9v6.4h24.6v-9.1h16V656l8.9,16.1H2151l6.7-16.1V540.6Z"/><polygon class="cls-1" points="1844.9 659.7 1848.2 659.7 1848.2 582.4 1848.2 556.5 1876.8 556.5 1876.8 582.4 1898 582.4 1898 626.6 1922.8 626.6 1922.8 675.7 1844.9 675.7 1844.9 659.7 1844.9 659.7"/><polygon class="cls-1" points="1767 658.2 1770.3 658.2 1770.3 580.9 1770.3 554.9 1798.9 554.9 1798.9 580.9 1820.1 580.9 1820.1 625.1 1844.9 625.1 1844.9 674.1 1767 674.1 1767 658.2 1767 658.2"/><polygon class="cls-1" points="1401.7 653.9 1405 653.9 1405 576.6 1405 550.7 1433.6 550.7 1433.6 576.6 1454.8 576.6 1454.8 620.8 1479.6 620.8 1479.6 669.9 1401.7 669.9 1401.7 653.9 1401.7 653.9"/><polygon class="cls-1" points="2261 659.7 2264.3 659.7 2264.3 582.4 2264.3 556.5 2292.9 556.5 2292.9 582.4 2314.1 582.4 2314.1 626.6 2338.8 626.6 2338.8 675.7 2261 675.7 2261 659.7 2261 659.7"/><polygon class="cls-1" points="2377.6 658.2 2380.9 658.2 2380.9 580.9 2380.9 554.9 2409.5 554.9 2409.5 580.9 2430.7 580.9 2430.7 625.1 2455.5 625.1 2455.5 674.1 2377.6 674.1 2377.6 658.2 2377.6 658.2"/></svg>
