<?xml version="1.0" encoding="utf-8"?>
<!-- Generator: Adobe Illustrator 16.0.0, SVG Export Plug-In . SVG Version: 6.00 Build 0)  -->
<!DOCTYPE svg PUBLIC "-//W3C//DTD SVG 1.1//EN" "http://www.w3.org/Graphics/SVG/1.1/DTD/svg11.dtd">
<svg version="1.1" id="Layer_1" xmlns="http://www.w3.org/2000/svg" xmlns:xlink="http://www.w3.org/1999/xlink" x="0px" y="0px"
	 width="3000px" height="500px" viewBox="0 0 3000 500" enable-background="new 0 0 3000 500" xml:space="preserve">
<path fill="#F1F1F2" d="M2816.07,418.675c4.983,0,8.924,0.979,12.735,1.922c3.788,0.943,7.699,1.91,12.612,1.91
	c4.916,0,8.83-0.967,12.612-1.91c3.814-0.943,7.755-1.922,12.741-1.922c0.504,0,1.002,0.006,1.482,0.029
	c3.645,0.229,7.354,1.148,10.368,1.893c3.782,0.943,7.699,1.91,12.612,1.91c4.916,0,8.83-0.967,12.612-1.91
	c3.814-0.943,7.752-1.922,12.741-1.922c0.381,0,0.759,0.003,1.128,0.018h0.053c4.983,0,9.337,1.242,13.148,2.191
	c3.782,0.938,7.699,1.907,12.612,1.907c4.916,0,8.83-0.97,12.612-1.907c3.814-0.949,7.755-1.925,12.741-1.925
	c4.98,0,8.924,0.976,12.738,1.925c0.299,0.076,0.598,0.149,0.902,0.223c0,0,7.693,1.913,12.609,1.913
	c4.919,0,10.354-1.192,14.139-2.127v12.656h-192.832L2816.07,418.675z"/>
<path fill="#F1F1F2" d="M2662.232,418.675c4.98,0,8.924,0.979,12.732,1.922c3.791,0.943,7.699,1.91,12.615,1.91
	s8.827-0.967,12.609-1.91c3.814-0.943,7.758-1.922,12.741-1.922c0.507,0,1.002,0.006,1.485,0.029
	c3.645,0.229,7.354,1.148,10.365,1.893c3.785,0.943,7.699,1.91,12.615,1.91s8.827-0.967,12.609-1.91
	c3.814-0.943,7.752-1.922,12.741-1.922c0.384,0,0.759,0.003,1.128,0.018h0.053c4.986,0,9.34,1.242,13.148,2.191
	c3.785,0.938,7.699,1.907,12.615,1.907s8.827-0.97,12.609-1.907c3.814-0.949,7.758-1.925,12.741-1.925s8.927,0.976,12.741,1.925
	c0.299,0.076,0.598,0.149,0.899,0.223c0,0,7.696,1.913,12.612,1.913s10.354-1.192,14.139-2.127v12.656h-192.832L2662.232,418.675z"
	/>
<path fill="#F1F1F2" d="M2507.281,418.675c4.98,0,8.924,0.979,12.732,1.922c3.791,0.943,7.699,1.91,12.615,1.91
	s8.827-0.967,12.609-1.91c3.814-0.943,7.758-1.922,12.741-1.922c0.507,0,1.002,0.006,1.485,0.029
	c3.645,0.229,7.354,1.148,10.365,1.893c3.785,0.943,7.699,1.91,12.615,1.91s8.827-0.967,12.609-1.91
	c3.814-0.943,7.752-1.922,12.741-1.922c0.384,0,0.759,0.003,1.128,0.018h0.053c4.986,0,9.34,1.242,13.148,2.191
	c3.785,0.938,7.699,1.907,12.615,1.907s8.827-0.97,12.609-1.907c3.814-0.949,7.758-1.925,12.741-1.925s8.927,0.976,12.741,1.925
	c0.299,0.076,0.598,0.149,0.899,0.223c0,0,7.696,1.913,12.612,1.913s10.354-1.192,14.139-2.127v12.656H2507.65L2507.281,418.675z"/>
<path fill="#F1F1F2" d="M2969.814,418.675c4.98,0,8.924,0.979,12.732,1.922c3.791,0.943,7.699,1.91,12.615,1.91
	s8.827-0.967,12.609-1.91c3.814-0.943,7.758-1.922,12.741-1.922c0.507,0,1.002,0.006,1.485,0.029
	c3.645,0.229,7.354,1.148,10.365,1.893c3.785,0.943,7.699,1.91,12.615,1.91s8.827-0.967,12.609-1.91
	c3.814-0.943,7.752-1.922,12.741-1.922c0.384,0,0.759,0.003,1.128,0.018h0.053c2.133,0,4.148,0.229,6.059,0.557
	c2.552,0.448,4.907,1.09,7.09,1.635c3.785,0.938,7.699,1.907,12.615,1.907s8.827-0.97,12.609-1.907
	c0.803-0.199,1.605-0.396,2.423-0.589v13.254h-34.453h-107.669L2969.814,418.675z"/>
<g>
	<path fill-rule="evenodd" clip-rule="evenodd" fill="#F1F2F2" stroke="#F1F2F2" stroke-width="1.125" stroke-miterlimit="10" d="
		M2507.281,263.797v-3.041h-113.798V124.71h-5.361v3.577h-26.353v-3.577h-5.358v136.046h-323.851l-4.84,0.044v-36.422h-31.518
		v56.777h-14.115v24.293h-14.051v43.972h-1.822v-31.377h-10.796v9.932h-1.793v-40.831h-10.778V157.628h-101.227V320.29h-11.719
		v29.13h-3.053v-8.2l-29.561-0.22l-0.073,8.42h-1.79v-32.203h-14.836v-7.421h-11.771v7.421h-3.932v22.289h-4.799v-14.435h-7.559
		V218.305h-2.766v-6.372h-6.891v-9.536h-39.475v9.536h-6.891v6.372h-2.757V349.42h-2.974l-8.045-9.642l-14.244-111.439v-121.77
		l-14.373-10.541l-7.277-98.109l-7.271,98.109l-14.379,10.541v121.77l-14.244,111.439l-8.039,9.642h-6.293v-21.718h-11.282V182.164
		h-6.19v-3.278h-44.455v3.278h-6.182v107.177h-13.131v60.079h-19.928v-29.988h-40.248V11.419h-9.275V-2.494h-81.949v13.913h-9.264
		v292.605h-12.346v35.851h-5.15v-75.407h-26.856v63.647h-4.603V187.481h-8.191v-4.676h-15.24v4.676h-8.479V166.73h-1.16v20.751
		h-15.237v-2.725h-8.191v2.725h-10.632v133.989h-17.156v-11.013h0.773l-1.743-8.555l-1.69,8.414h-0.226v-16.307h0.756l-1.726-8.54
		l-1.506,7.453h-0.425v-6.891h-1.245v-11.602h0.7l-3.448-17.086l-3.445,17.086h0.691v11.602h-1.248v6.891h-0.422l-1.506-7.453
		l-1.729,8.54h0.756v16.087l-1.638-8.194l-1.726,8.555h0.495v3.173h-6.806l-4.233-3.835l-8.616,7.816v-7.154h0.762l-1.729-8.555
		l-1.699,8.414h-0.223v-16.307h0.768l-1.74-8.54l-1.497,7.453h-0.425v-6.891h-1.23v-11.602h0.691l-3.451-17.086l-3.445,17.086h0.688
		v11.602h-1.245v6.891h-0.41l-1.509-7.453l-1.726,8.54h0.756v16.087l-1.664-8.194l-1.723,8.555h0.492v21.243h0.059v2.909h-17.555
		v14.81h-9.735v-63.431h-4.063v-2.455h-13.377v2.455h-8.508v52.286h-11.35v-18.65h-43.781v21.103h-14.191v-17.481h-6.07v-45.791
		h-41.754v33.671h-7.078l2.52,122.423h1519.465v-27.155h-113.678l-0.12-128.297h113.798v-3.032h-8.35v-11.268H2507.281z
		 M2340.465,263.797h9.812v11.268h-9.812V263.797z M2328.271,263.797h9.809v11.268h-9.809V263.797z M2316.084,263.797h9.814v11.268
		h-9.814V263.797z M2303.896,263.797h9.814v11.268h-9.814V263.797z M2291.709,263.797h9.809v11.268h-9.809V263.797z
		 M2279.51,263.797h9.814v11.268h-9.814V263.797z M2267.322,263.797h9.812v11.268h-9.812V263.797z M2255.141,263.797h9.809v11.268
		h-9.809V263.797z M2242.947,263.797h9.814v11.268h-9.814V263.797z M2230.76,263.797h9.809v11.268h-9.809V263.797z
		 M2218.566,263.797h9.809v11.268h-9.809V263.797z M2206.382,263.797h9.812v11.268h-9.812V263.797z M2194.197,263.797h9.809v11.268
		h-9.809V263.797z M2181.998,263.797h9.82v11.268h-9.82V263.797z M2169.805,263.797h9.809v11.268h-9.809V263.797z M2157.62,263.797
		h9.806v11.268h-9.806V263.797z M2133.239,263.797h9.812v11.268h-9.812V263.797z M2121.043,263.797h9.82v11.268h-9.82V263.797z
		 M2140.297,278.097l2.309,2.329l-12.439,12.419l-12.445-12.419l2.314-2.329H2140.297z M2117.721,309.597l12.445-12.469
		l12.439,12.469l-12.439,12.437L2117.721,309.597z M2128.016,324.178l-11.021,11.03v-22.084L2128.016,324.178z M2116.994,306.011
		v-22.037l11.021,10.998L2116.994,306.011z M2108.867,263.797h9.803v11.268h-9.803V263.797z M2096.677,263.797h9.809v11.268h-9.809
		V263.797z M2060.097,263.797h9.812v11.268h-9.812V263.797z M2033.346,275.064h-5.399l-0.038-11.2l5.438-0.067V275.064z
		 M2045.527,275.064h-9.803v-11.268h9.803V275.064z M2047.906,263.797h9.817v11.268h-9.817V263.797z M2073.436,300.939h-8.191v4.922
		h-10.535v-27.765h18.727V300.939z M2082.104,275.064h-9.817v-11.268h9.817V275.064z M2084.48,263.797h9.82v11.268h-9.82V263.797z
		 M2111.633,349.42h-11.279v-48.48h-14.947v-22.843h26.227V349.42z M2116.994,349.42v-7.102l7.078,7.102H2116.994z
		 M2126.463,337.871v9.642l-8.742-8.748l12.445-12.445l11.537,11.552H2126.463z M2143.347,335.208l-11.039-11.03l11.039-11.054
		V335.208z M2143.347,306.028l-11.039-11.057l11.039-10.998V306.028z M2145.424,263.797h9.82v11.268h-9.82V263.797z
		 M2355.869,342.468l-31.348-0.111h-67.518l-108.123-0.211l-0.176-64.049h207.706L2355.869,342.468z M2356.411,275.064h-3.759
		v-11.268h3.759V275.064z M2363.39,133.646h23.112l0.885,0.864l-12.445,12.445h-0.003l-12.431-12.445L2363.39,133.646z
		 M2367.852,275.064l7.087-7.11h0.003l7.096,7.11H2367.852z M2385.066,278.097l2.32,2.329l-12.445,12.419h-0.003l-12.431-12.419
		l2.303-2.329H2385.066z M2372.035,260.756l-9.527-9.519l12.431-12.437h0.003l12.445,12.437l-9.53,9.519H2372.035z
		 M2374.938,234.512l-12.431-12.454l12.431-12.437h0.003l12.445,12.437l-12.445,12.454H2374.938z M2374.938,205.314l-12.431-12.419
		l12.431-12.457h0.003l12.445,12.457l-12.445,12.419H2374.938z M2374.938,176.144l-12.431-12.463l12.431-12.404h0.003l12.445,12.404
		l-12.445,12.463H2374.938z M2361.77,138.096l11.027,11.021l-11.027,11.024V138.096z M2361.77,167.275l11.027,11.013l-11.027,11.048
		V167.275z M2361.77,196.429l11.027,11.039l-11.027,11.027V196.429z M2361.77,225.632l11.027,11.004l-11.027,11.045V225.632z
		 M2361.77,254.776l5.977,5.979h-5.977V254.776z M2361.77,263.797h9.006l2.021,2.004l-9.234,9.264h-1.793V263.797z M2361.77,283.974
		l11.027,10.998l-11.027,11.039V283.974z M2361.77,319.871v-6.747l6.715,6.747H2361.77z M2372.776,319.871l-10.269-10.274
		l12.431-12.469h0.003l12.445,12.469l-10.269,10.274H2372.776z M2388.122,319.871h-6.715l6.715-6.747V319.871z M2388.122,306.028
		l-11.03-11.057l11.03-10.998V306.028z M2388.122,275.064h-1.796l-9.234-9.264l2.027-2.004h9.003V275.064z M2388.122,260.756h-5.974
		l5.974-5.979V260.756z M2388.122,247.681l-11.03-11.045l11.03-11.004V247.681z M2388.122,218.507l-11.03-11.039l11.03-11.039
		V218.507z M2388.122,189.336l-11.03-11.048l11.03-11.013V189.336z M2388.122,160.142l-11.03-11.024l11.03-11.021V160.142z
		 M2399.035,275.064h-5.552v-11.268h5.552V275.064z M2411.223,275.064h-9.812v-11.268h9.812V275.064z M2423.416,275.064h-9.82
		v-11.268h9.82V275.064z M2435.609,275.064h-9.82v-11.268h9.82V275.064z M2447.803,275.064h-9.826v-11.268h9.826V275.064z
		 M2459.984,275.064h-9.809v-11.268h9.809V275.064z M2472.172,275.064h-9.809v-11.268h9.809V275.064z M2484.365,275.064h-9.809
		v-11.268h9.809V275.064z M2496.553,275.064h-9.814v-11.268h9.814V275.064z"/>
	
		<rect x="1798.789" y="207.649" fill-rule="evenodd" clip-rule="evenodd" fill="#F1F2F2" stroke="#F1F2F2" stroke-width="1.125" stroke-miterlimit="10" width="26.842" height="133.641"/>
	
		<rect x="1800.787" y="192.515" fill-rule="evenodd" clip-rule="evenodd" fill="#F1F2F2" stroke="#F1F2F2" stroke-width="1.125" stroke-miterlimit="10" width="23.13" height="15.135"/>
	<g>
		
			<rect x="1801.502" y="180.811" fill-rule="evenodd" clip-rule="evenodd" fill="#F1F2F2" stroke="#F1F2F2" stroke-width="1.125" stroke-miterlimit="10" width="21.697" height="12.565"/>
		<g>
			
				<rect x="1817.026" y="186.948" fill-rule="evenodd" clip-rule="evenodd" fill="#F1F2F2" stroke="#F1F2F2" stroke-width="0.2812" stroke-miterlimit="10" width="4.427" height="4.998"/>
			<path fill-rule="evenodd" clip-rule="evenodd" fill="#F1F2F2" stroke="#F1F2F2" stroke-width="1.125" stroke-miterlimit="10" d="
				M1816.865,187.446c0,1.312,1.061,2.379,2.376,2.379s2.373-1.066,2.373-2.379c0-1.31-1.058-2.379-2.373-2.379
				S1816.865,186.137,1816.865,187.446z"/>
		</g>
		<g>
			
				<rect x="1810.139" y="186.948" fill-rule="evenodd" clip-rule="evenodd" fill="#F1F2F2" stroke="#F1F2F2" stroke-width="0.2812" stroke-miterlimit="10" width="4.424" height="4.998"/>
			<path fill-rule="evenodd" clip-rule="evenodd" fill="#F1F2F2" stroke="#F1F2F2" stroke-width="1.125" stroke-miterlimit="10" d="
				M1809.975,187.446c0,1.312,1.061,2.379,2.376,2.379s2.376-1.066,2.376-2.379c0-1.31-1.061-2.379-2.376-2.379
				S1809.975,186.137,1809.975,187.446z"/>
		</g>
		<g>
			
				<rect x="1803.245" y="186.948" fill-rule="evenodd" clip-rule="evenodd" fill="#F1F2F2" stroke="#F1F2F2" stroke-width="0.2812" stroke-miterlimit="10" width="4.43" height="4.998"/>
			<path fill-rule="evenodd" clip-rule="evenodd" fill="#F1F2F2" stroke="#F1F2F2" stroke-width="1.125" stroke-miterlimit="10" d="
				M1803.084,187.446c0,1.312,1.061,2.379,2.376,2.379s2.376-1.066,2.376-2.379c0-1.31-1.061-2.379-2.376-2.379
				S1803.084,186.137,1803.084,187.446z"/>
		</g>
	</g>
	
		<rect x="1830.488" y="36.6" fill-rule="evenodd" clip-rule="evenodd" fill="#F1F2F2" stroke="#F1F2F2" stroke-width="1.125" stroke-miterlimit="10" width="70.816" height="346.377"/>
	<path fill-rule="evenodd" clip-rule="evenodd" fill="#F1F2F2" stroke="#F1F2F2" stroke-width="1.125" stroke-miterlimit="10" d="
		M1901.299,38.313c0,0,2.643-88.641-10.603-184.471h-49.222c-13.248,95.83-10.6,184.471-10.6,184.471"/>
	<path fill-rule="evenodd" clip-rule="evenodd" fill="#F1F2F2" stroke="#F1F2F2" stroke-width="1.125" stroke-miterlimit="10" d="
		M1646.979,365.015c0,37.852,70.957,68.534,158.481,68.534c87.53,0,158.484-30.683,158.484-68.534
		c0-37.849-70.954-68.531-158.484-68.531C1717.936,296.483,1646.979,327.166,1646.979,365.015z"/>
	<g>
		
			<rect x="2257.59" y="315.966" fill-rule="evenodd" clip-rule="evenodd" fill="#F1F2F2" stroke="#F1F2F2" stroke-width="1.125" stroke-miterlimit="10" width="37.582" height="114.032"/>
		
			<rect x="2262.57" y="309.538" fill-rule="evenodd" clip-rule="evenodd" fill="#F1F2F2" stroke="#F1F2F2" stroke-width="1.125" stroke-miterlimit="10" width="27.624" height="4.655"/>
		
			<rect x="2263.373" y="304.93" fill-rule="evenodd" clip-rule="evenodd" fill="#F1F2F2" stroke="#F1F2F2" stroke-width="1.125" stroke-miterlimit="10" width="26.016" height="3.858"/>
		
			<rect x="2265.781" y="288.122" fill-rule="evenodd" clip-rule="evenodd" fill="#F1F2F2" stroke="#F1F2F2" stroke-width="1.125" stroke-miterlimit="10" width="21.199" height="15.577"/>
		
			<rect x="2271.383" y="270.986" fill-rule="evenodd" clip-rule="evenodd" fill="#F1F2F2" stroke="#F1F2F2" stroke-width="1.125" stroke-miterlimit="10" width="10.002" height="14.273"/>
		
			<line fill-rule="evenodd" clip-rule="evenodd" fill="#F1F2F2" stroke="#F1F2F2" stroke-width="1.125" stroke-miterlimit="10" x1="2276.381" y1="222.075" x2="2276.381" y2="249.383"/>
		<path fill-rule="evenodd" clip-rule="evenodd" fill="#F1F2F2" stroke="#F1F2F2" stroke-width="1.125" stroke-miterlimit="10" d="
			M2266.438,238.098c3.211-0.483,5.139-3.05,5.139-3.05c1.529-2.654,4.096-2.971,4.096-2.971v-8.15c0,0-2.566,0.319-4.096,2.971
			c0,0-1.928,2.569-5.139,3.053V238.098z"/>
		<path fill-rule="evenodd" clip-rule="evenodd" fill="#F1F2F2" stroke="#F1F2F2" stroke-width="1.125" stroke-miterlimit="10" d="
			M2271.702,257.337c0-4.459,2.812-5.865,2.812-5.865c0-1.685,1.726-2.332,1.726-2.332h0.281c0,0,1.729,0.647,1.729,2.332
			c0,0,2.812,1.406,2.812,5.865H2271.702z"/>
		
			<line fill-rule="evenodd" clip-rule="evenodd" fill="#F1F2F2" stroke="#F1F2F2" stroke-width="1.125" stroke-miterlimit="10" x1="2296.408" y1="356.012" x2="2256.356" y2="356.012"/>
		
			<line fill-rule="evenodd" clip-rule="evenodd" fill="#F1F2F2" stroke="#F1F2F2" stroke-width="2.25" stroke-miterlimit="10" x1="2297.475" y1="346.59" x2="2255.287" y2="346.59"/>
		
			<line fill-rule="evenodd" clip-rule="evenodd" fill="#F1F2F2" stroke="#F1F2F2" stroke-width="2.25" stroke-miterlimit="10" x1="2296.73" y1="347.873" x2="2256.037" y2="347.873"/>
		
			<line fill-rule="evenodd" clip-rule="evenodd" fill="#F1F2F2" stroke="#F1F2F2" stroke-width="2.25" stroke-miterlimit="10" x1="2297.475" y1="320.029" x2="2255.287" y2="320.029"/>
		
			<line fill-rule="evenodd" clip-rule="evenodd" fill="#F1F2F2" stroke="#F1F2F2" stroke-width="2.25" stroke-miterlimit="10" x1="2296.73" y1="321.315" x2="2256.037" y2="321.315"/>
		
			<line fill-rule="evenodd" clip-rule="evenodd" fill="#F1F2F2" stroke="#F1F2F2" stroke-width="2.25" stroke-miterlimit="10" x1="2297.475" y1="314.466" x2="2255.287" y2="314.466"/>
		
			<line fill-rule="evenodd" clip-rule="evenodd" fill="#F1F2F2" stroke="#F1F2F2" stroke-width="2.25" stroke-miterlimit="10" x1="2296.73" y1="315.749" x2="2256.037" y2="315.749"/>
		
			<line fill-rule="evenodd" clip-rule="evenodd" fill="#F1F2F2" stroke="#F1F2F2" stroke-width="2.25" stroke-miterlimit="10" x1="2290.789" y1="309.324" x2="2261.979" y2="309.324"/>
		
			<line fill-rule="evenodd" clip-rule="evenodd" fill="#F1F2F2" stroke="#F1F2F2" stroke-width="2.25" stroke-miterlimit="10" x1="2290.142" y1="304.341" x2="2262.623" y2="304.341"/>
		
			<line fill-rule="evenodd" clip-rule="evenodd" fill="#F1F2F2" stroke="#F1F2F2" stroke-width="2.25" stroke-miterlimit="10" x1="2288.158" y1="287.478" x2="2264.604" y2="287.478"/>
		<g>
			<path fill-rule="evenodd" clip-rule="evenodd" fill="#F1F2F2" stroke="#F1F2F2" stroke-width="1.125" stroke-miterlimit="10" d="
				M2257.777,310.607c0,0.683,0.548,1.23,1.23,1.23l0,0c0.674,0,1.23-0.548,1.23-1.23l0,0c0-0.683-0.557-1.23-1.23-1.23l0,0
				C2258.325,309.377,2257.777,309.925,2257.777,310.607L2257.777,310.607z"/>
			
				<line fill-rule="evenodd" clip-rule="evenodd" fill="#F1F2F2" stroke="#F1F2F2" stroke-width="2.25" stroke-miterlimit="10" x1="2260.666" y1="313.335" x2="2257.344" y2="313.335"/>
			
				<line fill-rule="evenodd" clip-rule="evenodd" fill="#F1F2F2" stroke="#F1F2F2" stroke-width="1.125" stroke-miterlimit="10" x1="2260.051" y1="312.427" x2="2257.965" y2="312.427"/>
		</g>
		<g>
			<path fill-rule="evenodd" clip-rule="evenodd" fill="#F1F2F2" stroke="#F1F2F2" stroke-width="1.125" stroke-miterlimit="10" d="
				M2291.656,310.607c0,0.683,0.551,1.23,1.23,1.23l0,0c0.68,0,1.23-0.548,1.23-1.23l0,0c0-0.683-0.551-1.23-1.23-1.23l0,0
				C2292.207,309.377,2291.656,309.925,2291.656,310.607L2291.656,310.607z"/>
			
				<line fill-rule="evenodd" clip-rule="evenodd" fill="#F1F2F2" stroke="#F1F2F2" stroke-width="2.25" stroke-miterlimit="10" x1="2294.545" y1="313.335" x2="2291.229" y2="313.335"/>
			
				<line fill-rule="evenodd" clip-rule="evenodd" fill="#F1F2F2" stroke="#F1F2F2" stroke-width="1.125" stroke-miterlimit="10" x1="2293.93" y1="312.427" x2="2291.844" y2="312.427"/>
		</g>
		<g>
			<path fill-rule="evenodd" clip-rule="evenodd" fill="#F1F2F2" stroke="#F1F2F2" stroke-width="1.125" stroke-miterlimit="10" d="
				M2263.88,301.962c0,0.34,0.278,0.615,0.615,0.615l0,0c0.337,0,0.615-0.275,0.615-0.615l0,0c0-0.337-0.278-0.618-0.615-0.618l0,0
				C2264.158,301.344,2263.88,301.625,2263.88,301.962L2263.88,301.962z"/>
			
				<line fill-rule="evenodd" clip-rule="evenodd" fill="#F1F2F2" stroke="#F1F2F2" stroke-width="2.25" stroke-miterlimit="10" x1="2265.324" y1="303.33" x2="2263.666" y2="303.33"/>
			
				<line fill-rule="evenodd" clip-rule="evenodd" fill="#F1F2F2" stroke="#F1F2F2" stroke-width="1.125" stroke-miterlimit="10" x1="2265.02" y1="302.873" x2="2263.971" y2="302.873"/>
		</g>
		<g>
			<path fill-rule="evenodd" clip-rule="evenodd" fill="#F1F2F2" stroke="#F1F2F2" stroke-width="1.125" stroke-miterlimit="10" d="
				M2287.666,302.073c0,0.343,0.275,0.615,0.615,0.615l0,0c0.34,0,0.615-0.272,0.615-0.615l0,0c0-0.34-0.275-0.615-0.615-0.615l0,0
				C2287.941,301.458,2287.666,301.733,2287.666,302.073L2287.666,302.073z"/>
			
				<line fill-rule="evenodd" clip-rule="evenodd" fill="#F1F2F2" stroke="#F1F2F2" stroke-width="2.25" stroke-miterlimit="10" x1="2289.107" y1="303.438" x2="2287.449" y2="303.438"/>
			
				<line fill-rule="evenodd" clip-rule="evenodd" fill="#F1F2F2" stroke="#F1F2F2" stroke-width="1.125" stroke-miterlimit="10" x1="2288.803" y1="302.987" x2="2287.76" y2="302.987"/>
		</g>
		<g>
			
				<line fill-rule="evenodd" clip-rule="evenodd" fill="#F1F2F2" stroke="#F1F2F2" stroke-width="1.125" stroke-miterlimit="10" x1="2275.479" y1="259.104" x2="2275.479" y2="268.42"/>
			
				<line fill-rule="evenodd" clip-rule="evenodd" fill="#F1F2F2" stroke="#F1F2F2" stroke-width="1.125" stroke-miterlimit="10" x1="2271.86" y1="259.104" x2="2271.86" y2="268.42"/>
			
				<line fill-rule="evenodd" clip-rule="evenodd" fill="#F1F2F2" stroke="#F1F2F2" stroke-width="1.125" stroke-miterlimit="10" x1="2273.671" y1="259.104" x2="2273.671" y2="268.42"/>
			
				<line fill-rule="evenodd" clip-rule="evenodd" fill="#F1F2F2" stroke="#F1F2F2" stroke-width="1.125" stroke-miterlimit="10" x1="2277.289" y1="259.104" x2="2277.289" y2="268.42"/>
			
				<line fill-rule="evenodd" clip-rule="evenodd" fill="#F1F2F2" stroke="#F1F2F2" stroke-width="1.125" stroke-miterlimit="10" x1="2280.904" y1="259.104" x2="2280.904" y2="268.42"/>
			
				<line fill-rule="evenodd" clip-rule="evenodd" fill="#F1F2F2" stroke="#F1F2F2" stroke-width="1.125" stroke-miterlimit="10" x1="2279.1" y1="259.104" x2="2279.1" y2="268.42"/>
		</g>
		
			<line fill-rule="evenodd" clip-rule="evenodd" fill="#F1F2F2" stroke="#F1F2F2" stroke-width="1.125" stroke-miterlimit="10" x1="2281.402" y1="258.778" x2="2271.365" y2="258.778"/>
		
			<line fill-rule="evenodd" clip-rule="evenodd" fill="#F1F2F2" stroke="#F1F2F2" stroke-width="2.25" stroke-miterlimit="10" x1="2282.141" y1="257.87" x2="2270.627" y2="257.87"/>
		
			<line fill-rule="evenodd" clip-rule="evenodd" fill="#F1F2F2" stroke="#F1F2F2" stroke-width="1.125" stroke-miterlimit="10" x1="2283.09" y1="270.986" x2="2283.09" y2="285.26"/>
		
			<line fill-rule="evenodd" clip-rule="evenodd" fill="#F1F2F2" stroke="#F1F2F2" stroke-width="1.125" stroke-miterlimit="10" x1="2270.24" y1="270.986" x2="2270.24" y2="285.26"/>
		
			<rect x="2267.729" y="268.42" fill-rule="evenodd" clip-rule="evenodd" fill="#F1F2F2" stroke="#F1F2F2" stroke-width="1.125" stroke-miterlimit="10" width="17.306" height="1.884"/>
		
			<rect x="2268.752" y="270.195" fill-rule="evenodd" clip-rule="evenodd" fill="#F1F2F2" stroke="#F1F2F2" stroke-width="1.125" stroke-miterlimit="10" width="15.258" height="1.248"/>
		
			<rect x="2267.146" y="285.26" fill-rule="evenodd" clip-rule="evenodd" fill="#F1F2F2" stroke="#F1F2F2" stroke-width="1.125" stroke-miterlimit="10" width="18.475" height="1.661"/>
	</g>
	
		<polyline fill-rule="evenodd" clip-rule="evenodd" fill="#F1F2F2" stroke="#F1F2F2" stroke-width="1.125" stroke-miterlimit="10" points="
		2222.838,343.288 2276.117,333.298 2280.066,333.298 2333.346,343.288 	"/>
	<path fill="#F1F2F2" stroke="#F1F2F2" stroke-width="1.125" stroke-miterlimit="10" d="M2963.703,278.021h171.352l-0.07-3.035
		h-6.686v-11.259h6.756v-3.044h-171.352V124.64h-5.35v3.568h-26.361v-3.568h-5.361v136.043h-113.795v3.044h8.35v11.259h-8.35v3.035
		h113.795l-0.111,150.8l37.919-0.325l-0.19-86.104L2963.703,278.021z M3116.117,263.727h9.809v11.259h-9.809V263.727z
		 M3103.924,263.727h9.809v11.259h-9.809V263.727z M3091.742,263.727h9.809v11.259h-9.809V263.727z M3079.549,263.727h9.814v11.259
		h-9.814V263.727z M3067.355,263.727h9.814v11.259h-9.814V263.727z M3055.168,263.727h9.814v11.259h-9.814V263.727z
		 M3042.98,263.727h9.82v11.259h-9.82V263.727z M3030.793,263.727h9.814v11.259h-9.814V263.727z M3018.597,263.727h9.812v11.259
		h-9.812V263.727z M3006.406,263.727h9.814v11.259h-9.814V263.727z M2994.216,263.727h9.823v11.259h-9.823V263.727z
		 M2982.034,263.727h9.812v11.259h-9.812V263.727z M2969.844,263.727h9.814v11.259h-9.814V263.727z M2963.703,263.727h3.762v11.259
		h-3.762V263.727z M2833.379,274.985h-9.812v-11.259h9.812V274.985z M2845.561,274.985h-9.809v-11.259h9.809V274.985z
		 M2857.754,274.985h-9.809v-11.259h9.809V274.985z M2869.941,274.985h-9.809v-11.259h9.809V274.985z M2882.138,274.985h-9.823
		v-11.259h9.823V274.985z M2894.328,274.985h-9.817v-11.259h9.817V274.985z M2906.521,274.985h-9.82v-11.259h9.82V274.985z
		 M2918.703,274.985h-9.812v-11.259h9.812V274.985z M2926.631,274.985h-5.543v-11.259h5.543V274.985z M2933.621,133.569h23.104
		l0.891,0.867l-12.434,12.448h-0.009l-12.442-12.448L2933.621,133.569z M2938.08,274.985l7.093-7.107h0.009l7.09,7.107H2938.08z
		 M2955.307,278.021l2.309,2.332l-12.434,12.416h-0.009l-12.442-12.416l2.317-2.332H2955.307z M2942.258,260.683l-9.527-9.521
		l12.442-12.431h0.009l12.434,12.431l-9.527,9.521H2942.258z M2945.173,234.438l-12.442-12.451l12.442-12.437h0.009l12.434,12.437
		l-12.434,12.451H2945.173z M2945.173,205.235l-12.442-12.41l12.442-12.463h0.009l12.434,12.463l-12.434,12.41H2945.173z
		 M2945.173,176.067l-12.442-12.463l12.442-12.404h0.009l12.434,12.404l-12.434,12.463H2945.173z M2931.992,138.025l11.036,11.019
		l-11.036,11.024V138.025z M2931.992,167.205l11.036,11.007l-11.036,11.054V167.205z M2931.992,196.353l11.036,11.039
		l-11.036,11.039V196.353z M2931.992,225.556l11.036,11.004l-11.036,11.048V225.556z M2931.992,254.7l5.977,5.982h-5.977V254.7z
		 M2931.992,263.727h9.012l2.024,2.001l-9.237,9.258h-1.799V263.727z M2931.992,283.897l11.036,11.004l-11.036,11.057V283.897z
		 M2931.992,319.798v-6.747l6.715,6.747H2931.992z M2942.996,319.798l-10.266-10.271l12.442-12.472h0.009l12.434,12.472
		l-10.277,10.271H2942.996z M2958.354,319.798h-6.715l6.715-6.747V319.798z M2958.354,305.94l-11.036-11.039l11.036-11.004V305.94z
		 M2958.354,274.985h-1.793l-9.243-9.258l2.024-2.001h9.012V274.985z M2958.354,260.683h-5.977l5.977-5.982V260.683z
		 M2958.354,247.607l-11.036-11.048l11.036-11.004V247.607z M2958.354,218.419l-11.036-11.027l11.036-11.039V218.419z
		 M2958.354,189.266l-11.036-11.054l11.036-11.007V189.266z M2958.354,160.068l-11.036-11.024l11.036-11.019V160.068z"/>
	<path fill-rule="evenodd" clip-rule="evenodd" fill="#F1F2F2" stroke="#F1F2F2" stroke-width="1.125" stroke-miterlimit="10" d="
		M2888.129,407.038"/>
	<g>
		<path fill-rule="evenodd" clip-rule="evenodd" fill="#F1F2F2" stroke="#F1F2F2" stroke-width="1.125" stroke-miterlimit="10" d="
			M2007.43,260.026h-97.553v17.341h97.793L2007.43,260.026z M1922.111,274.335h-9.814v-11.268h9.814V274.335z M1934.299,274.335
			h-9.82v-11.268h9.82V274.335z M1946.492,274.335h-9.814v-11.268h9.814V274.335z M1958.686,274.335h-9.823v-11.268h9.823V274.335z
			 M1970.867,274.335h-9.809v-11.268h9.809V274.335z M1983.055,274.335h-9.809v-11.268h9.809V274.335z M1995.248,274.335h-9.809
			v-11.268h9.809V274.335z M1997.624,263.067h9.812v11.268h-9.812"/>
		
			<polyline fill-rule="evenodd" clip-rule="evenodd" fill="#F1F2F2" stroke="#F1F2F2" stroke-width="1.125" stroke-miterlimit="10" points="
			2007.31,277.367 2018.012,277.367 2018.012,274.335 2009.662,274.335 2009.662,263.067 2018.012,263.067 2018.012,260.026 
			2007.43,260.026 		"/>
	</g>
	<g>
		<path fill-rule="evenodd" clip-rule="evenodd" fill="#F1F2F2" stroke="#F1F2F2" stroke-width="1.125" stroke-miterlimit="10" d="
			M2604.834,260.618h-97.553v17.338h97.793L2604.834,260.618z M2519.516,274.924h-9.82v-11.259h9.82V274.924z M2531.703,274.924
			h-9.82v-11.259h9.82V274.924z M2543.896,274.924h-9.82v-11.259h9.82V274.924z M2556.09,274.924h-9.82v-11.259h9.82V274.924z
			 M2568.271,274.924h-9.814v-11.259h9.814V274.924z M2580.459,274.924h-9.806v-11.259h9.806V274.924z M2592.646,274.924h-9.803
			v-11.259h9.803V274.924z M2595.031,263.665h9.809v11.259h-9.809"/>
		
			<polyline fill-rule="evenodd" clip-rule="evenodd" fill="#F1F2F2" stroke="#F1F2F2" stroke-width="1.125" stroke-miterlimit="10" points="
			2604.717,277.956 2615.41,277.956 2615.41,274.924 2607.061,274.924 2607.061,263.665 2615.41,263.665 2615.41,260.618 
			2604.834,260.618 		"/>
	</g>
	<g>
		<path fill-rule="evenodd" clip-rule="evenodd" fill="#F1F2F2" stroke="#F1F2F2" stroke-width="1.125" stroke-miterlimit="10" d="
			M2712.966,260.618h-97.556v17.338h97.799L2712.966,260.618z M2627.645,274.924h-9.814v-11.259h9.814V274.924z M2639.838,274.924
			h-9.823v-11.259h9.823V274.924z M2652.031,274.924h-9.82v-11.259h9.82V274.924z M2664.222,274.924h-9.823v-11.259h9.823V274.924z
			 M2676.403,274.924h-9.809v-11.259h9.809V274.924z M2688.588,274.924h-9.803v-11.259h9.803V274.924z M2700.784,274.924h-9.806
			v-11.259h9.806V274.924z M2703.16,263.665h9.809v11.259h-9.809"/>
		
			<polyline fill-rule="evenodd" clip-rule="evenodd" fill="#F1F2F2" stroke="#F1F2F2" stroke-width="1.125" stroke-miterlimit="10" points="
			2712.846,277.956 2723.548,277.956 2723.548,274.924 2715.198,274.924 2715.198,263.665 2723.548,263.665 2723.548,260.618 
			2712.966,260.618 		"/>
	</g>
	<g>
		<path fill-rule="evenodd" clip-rule="evenodd" fill="#F1F2F2" stroke="#F1F2F2" stroke-width="1.125" stroke-miterlimit="10" d="
			M2821.104,260.618h-97.556v17.338h97.79L2821.104,260.618z M2735.779,274.924h-9.814v-11.259h9.814V274.924z M2747.967,274.924
			h-9.814v-11.259h9.814V274.924z M2760.163,274.924h-9.823v-11.259h9.823V274.924z M2772.354,274.924h-9.82v-11.259h9.82V274.924z
			 M2784.535,274.924h-9.809v-11.259h9.809V274.924z M2796.726,274.924h-9.809v-11.259h9.809V274.924z M2808.916,274.924h-9.803
			v-11.259h9.803V274.924z M2811.295,263.665h9.809v11.259h-9.809"/>
		
			<polyline fill-rule="evenodd" clip-rule="evenodd" fill="#F1F2F2" stroke="#F1F2F2" stroke-width="1.125" stroke-miterlimit="10" points="
			2820.98,277.956 2831.68,277.956 2831.68,274.924 2823.336,274.924 2823.336,263.665 2831.68,263.665 2831.68,260.618 
			2821.104,260.618 		"/>
	</g>
	<path fill-rule="evenodd" clip-rule="evenodd" fill="none" stroke="#F1F2F2" stroke-width="4.5" stroke-miterlimit="10" d="
		M2392.52,132.702c0,0,214.875,272.631,536.543,0"/>
	<path fill-rule="evenodd" clip-rule="evenodd" fill="none" stroke="#F1F2F2" stroke-width="4.5" stroke-miterlimit="10" d="
		M2960.381,129.816c43.875,54.404,108.152,95.317,175.096,113.493"/>
	<path fill-rule="evenodd" clip-rule="evenodd" fill="none" stroke="#F1F2F2" stroke-width="4.5" stroke-miterlimit="10" d="
		M2359.473,131.009c0,0-75.8,129.686-237.639,129.018"/>
</g>
<path fill="#F1F2F2" d="M1271.006,491.442H-217.993l0.618-441.281c17.786-5.405,38.068-9.114,53.871-5.162c0,0,53.25,1.5,72-5.25
	c0,0,102.75-26.742,114.75-35.121c0,0,15-10.629,32.25-6.879c0,0,34.5-6,47.25-12c0,0,38.25-14.25,57.75-7.5
	c0,0,47.25-22.5,72.75-21.75c0,0,18.75-9,25.5-6c0,0,43.5-24,70.5-11.25c0,0,14.25-12.75,26.25-11.25c0,0,39.75,11.25,46.5,18
	c0,0,27-3,43.5,6.75c0,0,16.5,10.5,19.5,9l15.598,4.846c20.613,0.838,51.015,28.078,51.015,28.078
	c9.677,10.248,39.601,28.436,39.601,28.436c17.426,2.812,27.51,18.185,27.51,18.185c8.106,12.182,93.979,74.616,93.979,74.616
	c14.991,13.134,65.109,31.189,65.109,31.189c36.803,4.775,80.719,55.049,80.719,55.049c5.789,11.938,15.615,23.854,15.615,23.854
	s207.111,166.875,415.641,179.3c0,0,490.6,32.142,529.975,32.142c0,0,58.5,15.75,63,54H1271.006z"/>
<g>
	<path fill="#E6E7E8" stroke="#E6E7E8" stroke-width="0.5625" stroke-miterlimit="10" d="M17.8,145.232
		c0,0,123.554-12.29,134.546-13.588c0,0-30.398,86.687-36.217,121.614c0,0-15.533,89.918-8.414,140.37
		c0,0,7.116,87.979,16.819,98.974H32.035c0,0,14.874-69.214,14.227-145.547c0,0,0-69.864-8.408-106.734
		C37.854,240.321,23.621,159.462,17.8,145.232z"/>
	<path fill="#E6E7E8" stroke="#E6E7E8" stroke-width="0.5625" stroke-miterlimit="10" d="M78.392,128.841v10.342V128.841z"/>
	<polygon fill="#E6E7E8" stroke="#E6E7E8" stroke-width="0.5625" stroke-miterlimit="10" points="78.392,128.841 145.883,128.841 
		145.883,132.348 78.392,139.183 	"/>
	<polygon fill="#E6E7E8" stroke="#E6E7E8" stroke-width="0.5625" stroke-miterlimit="10" points="72.57,111.163 81.626,127.763 
		143.727,127.763 151.06,111.163 	"/>
	<polygon fill="#E6E7E8" stroke="#E6E7E8" stroke-width="0.5625" stroke-miterlimit="10" points="66.102,102.104 69.986,111.163 
		154.08,111.163 162.055,93.913 	"/>
	
		<line fill="#E6E7E8" stroke="#E6E7E8" stroke-width="0.5625" stroke-miterlimit="10" x1="73.865" y1="78.603" x2="73.865" y2="100.593"/>
	
		<line fill="#E6E7E8" stroke="#E6E7E8" stroke-width="0.5625" stroke-miterlimit="10" x1="147.611" y1="77.091" x2="147.611" y2="99.087"/>
	
		<line fill="#E6E7E8" stroke="#E6E7E8" stroke-width="0.5625" stroke-miterlimit="10" x1="94.994" y1="78.603" x2="94.994" y2="100.593"/>
	
		<line fill="#E6E7E8" stroke="#E6E7E8" stroke-width="0.5625" stroke-miterlimit="10" x1="90.898" y1="80.545" x2="90.898" y2="102.535"/>
	
		<line fill="#E6E7E8" stroke="#E6E7E8" stroke-width="0.5625" stroke-miterlimit="10" x1="131.439" y1="76.013" x2="131.439" y2="98.009"/>
	
		<line fill="#E6E7E8" stroke="#E6E7E8" stroke-width="0.5625" stroke-miterlimit="10" x1="123.887" y1="78.603" x2="123.887" y2="100.593"/>
	
		<line fill="#E6E7E8" stroke="#E6E7E8" stroke-width="0.5625" stroke-miterlimit="10" x1="142.865" y1="80.545" x2="142.865" y2="102.535"/>
	
		<line fill="#E6E7E8" stroke="#E6E7E8" stroke-width="0.5625" stroke-miterlimit="10" x1="111.811" y1="76.013" x2="111.811" y2="98.009"/>
	
		<line fill="#E6E7E8" stroke="#E6E7E8" stroke-width="0.5625" stroke-miterlimit="10" x1="107.501" y1="82.915" x2="107.501" y2="104.908"/>
	
		<line fill="#E6E7E8" stroke="#E6E7E8" stroke-width="0.5625" stroke-miterlimit="10" x1="85.074" y1="77.091" x2="85.074" y2="99.087"/>
</g>
<path fill="#F1F1F2" d="M3019.877,418.675c4.98,0,8.924,0.979,12.732,1.922c3.791,0.943,7.699,1.91,12.615,1.91
	s8.827-0.967,12.609-1.91c3.814-0.943,7.758-1.922,12.741-1.922c0.507,0,1.002,0.006,1.485,0.029
	c3.645,0.229,7.354,1.148,10.365,1.893c3.785,0.943,7.699,1.91,12.615,1.91s8.827-0.967,12.609-1.91
	c3.814-0.943,7.752-1.922,12.741-1.922c0.384,0,0.759,0.003,1.128,0.018h0.053c2.133,0,4.148,0.229,6.059,0.557
	c2.552,0.448,5.856,0.888,7.843,1.951v12.349h-7.559h-107.669L3019.877,418.675z"/>
</svg>
