<?xml version="1.0" encoding="utf-8"?>
<!-- Generator: Adobe Illustrator 16.0.0, SVG Export Plug-In . SVG Version: 6.00 Build 0)  -->
<!DOCTYPE svg PUBLIC "-//W3C//DTD SVG 1.1//EN" "http://www.w3.org/Graphics/SVG/1.1/DTD/svg11.dtd">
<svg version="1.1" id="Layer_1" xmlns="http://www.w3.org/2000/svg" xmlns:xlink="http://www.w3.org/1999/xlink" x="0px" y="0px"
	 width="100px" height="100px" viewBox="0 0 100 100" enable-background="new 0 0 100 100" xml:space="preserve">
<path fill="#F4EDA1" stroke="#58595B" stroke-width="2.9109" stroke-miterlimit="10" d="M98.274,86.871
	c0,6.431-5.213,11.644-11.643,11.644H12.888c-6.43,0-11.643-5.213-11.643-11.644V13.128c0-6.43,5.213-11.643,11.643-11.643h73.744
	c6.43,0,11.643,5.213,11.643,11.643V86.871z"/>
<g>
	<path fill="#6D6E71" d="M49.404,43.532l11.258-2.805c4.016-0.986,12.078-4.274,12.078-4.274c8.088-3.149,18.475-8.974,18.475-8.974
		l-0.271-1.345l-0.618-0.275c-1.142-0.262-5.227,0.121-5.227,0.121l0.628-16.076l-3.981,0.798c-0.72,0.217-1.124,0.916-1.124,0.916
		l-8.16,14.39c-1.579,2.278-3.569,2.496-3.569,2.496l-1.949,0.427l-10.668,2.066l-5.666,1.209l-3.202,0.651l-0.035,0.004
		l-24.814,5.052l-0.049,0.008l-1.458,0.297l-0.857,0.196c-5.372,1.295-7.497,3.562-7.497,3.562c-1.187,1.449-1.498,2.19-1.498,2.19
		L9.57,45.413c-1.627,1.247-1.222,2.425-1.222,2.425c0.183,1.09,1.692,1.369,1.692,1.369c1.327,0.461,4.471,0.375,4.471,0.375
		c1.133,0.027,6.247-0.744,6.247-0.744l3.851-0.737l0.053-0.011l7.27-1.33l0.874,2.913c5.172-0.128,8.873-1.779,8.873-1.779
		l-0.099-1.034c0.769-0.336,1.858-0.881,1.858-0.881l-0.043-0.392c0.63-0.307,1.251-0.832,1.251-0.832l0.056-0.266l4.262-0.855
		L49.404,43.532"/>
	<circle fill="#6D6E71" cx="22.874" cy="51.823" r="1.225"/>
	<circle fill="#6D6E71" cx="51.567" cy="46.403" r="1.981"/>
</g>
<line fill="#58595B" stroke="#6D6E71" stroke-width="2" stroke-linecap="round" stroke-miterlimit="10" x1="5.807" y1="72" x2="93.712" y2="72"/>
<text transform="matrix(1 0 0 1 20.8613 88.5)" fill="#6D6E71" font-family="'Menlo-Regular'" font-size="12">Arrivals</text>
</svg>
