<?xml version="1.0" encoding="utf-8"?>
<!-- Generator: Adobe Illustrator 16.0.0, SVG Export Plug-In . SVG Version: 6.00 Build 0)  -->
<!DOCTYPE svg PUBLIC "-//W3C//DTD SVG 1.1//EN" "http://www.w3.org/Graphics/SVG/1.1/DTD/svg11.dtd">
<svg version="1.1" id="Layer_1" xmlns="http://www.w3.org/2000/svg" xmlns:xlink="http://www.w3.org/1999/xlink" x="0px" y="0px"
	 width="100px" height="100px" viewBox="0 0 100 100" enable-background="new 0 0 100 100" xml:space="preserve">
<g>
	<path stroke="#000000" stroke-width="0.25" stroke-miterlimit="10" d="M49.422,55.563l11.939-2.571
		c4.259-0.903,12.852-4.09,12.852-4.09c8.616-3.04,19.74-8.817,19.74-8.817l-0.239-1.424l-0.641-0.311
		c-1.193-0.313-5.503-0.049-5.503-0.049l1.203-16.893l-4.217,0.706c-0.764,0.204-1.213,0.926-1.213,0.926l-9.071,14.864
		c-1.737,2.344-3.839,2.506-3.839,2.506l-2.065,0.384l-11.293,1.814l-6.003,1.081l-3.39,0.577l-0.037,0.003l-26.278,4.477
		l-0.052,0.006l-1.544,0.263l-0.908,0.178c-5.695,1.181-8.008,3.495-8.008,3.495c-1.298,1.485-1.65,2.253-1.65,2.253l-1.754,1.257
		c-1.755,1.256-1.367,2.51-1.367,2.51c0.154,1.153,1.733,1.497,1.733,1.497c1.381,0.529,4.691,0.545,4.691,0.545
		c1.19,0.067,6.597-0.572,6.597-0.572l4.076-0.646l0.057-0.009l7.693-1.154l0.821,3.094c5.444,0.04,9.395-1.572,9.395-1.572
		l-0.068-1.091c0.819-0.328,1.984-0.865,1.984-0.865l-0.031-0.413c0.672-0.303,1.344-0.833,1.344-0.833l0.067-0.278l4.513-0.755
		L49.422,55.563"/>
	<circle stroke="#000000" stroke-width="0.25" stroke-miterlimit="10" cx="21.23" cy="63.391" r="1.289"/>
	<circle stroke="#000000" stroke-width="0.25" stroke-miterlimit="10" cx="51.601" cy="58.657" r="2.086"/>
</g>
</svg>
