<?xml version="1.0" encoding="utf-8"?>
<!-- Generator: Adobe Illustrator 16.0.0, SVG Export Plug-In . SVG Version: 6.00 Build 0)  -->
<!DOCTYPE svg PUBLIC "-//W3C//DTD SVG 1.1//EN" "http://www.w3.org/Graphics/SVG/1.1/DTD/svg11.dtd">
<svg version="1.1" id="Layer_1" xmlns="http://www.w3.org/2000/svg" xmlns:xlink="http://www.w3.org/1999/xlink" x="0px" y="0px"
	 width="348.703px" height="182px" viewBox="0 0 348.703 182" enable-background="new 0 0 348.703 182" xml:space="preserve">
<path fill="#FFFFFF" stroke="#808285" stroke-miterlimit="10" d="M18.554,136.169c0,0,1.571-2.342,6.634-6.536
	c0,0,8.841-6.381,28.213-7.23l3.081-0.101l142.831-1.17l2.98-3.598l0.999-0.006l-0.979,3.588l9.166-0.048l8.12-8.711
	c0,0,1.656-1.924,2.906-1.93l2.332-0.013l-5.194,10.362l38.125,0.048l6.999-0.162c0,0,7.003,0.588,13.969-6.198l37.769-44.074
	c0,0,1.864-2.134,4.487-2.398l14.251-0.076L322.28,122.86c0,0,14.32,1.425,18.078,3.094l1.945,1.364l0.025,4.812
	c0,0-39.682,13.085-69.653,18.493c0,0-29.969,5.908-44.466,6.608l-61.739,2.325l-15.25,0.081l-0.37,0.876
	c0,0-2.492,1.388-4.864,2.025l-0.117,1.376c0,0-4.119,1.146-6.991,1.786l-0.354,3.628c0,0-13.86,3.198-31.751,0.167l-1.056-10.619
	l-57.377-0.198c0,0-18.13-0.78-22.009-1.636c0,0-10.885-1.817-15.148-4.293c0,0-5.011-1.976-4.905-5.851c0,0-0.606-4.331,5.837-7.53
	L18.554,136.169z"/>
<circle fill="#FFFFFF" stroke="#808285" stroke-miterlimit="10" cx="51.2" cy="173.804" r="4.297"/>
<circle fill="#FFFFFF" stroke="#808285" stroke-miterlimit="10" cx="167.506" cy="170.564" r="6.953"/>
</svg>
