<?xml version="1.0" encoding="utf-8"?>
<!-- Generator: Adobe Illustrator 16.0.0, SVG Export Plug-In . SVG Version: 6.00 Build 0)  -->
<!DOCTYPE svg PUBLIC "-//W3C//DTD SVG 1.1//EN" "http://www.w3.org/Graphics/SVG/1.1/DTD/svg11.dtd">
<svg version="1.1" id="Layer_1" xmlns="http://www.w3.org/2000/svg" xmlns:xlink="http://www.w3.org/1999/xlink" x="0px" y="0px"
	 width="100px" height="100px" viewBox="0 0 100 100" enable-background="new 0 0 100 100" xml:space="preserve">
<path fill="#F4EDA1" stroke="#58595B" stroke-width="2.9109" stroke-miterlimit="10" d="M98.795,86.146
	c0,6.431-5.213,11.644-11.645,11.644H13.409c-6.432,0-11.646-5.213-11.646-11.644V12.404c0-6.43,5.214-11.644,11.646-11.644H87.15
	c6.432,0,11.645,5.213,11.645,11.644V86.146z"/>
<line fill="#58595B" stroke="#6D6E71" stroke-width="2" stroke-linecap="round" stroke-miterlimit="10" x1="6.326" y1="72" x2="94.231" y2="72"/>
<text transform="matrix(1 0 0 1 14.1562 88.5)" fill="#6D6E71" font-family="'Menlo-Regular'" font-size="12">Departures</text>
<path fill="#6D6E71" d="M44.584,37.486l11.04,3.571c3.93,1.285,12.512,2.755,12.512,2.755c8.53,1.604,20.427,2.149,20.427,2.149
	l0.48-1.284l-0.379-0.561c-0.831-0.826-4.499-2.66-4.499-2.66l9.029-13.315l-3.802-1.427c-0.725-0.195-1.439,0.184-1.439,0.184
	L73.422,34.8c-2.545,1.1-4.351,0.232-4.351,0.232l-1.88-0.668l-10.148-3.885l-5.448-1.97l-3.061-1.138l-0.033-0.016l-23.735-8.83
	l-0.046-0.02l-1.395-0.518l-0.831-0.287c-5.244-1.74-8.247-0.938-8.247-0.938c-1.773,0.603-2.43,1.066-2.43,1.066l-2.04,0.199
	c-2.041,0.198-2.319,1.412-2.319,1.412c-0.422,1.022,0.712,2.057,0.712,2.057c0.885,1.092,3.598,2.681,3.598,2.681
	c0.946,0.622,5.695,2.67,5.695,2.67l3.658,1.41l0.051,0.019l6.874,2.714l-0.797,2.935c4.458,2.624,8.472,3.18,8.472,3.18
	l0.463-0.929c0.83,0.121,2.043,0.234,2.043,0.234l0.171-0.355c0.697,0.071,1.502-0.045,1.502-0.045l0.187-0.196l4.07,1.527
	L44.584,37.486"/>
</svg>
