<?xml version="1.0" encoding="utf-8"?>
<!-- Generator: Adobe Illustrator 16.0.0, SVG Export Plug-In . SVG Version: 6.00 Build 0)  -->
<!DOCTYPE svg PUBLIC "-//W3C//DTD SVG 1.1//EN" "http://www.w3.org/Graphics/SVG/1.1/DTD/svg11.dtd">
<svg version="1.1" id="Layer_1" xmlns="http://www.w3.org/2000/svg" xmlns:xlink="http://www.w3.org/1999/xlink" x="0px" y="0px"
	 width="100px" height="44px" viewBox="0 33.5 100 44" enable-background="new 0 33.5 100 44" xml:space="preserve">
<path fill="#8E9EAB" d="M46.271,64.848l12.118,1.53c4.316,0.56,13.479,0.397,13.479,0.397c9.137-0.012,21.547-1.777,21.547-1.777
	l0.246-1.422L93.16,63.07c-1.021-0.691-5.176-1.869-5.176-1.869l6.731-15.54l-4.212-0.731c-0.788-0.061-1.452,0.472-1.452,0.472
	L75.57,56.42c-2.416,1.637-4.453,1.092-4.453,1.092l-2.075-0.322L57.785,55.16l-6.021-0.971l-3.389-0.576l-0.037-0.01L22.061,49.12
	l-0.051-0.012l-1.544-0.263l-0.916-0.134c-5.765-0.772-8.713,0.645-8.713,0.645c-1.717,0.971-2.305,1.58-2.305,1.58L6.461,51.54
	C4.39,52.145,4.34,53.455,4.34,53.455c-0.236,1.141,1.14,1.986,1.14,1.986c1.128,0.957,4.246,2.068,4.246,2.068
	c1.101,0.458,6.413,1.646,6.413,1.646l4.06,0.74l0.057,0.011l7.641,1.461l-0.249,3.19c5.123,1.842,9.385,1.629,9.385,1.629
	l0.297-1.052c0.881-0.036,2.158-0.157,2.158-0.157l0.107-0.4c0.734-0.062,1.544-0.342,1.544-0.342l0.155-0.238l4.508,0.781
	L46.271,64.848"/>
</svg>
