<?xml version="1.0" encoding="utf-8"?>
<!-- Generator: Adobe Illustrator 16.0.0, SVG Export Plug-In . SVG Version: 6.00 Build 0)  -->
<!DOCTYPE svg PUBLIC "-//W3C//DTD SVG 1.1//EN" "http://www.w3.org/Graphics/SVG/1.1/DTD/svg11.dtd">
<svg version="1.1" id="Layer_1" xmlns="http://www.w3.org/2000/svg" xmlns:xlink="http://www.w3.org/1999/xlink" x="0px" y="0px"
	 width="150px" height="150px" viewBox="0 0 150 150" enable-background="new 0 0 150 150" xml:space="preserve">
<g>
	<g>
		<path fill="#FFFFFF" stroke="#A7A9AC" stroke-miterlimit="10" d="M74.624,142.077h-0.902l-1.95-7.41l-21.45,4.485l0.39-5.265
			l19.306-12.676c-2.535-7.604-2.34-22.62-2.34-22.62V76.557l-18.136,0.195l-21.776,6.791l-17.613,5.494
			c-4.29,1.364-4.685,4.875-4.685,4.875l0.005-4.096c-0.005-5.412,5.46-7.604,5.46-7.604l56.745-29.641V20.054
			c0,0,2.121-8.994,6.582-11.919c0,0,0.836-0.477,1.48,0"/>
		<path fill="#FFFFFF" stroke="#A7A9AC" stroke-miterlimit="10" d="M57.513,57.881v-8.869c0-1.609-0.365-1.682-0.365-1.682h-8.775
			c-1.243,0-0.95,1.682-0.95,1.682v9.579c0,0,0.216,3.137,0.838,4.123"/>
		<path fill="#FFFFFF" stroke="#A7A9AC" stroke-miterlimit="10" d="M56.562,76.676v2.902c0,0-0.147,1.512-0.643,1.511
			c-0.671-0.001-0.82-1.634-0.82-1.634v-2.604"/>
		<path fill="#FFFFFF" stroke="#A7A9AC" stroke-miterlimit="10" d="M43.153,78.745v2.953c0,0-0.148,1.512-0.642,1.511
			c-0.673,0-0.821-1.633-0.821-1.633V78.97"/>
		<path fill="#FFFFFF" stroke="#A7A9AC" stroke-miterlimit="10" d="M28.957,83.285v2.917c0,0-0.146,1.512-0.643,1.511
			c-0.672,0-0.82-1.633-0.82-1.633v-2.605"/>
	</g>
	<g>
		<path fill="#FFFFFF" stroke="#A7A9AC" stroke-miterlimit="10" d="M75.739,8.135c4.461,2.925,6.582,11.919,6.582,11.919v32.518
			l56.745,29.641c0,0,5.466,2.192,5.46,7.604l0.006,4.096c0,0-0.396-3.511-4.686-4.875l-17.613-5.494l-21.776-6.791l-18.136-0.195
			v22.034c0,0,0.195,15.016-2.34,22.62l19.306,12.676l0.39,5.265l-21.45-4.485l-1.95,7.41h-2.555"/>
		<path fill="#FFFFFF" stroke="#A7A9AC" stroke-miterlimit="10" d="M92.485,57.881v-8.869c0-1.609,0.365-1.682,0.365-1.682h8.775
			c1.243,0,0.95,1.682,0.95,1.682v9.579c0,0-0.216,3.137-0.838,4.123"/>
		<path fill="#FFFFFF" stroke="#A7A9AC" stroke-miterlimit="10" d="M93.436,76.676v2.902c0,0,0.147,1.512,0.643,1.511
			c0.671-0.001,0.82-1.634,0.82-1.634v-2.604"/>
		<path fill="#FFFFFF" stroke="#A7A9AC" stroke-miterlimit="10" d="M106.845,78.745v2.953c0,0,0.148,1.512,0.643,1.511
			c0.672,0,0.82-1.633,0.82-1.633V78.97"/>
		<path fill="#FFFFFF" stroke="#A7A9AC" stroke-miterlimit="10" d="M121.041,83.285v2.917c0,0,0.146,1.512,0.643,1.511
			c0.672,0,0.82-1.633,0.82-1.633v-2.605"/>
	</g>
</g>
</svg>
