<?xml version="1.0" encoding="utf-8"?>
<!-- Generator: Adobe Illustrator 16.0.0, SVG Export Plug-In . SVG Version: 6.00 Build 0)  -->
<!DOCTYPE svg PUBLIC "-//W3C//DTD SVG 1.1//EN" "http://www.w3.org/Graphics/SVG/1.1/DTD/svg11.dtd">
<svg version="1.1" id="Layer_1" xmlns="http://www.w3.org/2000/svg" xmlns:xlink="http://www.w3.org/1999/xlink" x="0px" y="0px"
	 width="100px" height="100px" viewBox="25 25 100 100" enable-background="new 25 25 100 100" xml:space="preserve">
<g>
	<g>
		<path fill="#FFFFFF" stroke="#A7A9AC" stroke-miterlimit="10" d="M74.737,120.954h-0.631l-1.365-5.187l-15.015,3.139l0.273-3.686
			l13.514-8.873c-1.774-5.322-1.638-15.834-1.638-15.834V75.09L57.18,75.227L41.937,79.98l-12.33,3.846
			c-3.003,0.954-3.279,3.412-3.279,3.412l0.004-2.867c-0.004-3.788,3.822-5.322,3.822-5.322L69.875,58.3V35.538
			c0,0,1.484-6.296,4.607-8.344c0,0,0.585-0.333,1.036,0"/>
		<path fill="#FFFFFF" stroke="#A7A9AC" stroke-miterlimit="10" d="M62.759,62.017v-6.208c0-1.126-0.255-1.177-0.255-1.177h-6.143
			c-0.87,0-0.665,1.177-0.665,1.177v6.705c0,0,0.151,2.196,0.587,2.886"/>
		<path fill="#FFFFFF" stroke="#A7A9AC" stroke-miterlimit="10" d="M62.094,75.174v2.031c0,0-0.103,1.059-0.45,1.057
			c-0.47,0-0.574-1.143-0.574-1.143v-1.822"/>
		<path fill="#FFFFFF" stroke="#A7A9AC" stroke-miterlimit="10" d="M52.707,76.621v2.068c0,0-0.104,1.058-0.449,1.057
			c-0.471,0-0.575-1.143-0.575-1.143v-1.824"/>
		<path fill="#FFFFFF" stroke="#A7A9AC" stroke-miterlimit="10" d="M42.77,79.8v2.042c0,0-0.102,1.059-0.45,1.057
			c-0.47,0-0.574-1.143-0.574-1.143v-1.824"/>
	</g>
	<g>
		<path fill="#FFFFFF" stroke="#A7A9AC" stroke-miterlimit="10" d="M75.518,27.194c3.123,2.048,4.607,8.344,4.607,8.344v22.763
			l39.722,20.748c0,0,3.826,1.535,3.821,5.322l0.005,2.868c0,0-0.276-2.458-3.28-3.413l-12.33-3.846L92.82,75.227l-12.695-0.135
			v15.422c0,0,0.137,10.512-1.639,15.835l13.515,8.874l0.272,3.684l-15.015-3.139l-1.364,5.188h-1.789"/>
		<path fill="#FFFFFF" stroke="#A7A9AC" stroke-miterlimit="10" d="M87.239,62.017v-6.208c0-1.126,0.255-1.177,0.255-1.177h6.144
			c0.87,0,0.665,1.177,0.665,1.177v6.705c0,0-0.15,2.196-0.588,2.886"/>
		<path fill="#FFFFFF" stroke="#A7A9AC" stroke-miterlimit="10" d="M87.904,75.174v2.031c0,0,0.104,1.059,0.451,1.057
			c0.47,0,0.574-1.143,0.574-1.143v-1.822"/>
		<path fill="#FFFFFF" stroke="#A7A9AC" stroke-miterlimit="10" d="M97.292,76.621v2.068c0,0,0.104,1.058,0.45,1.057
			c0.471,0,0.574-1.143,0.574-1.143v-1.824"/>
		<path fill="#FFFFFF" stroke="#A7A9AC" stroke-miterlimit="10" d="M107.229,79.8v2.042c0,0,0.104,1.059,0.45,1.057
			c0.47,0,0.574-1.143,0.574-1.143v-1.824"/>
	</g>
</g>
</svg>
