<?xml version="1.0" encoding="utf-8"?>
<!-- Generator: Adobe Illustrator 16.0.0, SVG Export Plug-In . SVG Version: 6.00 Build 0)  -->
<!DOCTYPE svg PUBLIC "-//W3C//DTD SVG 1.1//EN" "http://www.w3.org/Graphics/SVG/1.1/DTD/svg11.dtd">
<svg version="1.1" id="Layer_1" xmlns="http://www.w3.org/2000/svg" xmlns:xlink="http://www.w3.org/1999/xlink" x="0px" y="0px"
	 width="100px" height="100px" viewBox="25 25 100 100" enable-background="new 25 25 100 100" xml:space="preserve">
<g>
	<path fill="#FFFFFF" stroke="#A7A9AC" stroke-miterlimit="10" d="M82.652,82.19c10.102,0,18.317-8.217,18.317-18.317
		c0-10.101-8.216-18.318-18.317-18.318c-10.1,0-18.317,8.217-18.317,18.318C64.335,73.974,72.552,82.19,82.652,82.19"/>
	<path fill="#FFFFFF" stroke="#A7A9AC" stroke-miterlimit="10" d="M80.703,37.264c0,1.077,0.873,1.95,1.949,1.95
		c1.077,0,1.949-0.873,1.949-1.95v-8.258c0-1.076-0.872-1.95-1.949-1.95c-1.076,0-1.949,0.874-1.949,1.95V37.264z"/>
	<path fill="#FFFFFF" stroke="#A7A9AC" stroke-miterlimit="10" d="M69.351,42.779c0.332,0,0.666-0.084,0.973-0.262
		c0.933-0.539,1.252-1.731,0.714-2.663l-4.128-7.151c-0.538-0.932-1.73-1.251-2.663-0.714c-0.932,0.539-1.252,1.731-0.715,2.664
		l4.129,7.151C68.021,42.429,68.677,42.779,69.351,42.779"/>
	<path fill="#FFFFFF" stroke="#A7A9AC" stroke-miterlimit="10" d="M94.982,85.229c-0.933,0.537-1.252,1.73-0.715,2.662l4.129,7.152
		c0.363,0.625,1.017,0.975,1.689,0.975c0.333,0,0.667-0.084,0.975-0.262c0.932-0.539,1.252-1.73,0.714-2.663l-4.13-7.151
		C97.107,85.01,95.914,84.689,94.982,85.229"/>
	<path fill="#FFFFFF" stroke="#A7A9AC" stroke-miterlimit="10" d="M50.77,45.464c-0.539,0.933-0.218,2.125,0.714,2.663l7.152,4.129
		c0.307,0.177,0.641,0.261,0.972,0.261c0.674,0,1.329-0.35,1.69-0.976c0.538-0.932,0.219-2.125-0.713-2.663l-7.152-4.129
		C52.5,44.213,51.308,44.532,50.77,45.464"/>
	<path fill="#FFFFFF" stroke="#A7A9AC" stroke-miterlimit="10" d="M113.822,79.617l-7.151-4.129
		c-0.933-0.538-2.124-0.219-2.663,0.715c-0.539,0.932-0.219,2.124,0.713,2.662l7.152,4.129c0.307,0.178,0.641,0.262,0.974,0.262
		c0.673,0,1.327-0.35,1.69-0.976C115.074,81.348,114.756,80.156,113.822,79.617"/>
	<path fill="#FFFFFF" stroke="#A7A9AC" stroke-miterlimit="10" d="M57.994,63.873c0-1.077-0.873-1.95-1.95-1.95h-8.258
		c-1.077,0-1.949,0.873-1.949,1.95s0.872,1.949,1.949,1.949h8.258C57.121,65.822,57.994,64.949,57.994,63.873"/>
	<path fill="#FFFFFF" stroke="#A7A9AC" stroke-miterlimit="10" d="M119.468,63.873c0-1.077-0.872-1.95-1.95-1.95"/>
	<path fill="#FFFFFF" stroke="#A7A9AC" stroke-miterlimit="10" d="M117.518,61.923h-8.258c-1.075,0-1.949,0.873-1.949,1.95
		s0.874,1.949,1.949,1.949h8.258c1.078,0,1.95-0.873,1.95-1.949"/>
	<path fill="#FFFFFF" stroke="#A7A9AC" stroke-miterlimit="10" d="M58.635,75.488l-7.152,4.129c-0.933,0.539-1.252,1.73-0.714,2.663
		c0.361,0.626,1.016,0.976,1.69,0.976c0.332,0,0.666-0.084,0.973-0.262l7.152-4.129c0.933-0.538,1.251-1.73,0.713-2.662
		C60.76,75.27,59.567,74.949,58.635,75.488"/>
	<path fill="#FFFFFF" stroke="#A7A9AC" stroke-miterlimit="10" d="M111.873,44.751l-7.152,4.129
		c-0.932,0.538-1.25,1.731-0.713,2.664c0.361,0.625,1.016,0.975,1.689,0.975c0.331,0,0.666-0.085,0.973-0.262l7.152-4.129
		c0.934-0.538,1.252-1.73,0.715-2.663C113.998,44.533,112.806,44.213,111.873,44.751"/>
	<path fill="#FFFFFF" stroke="#A7A9AC" stroke-miterlimit="10" d="M94.982,42.517c0.307,0.177,0.642,0.262,0.973,0.262
		c0.674,0,1.328-0.35,1.689-0.976l4.13-7.151c0.538-0.932,0.218-2.125-0.714-2.663c-0.932-0.538-2.125-0.219-2.664,0.713
		l-4.129,7.152C93.73,40.787,94.05,41.979,94.982,42.517"/>
	<path fill="#FFFFFF" stroke="#A7A9AC" stroke-miterlimit="10" d="M42.94,94.805h41.302c6.842,0,12.407-5.535,12.407-12.338
		c0-3.871-1.776-7.443-4.871-9.802c-0.333-0.252-0.575-0.606-0.692-1.009c-1.782-6.161-7.512-10.465-13.933-10.465
		c-1.183,0-2.362,0.144-3.503,0.427c-0.789,0.195-1.615-0.118-2.076-0.787c-2.996-4.354-7.935-6.952-13.211-6.952
		c-4.012,0-7.851,1.489-10.81,4.194c-2.94,2.687-4.767,6.341-5.144,10.288c-0.066,0.683-0.484,1.281-1.103,1.575
		c-0.193,0.092-0.388,0.191-0.578,0.296c-0.162,0.09-0.337,0.156-0.518,0.196c-2.706,0.604-5.163,2.124-6.92,4.28
		c-1.805,2.217-2.759,4.898-2.759,7.758C30.533,89.27,36.1,94.805,42.94,94.805"/>
	<path fill="#FFFFFF" stroke="#A7A9AC" stroke-miterlimit="10" d="M75.975,111.708c-0.189,0-0.381-0.028-0.571-0.087
		c-1.03-0.315-1.608-1.406-1.293-2.436l2.347-7.657c0.316-1.029,1.406-1.608,2.436-1.294c1.03,0.316,1.607,1.408,1.293,2.436
		l-2.348,7.659C77.58,111.168,76.809,111.708,75.975,111.708"/>
	<path fill="#FFFFFF" stroke="#A7A9AC" stroke-miterlimit="10" d="M65.278,120.943c-0.189,0-0.381-0.027-0.571-0.086
		c-1.029-0.314-1.608-1.405-1.292-2.436l2.347-7.658c0.316-1.029,1.406-1.607,2.435-1.293c1.03,0.316,1.609,1.406,1.294,2.436
		l-2.348,7.658C66.883,120.404,66.112,120.943,65.278,120.943"/>
	<path fill="#FFFFFF" stroke="#A7A9AC" stroke-miterlimit="10" d="M51.678,108.982c1.029,0.313,1.608,1.405,1.293,2.436
		l-2.347,7.656c-0.257,0.84-1.03,1.381-1.863,1.381c-0.19,0-0.381-0.029-0.572-0.087c-1.03-0.315-1.608-1.405-1.293-2.436
		l2.347-7.658C49.558,109.244,50.649,108.665,51.678,108.982"/>
	<path fill="#FFFFFF" stroke="#A7A9AC" stroke-miterlimit="10" d="M59.65,111.708c-0.19,0-0.381-0.028-0.572-0.087
		c-1.029-0.315-1.608-1.406-1.293-2.436l2.348-7.657c0.315-1.029,1.405-1.608,2.435-1.294c1.03,0.316,1.608,1.408,1.293,2.436
		l-2.347,7.659C61.256,111.168,60.485,111.708,59.65,111.708"/>
	<path fill="#FFFFFF" stroke="#A7A9AC" stroke-miterlimit="10" d="M43.327,111.708c-0.189,0-0.382-0.028-0.571-0.087
		c-1.03-0.315-1.608-1.406-1.294-2.436l2.348-7.657c0.316-1.029,1.406-1.608,2.435-1.294c1.03,0.316,1.608,1.408,1.294,2.436
		l-2.348,7.659C44.932,111.168,44.16,111.708,43.327,111.708"/>
</g>
</svg>
