<?xml version="1.0" encoding="utf-8"?>
<!-- Generator: Adobe Illustrator 16.0.0, SVG Export Plug-In . SVG Version: 6.00 Build 0)  -->
<!DOCTYPE svg PUBLIC "-//W3C//DTD SVG 1.1//EN" "http://www.w3.org/Graphics/SVG/1.1/DTD/svg11.dtd">
<svg version="1.1" id="Layer_1" xmlns="http://www.w3.org/2000/svg" xmlns:xlink="http://www.w3.org/1999/xlink" x="0px" y="0px"
	 width="150px" height="150px" viewBox="0 0 150 150" enable-background="new 0 0 150 150" xml:space="preserve">
<g>
	<path fill="#FFFFFF" stroke="#A7A9AC" stroke-miterlimit="10" d="M85.932,86.7c14.431,0,26.168-11.738,26.168-26.167
		c0-14.43-11.737-26.169-26.168-26.169c-14.429,0-26.168,11.739-26.168,26.169C59.764,74.962,71.503,86.7,85.932,86.7"/>
	<path fill="#FFFFFF" stroke="#A7A9AC" stroke-miterlimit="10" d="M83.147,22.52c0,1.538,1.247,2.785,2.785,2.785
		s2.784-1.247,2.784-2.785V10.723c0-1.537-1.246-2.785-2.784-2.785s-2.785,1.248-2.785,2.785V22.52z"/>
	<path fill="#FFFFFF" stroke="#A7A9AC" stroke-miterlimit="10" d="M66.929,30.398c0.474,0,0.952-0.12,1.39-0.374
		c1.332-0.769,1.788-2.472,1.02-3.804l-5.898-10.216c-0.769-1.332-2.472-1.788-3.804-1.02c-1.332,0.769-1.789,2.473-1.021,3.805
		l5.899,10.216C65.031,29.898,65.967,30.398,66.929,30.398"/>
	<path fill="#FFFFFF" stroke="#A7A9AC" stroke-miterlimit="10" d="M103.546,91.04c-1.332,0.769-1.789,2.472-1.021,3.804
		l5.899,10.217c0.517,0.894,1.452,1.392,2.414,1.392c0.474,0,0.952-0.119,1.39-0.373c1.332-0.769,1.789-2.473,1.021-3.805
		l-5.899-10.216C106.581,90.728,104.878,90.271,103.546,91.04"/>
	<path fill="#FFFFFF" stroke="#A7A9AC" stroke-miterlimit="10" d="M40.385,34.235c-0.77,1.332-0.312,3.035,1.02,3.804l10.217,5.899
		c0.438,0.253,0.916,0.373,1.389,0.373c0.963,0,1.898-0.499,2.415-1.393c0.769-1.332,0.313-3.035-1.019-3.804l-10.217-5.899
		C42.857,32.447,41.154,32.903,40.385,34.235"/>
	<path fill="#FFFFFF" stroke="#A7A9AC" stroke-miterlimit="10" d="M130.461,83.024l-10.217-5.898
		c-1.332-0.769-3.035-0.312-3.805,1.02s-0.312,3.035,1.02,3.805l10.217,5.898c0.438,0.253,0.916,0.373,1.39,0.373
		c0.962,0,1.897-0.499,2.414-1.393C132.248,85.497,131.793,83.794,130.461,83.024"/>
	<path fill="#FFFFFF" stroke="#A7A9AC" stroke-miterlimit="10" d="M50.705,60.532c0-1.538-1.247-2.785-2.785-2.785H36.123
		c-1.538,0-2.784,1.247-2.784,2.785s1.246,2.785,2.784,2.785H47.92C49.458,63.317,50.705,62.07,50.705,60.532"/>
	<path fill="#FFFFFF" stroke="#A7A9AC" stroke-miterlimit="10" d="M138.525,60.532c0-1.538-1.246-2.785-2.785-2.785"/>
	<path fill="#FFFFFF" stroke="#A7A9AC" stroke-miterlimit="10" d="M135.74,57.747h-11.797c-1.537,0-2.785,1.247-2.785,2.785
		s1.248,2.785,2.785,2.785h11.797c1.539,0,2.785-1.247,2.785-2.785"/>
	<path fill="#FFFFFF" stroke="#A7A9AC" stroke-miterlimit="10" d="M51.621,77.126l-10.217,5.898c-1.332,0.77-1.789,2.473-1.02,3.805
		c0.516,0.893,1.451,1.393,2.414,1.393c0.473,0,0.951-0.119,1.39-0.373l10.218-5.898c1.332-0.77,1.787-2.473,1.019-3.805
		S52.953,76.356,51.621,77.126"/>
	<path fill="#FFFFFF" stroke="#A7A9AC" stroke-miterlimit="10" d="M127.676,33.216l-10.217,5.898
		c-1.332,0.769-1.787,2.473-1.02,3.805c0.516,0.893,1.451,1.393,2.415,1.393c0.472,0,0.95-0.121,1.389-0.374l10.218-5.898
		c1.332-0.769,1.787-2.472,1.019-3.804S129.008,32.447,127.676,33.216"/>
	<path fill="#FFFFFF" stroke="#A7A9AC" stroke-miterlimit="10" d="M103.546,30.024c0.438,0.253,0.917,0.374,1.39,0.374
		c0.963,0,1.898-0.5,2.414-1.394l5.899-10.216c0.769-1.331,0.312-3.035-1.021-3.804c-1.33-0.769-3.035-0.313-3.804,1.019
		l-5.899,10.217C101.757,27.553,102.214,29.255,103.546,30.024"/>
	<path fill="#FFFFFF" stroke="#A7A9AC" stroke-miterlimit="10" d="M29.2,104.72h59.003c9.773,0,17.725-7.906,17.725-17.625
		c0-5.53-2.537-10.633-6.959-14.002c-0.477-0.361-0.822-0.867-0.988-1.441c-2.547-8.802-10.732-14.95-19.905-14.95
		c-1.69,0-3.374,0.205-5.005,0.61c-1.126,0.279-2.307-0.169-2.965-1.124c-4.28-6.219-11.336-9.932-18.873-9.932
		c-5.731,0-11.215,2.128-15.442,5.991c-4.2,3.839-6.81,9.059-7.348,14.698c-0.095,0.975-0.692,1.829-1.576,2.25
		c-0.276,0.131-0.554,0.273-0.825,0.423c-0.232,0.129-0.482,0.224-0.74,0.281c-3.865,0.862-7.375,3.034-9.885,6.114
		c-2.578,3.166-3.941,6.998-3.941,11.082C11.475,96.813,19.428,104.72,29.2,104.72"/>
	<path fill="#FFFFFF" stroke="#A7A9AC" stroke-miterlimit="10" d="M76.393,128.868c-0.271,0-0.545-0.041-0.817-0.123
		c-1.472-0.451-2.297-2.008-1.847-3.479l3.353-10.94c0.451-1.471,2.009-2.297,3.479-1.847c1.471,0.451,2.297,2.009,1.847,3.478
		l-3.353,10.941C78.686,128.097,77.583,128.868,76.393,128.868"/>
	<path fill="#FFFFFF" stroke="#A7A9AC" stroke-miterlimit="10" d="M61.111,142.062c-0.27,0-0.545-0.039-0.816-0.123
		c-1.471-0.45-2.298-2.008-1.847-3.479l3.353-10.941c0.451-1.47,2.008-2.297,3.479-1.846s2.298,2.008,1.848,3.479l-3.354,10.941
		C63.405,141.291,62.303,142.062,61.111,142.062"/>
	<path fill="#FFFFFF" stroke="#A7A9AC" stroke-miterlimit="10" d="M41.683,124.974c1.47,0.449,2.297,2.008,1.847,3.479
		l-3.353,10.939c-0.368,1.199-1.472,1.971-2.662,1.971c-0.271,0-0.545-0.04-0.817-0.123c-1.471-0.451-2.297-2.008-1.847-3.479
		l3.353-10.941C38.654,125.349,40.213,124.522,41.683,124.974"/>
	<path fill="#FFFFFF" stroke="#A7A9AC" stroke-miterlimit="10" d="M53.072,128.868c-0.271,0-0.545-0.041-0.817-0.123
		c-1.47-0.451-2.297-2.008-1.847-3.479l3.354-10.94c0.451-1.471,2.008-2.297,3.479-1.847c1.471,0.451,2.297,2.009,1.847,3.478
		l-3.353,10.941C55.365,128.097,54.264,128.868,53.072,128.868"/>
	<path fill="#FFFFFF" stroke="#A7A9AC" stroke-miterlimit="10" d="M29.752,128.868c-0.27,0-0.545-0.041-0.816-0.123
		c-1.471-0.451-2.297-2.008-1.848-3.479l3.354-10.94c0.451-1.471,2.009-2.297,3.479-1.847c1.471,0.451,2.297,2.009,1.848,3.478
		l-3.354,10.941C32.046,128.097,30.943,128.868,29.752,128.868"/>
</g>
</svg>
